<svg width="17" height="17" viewBox="0 0 11 14" fill="none" xmlns="http://www.w3.org/2000/svg">
<path fill-rule="evenodd" clip-rule="evenodd" d="M10.2584 5.83571C10.2584 7.00424 9.85309 8.07802 9.17546 8.92395H9.17832C9.17832 8.92395 7.4623 11.222 6.13294 12.8492C5.70882 13.3683 4.93304 13.3681 4.50918 12.8488C3.18406 11.2252 1.47024 8.92894 1.47024 8.92894L1.46625 8.92395C0.788624 8.07802 0.383301 7.00424 0.383301 5.83571C0.383301 3.10677 2.59392 0.894531 5.32086 0.894531C8.04779 0.894531 10.2584 3.10677 10.2584 5.83571ZM7.1645 5.81432C7.1645 6.83325 6.33911 7.65925 5.32093 7.65925C4.30276 7.65925 3.47737 6.83325 3.47737 5.81432C3.47737 4.7954 4.30276 3.9694 5.32093 3.9694C6.33911 3.9694 7.1645 4.7954 7.1645 5.81432Z" fill="#11142D"/>
</svg>
