<svg width="20" height="21" viewBox="0 0 20 21" fill="none" xmlns="http://www.w3.org/2000/svg">
<path d="M17.5 0.5H2.5C1.83696 0.5 1.20107 0.763392 0.732233 1.23223C0.263392 1.70107 0 2.33696 0 3L0 8.83333C0.00216972 9.45033 0.233873 10.0444 0.65 10.5C0.233873 10.9556 0.00216972 11.5497 0 12.1667L0 18C0 18.663 0.263392 19.2989 0.732233 19.7678C1.20107 20.2366 1.83696 20.5 2.5 20.5H17.5C18.163 20.5 18.7989 20.2366 19.2678 19.7678C19.7366 19.2989 20 18.663 20 18V12.1667C19.9978 11.5497 19.7661 10.9556 19.35 10.5C19.7661 10.0444 19.9978 9.45033 20 8.83333V3C20 2.33696 19.7366 1.70107 19.2678 1.23223C18.7989 0.763392 18.163 0.5 17.5 0.5ZM1.66667 3C1.66667 2.77899 1.75446 2.56702 1.91074 2.41074C2.06702 2.25446 2.27899 2.16667 2.5 2.16667H17.5C17.721 2.16667 17.933 2.25446 18.0893 2.41074C18.2455 2.56702 18.3333 2.77899 18.3333 3V8.83333C18.3333 9.05435 18.2455 9.26631 18.0893 9.42259C17.933 9.57887 17.721 9.66667 17.5 9.66667H2.5C2.27899 9.66667 2.06702 9.57887 1.91074 9.42259C1.75446 9.26631 1.66667 9.05435 1.66667 8.83333V3ZM18.3333 18C18.3333 18.221 18.2455 18.433 18.0893 18.5893C17.933 18.7455 17.721 18.8333 17.5 18.8333H2.5C2.27899 18.8333 2.06702 18.7455 1.91074 18.5893C1.75446 18.433 1.66667 18.221 1.66667 18V12.1667C1.66667 11.9457 1.75446 11.7337 1.91074 11.5774C2.06702 11.4211 2.27899 11.3333 2.5 11.3333H17.5C17.721 11.3333 17.933 11.4211 18.0893 11.5774C18.2455 11.7337 18.3333 11.9457 18.3333 12.1667V18Z" fill="#737787"/>
</svg>
