<svg width="17" height="16" viewBox="0 0 17 16" fill="none" xmlns="http://www.w3.org/2000/svg">
<g clip-path="url(#clip0_112_1359)">
<path d="M8.02799 14.6666C11.6947 14.6666 14.6947 11.6666 14.6947 7.99992C14.6947 4.33325 11.6947 1.33325 8.02799 1.33325C4.36133 1.33325 1.36133 4.33325 1.36133 7.99992C1.36133 11.6666 4.36133 14.6666 8.02799 14.6666Z" stroke="#073762" stroke-width="2" stroke-linecap="round" stroke-linejoin="round"/>
<path d="M6.02734 6.16585C6.02734 5.76826 6.21161 5.38696 6.5396 5.10582C6.86759 4.82469 7.31244 4.66675 7.77629 4.66675H8.27599C8.73984 4.66675 9.18469 4.82469 9.51268 5.10582C9.84067 5.38696 10.0249 5.76826 10.0249 6.16585C10.0433 6.49028 9.95582 6.8119 9.77557 7.08228C9.59532 7.35266 9.33209 7.55715 9.02554 7.66494C8.71899 7.80867 8.45576 8.08132 8.27551 8.44182C8.09526 8.80233 8.00774 8.73146 8.02614 9.16404" stroke="#073762" stroke-width="2" stroke-linecap="round" stroke-linejoin="round"/>
<path d="M8.02539 11.6624V11.6673" stroke="#073762" stroke-width="2" stroke-linecap="round" stroke-linejoin="round"/>
</g>
<defs>
<clipPath id="clip0_112_1359">
<rect width="16" height="16" fill="white" transform="translate(0.0273438)"/>
</clipPath>
</defs>
</svg>
