<svg width="18" height="18" viewBox="0 0 18 18" fill="none" xmlns="http://www.w3.org/2000/svg">
<rect y="0.166016" width="17" height="17" rx="8.5" fill="#D14343"/>
<g opacity="0.8">
<path d="M12.0204 4.51333L4.34754 12.1861C4.06526 12.4684 4.06526 12.9261 4.34754 13.2084L4.3483 13.2091C4.63058 13.4914 5.08825 13.4914 5.37053 13.2091L13.0433 5.53632C13.3256 5.25404 13.3256 4.79637 13.0433 4.51409L13.0426 4.51333C12.7603 4.23105 12.3026 4.23105 12.0204 4.51333Z" fill="white"/>
<path d="M4.34732 5.53677L12.0201 13.2096C12.3024 13.4919 12.7601 13.4919 13.0424 13.2096L13.0431 13.2088C13.3254 12.9265 13.3254 12.4689 13.0431 12.1866L5.37031 4.51378C5.08803 4.2315 4.63036 4.2315 4.34807 4.51378L4.34732 4.51454C4.06504 4.79682 4.06504 5.25449 4.34732 5.53677Z" fill="white"/>
</g>
</svg>
