<svg width="24" height="18" viewBox="0 0 24 18" fill="none" xmlns="http://www.w3.org/2000/svg">
<path d="M4.36364 0.453125H24V13.544H4.36364V0.453125ZM14.1818 3.72585C15.0498 3.72585 15.8822 4.07066 16.496 4.68441C17.1097 5.29817 17.4545 6.1306 17.4545 6.99858C17.4545 7.86656 17.1097 8.69899 16.496 9.31275C15.8822 9.9265 15.0498 10.2713 14.1818 10.2713C13.3138 10.2713 12.4814 9.9265 11.8677 9.31275C11.2539 8.69899 10.9091 7.86656 10.9091 6.99858C10.9091 6.1306 11.2539 5.29817 11.8677 4.68441C12.4814 4.07066 13.3138 3.72585 14.1818 3.72585ZM8.72727 2.63494C8.72727 3.2136 8.4974 3.76855 8.08823 4.17772C7.67906 4.58689 7.12411 4.81676 6.54545 4.81676V9.1804C7.12411 9.1804 7.67906 9.41027 8.08823 9.81944C8.4974 10.2286 8.72727 10.7836 8.72727 11.3622H19.6364C19.6364 10.7836 19.8662 10.2286 20.2754 9.81944C20.6846 9.41027 21.2395 9.1804 21.8182 9.1804V4.81676C21.2395 4.81676 20.6846 4.58689 20.2754 4.17772C19.8662 3.76855 19.6364 3.2136 19.6364 2.63494H8.72727ZM0 4.81676H2.18182V15.7259H19.6364V17.9077H0V4.81676Z" fill="#727272"/>
</svg>
