<svg width="22" height="16" viewBox="0 0 22 16" fill="none" xmlns="http://www.w3.org/2000/svg">
<path fill-rule="evenodd" clip-rule="evenodd" d="M17.1382 4.35171C16.7729 4.60709 16.6111 4.58025 16.4062 5.03657C16.2261 5.43737 16.245 5.96688 16.462 6.31624C16.8245 6.89992 18.0552 7.02081 18.183 7.49664C18.3154 7.98999 17.8489 8.20154 17.4623 8.16016C16.8995 8.09995 16.8167 7.71844 16.5599 7.62616C16.1493 7.47863 15.5356 8.32875 17.1552 8.97732C17.156 9.50187 17.1068 9.42501 17.341 9.76078C17.8378 9.83506 17.8787 9.60883 17.879 9.07742C17.9274 8.88212 18.3263 8.97596 18.7144 8.39406C18.9581 8.02866 19.0175 7.49949 18.802 7.03161C18.3985 6.1556 17.4478 6.28954 17.0211 5.7675C16.9579 5.29535 17.2566 5.13483 17.651 5.18349C18.048 5.23242 18.2095 5.5584 18.4728 5.55541C19.002 5.54936 19.0143 4.60702 17.879 4.36897C17.879 3.97823 17.8813 3.5499 17.5092 3.55473C17.1119 3.55982 17.2025 3.9821 17.1383 4.35178L17.1382 4.35171Z" fill="#727272"/>
<path d="M21.1001 1.33203H0.899414V14.6664H21.1001V1.33203Z" stroke="#727272" stroke-width="1.5" stroke-miterlimit="22.9256" stroke-linecap="round" stroke-linejoin="round"/>
<path d="M6.94005 3.29102H2.87695V5.66138H6.94005V3.29102Z" stroke="#727272" stroke-miterlimit="22.9256" stroke-linecap="round" stroke-linejoin="round"/>
<path d="M13.6092 7.60547H3.03467C2.82675 7.60547 2.6582 7.77825 2.6582 7.99139V7.99146C2.6582 8.2046 2.82675 8.37738 3.03467 8.37738H13.6092C13.8171 8.37738 13.9856 8.2046 13.9856 7.99146V7.99139C13.9856 7.77825 13.8171 7.60547 13.6092 7.60547Z" fill="#727272"/>
<path d="M13.5545 10.1699H2.97998C2.77206 10.1699 2.60352 10.3427 2.60352 10.5558V10.5559C2.60352 10.769 2.77206 10.9418 2.97998 10.9418H13.5545C13.7624 10.9418 13.9309 10.769 13.9309 10.5559V10.5558C13.9309 10.3427 13.7624 10.1699 13.5545 10.1699Z" fill="#727272"/>
<path d="M18.9917 11.4414H15.009C14.9307 11.4414 14.8672 11.6142 14.8672 11.8273V11.8274C14.8672 12.0405 14.9307 12.2133 15.009 12.2133H18.9917C19.07 12.2133 19.1335 12.0405 19.1335 11.8274V11.8273C19.1335 11.6142 19.07 11.4414 18.9917 11.4414Z" fill="#727272"/>
</svg>
