<svg width="20" height="20" viewBox="0 0 20 21" fill="none" xmlns="http://www.w3.org/2000/svg">
<g clip-path="url(#clip0_578_9061)">
<path d="M17.5 0.5H2.5C1.83696 0.5 1.20107 0.763392 0.732233 1.23223C0.263392 1.70107 0 2.33696 0 3L0 8.83333C0.00216972 9.45033 0.233873 10.0444 0.65 10.5C0.233873 10.9556 0.00216972 11.5497 0 12.1667L0 18C0 18.663 0.263392 19.2989 0.732233 19.7678C1.20107 20.2366 1.83696 20.5 2.5 20.5H17.5C18.163 20.5 18.7989 20.2366 19.2678 19.7678C19.7366 19.2989 20 18.663 20 18V12.1667C19.9978 11.5497 19.7661 10.9556 19.35 10.5C19.7661 10.0444 19.9978 9.45033 20 8.83333V3C20 2.33696 19.7366 1.70107 19.2678 1.23223C18.7989 0.763392 18.163 0.5 17.5 0.5ZM1.66667 3C1.66667 2.77899 1.75446 2.56702 1.91074 2.41074C2.06702 2.25446 2.27899 2.16667 2.5 2.16667H17.5C17.721 2.16667 17.933 2.25446 18.0893 2.41074C18.2455 2.56702 18.3333 2.77899 18.3333 3V8.83333C18.3333 9.05435 18.2455 9.26631 18.0893 9.42259C17.933 9.57887 17.721 9.66667 17.5 9.66667H2.5C2.27899 9.66667 2.06702 9.57887 1.91074 9.42259C1.75446 9.26631 1.66667 9.05435 1.66667 8.83333V3ZM18.3333 18C18.3333 18.221 18.2455 18.433 18.0893 18.5893C17.933 18.7455 17.721 18.8333 17.5 18.8333H2.5C2.27899 18.8333 2.06702 18.7455 1.91074 18.5893C1.75446 18.433 1.66667 18.221 1.66667 18V12.1667C1.66667 11.9457 1.75446 11.7337 1.91074 11.5774C2.06702 11.4211 2.27899 11.3333 2.5 11.3333H17.5C17.721 11.3333 17.933 11.4211 18.0893 11.5774C18.2455 11.7337 18.3333 11.9457 18.3333 12.1667V18Z" fill="#737787"/>
<path d="M9.16699 7.16536H10.8337C11.4967 7.16536 12.1326 6.90197 12.6014 6.43313C13.0703 5.96429 13.3336 5.3284 13.3336 4.66536C13.3336 4.44435 13.2458 4.23239 13.0896 4.07611C12.9333 3.91983 12.7213 3.83203 12.5003 3.83203C12.2793 3.83203 12.0673 3.91983 11.9111 4.07611C11.7548 4.23239 11.667 4.44435 11.667 4.66536C11.667 4.88638 11.5792 5.09834 11.4229 5.25462C11.2666 5.4109 11.0547 5.49869 10.8337 5.49869H9.16699C8.94597 5.49869 8.73401 5.4109 8.57773 5.25462C8.42145 5.09834 8.33366 4.88638 8.33366 4.66536C8.33366 4.44435 8.24586 4.23239 8.08958 4.07611C7.9333 3.91983 7.72134 3.83203 7.50032 3.83203C7.27931 3.83203 7.06735 3.91983 6.91107 4.07611C6.75479 4.23239 6.66699 4.44435 6.66699 4.66536C6.66699 5.3284 6.93038 5.96429 7.39922 6.43313C7.86806 6.90197 8.50395 7.16536 9.16699 7.16536Z" fill="#737787"/>
<path d="M12.5003 13C12.2793 13 12.0673 13.0878 11.9111 13.2441C11.7548 13.4004 11.667 13.6123 11.667 13.8333C11.667 14.0543 11.5792 14.2663 11.4229 14.4226C11.2666 14.5789 11.0547 14.6667 10.8337 14.6667H9.16699C8.94597 14.6667 8.73401 14.5789 8.57773 14.4226C8.42145 14.2663 8.33366 14.0543 8.33366 13.8333C8.33366 13.6123 8.24586 13.4004 8.08958 13.2441C7.9333 13.0878 7.72134 13 7.50032 13C7.27931 13 7.06735 13.0878 6.91107 13.2441C6.75479 13.4004 6.66699 13.6123 6.66699 13.8333C6.66699 14.4964 6.93038 15.1323 7.39922 15.6011C7.86806 16.0699 8.50395 16.3333 9.16699 16.3333H10.8337C11.4967 16.3333 12.1326 16.0699 12.6014 15.6011C13.0703 15.1323 13.3336 14.4964 13.3336 13.8333C13.3336 13.6123 13.2458 13.4004 13.0896 13.2441C12.9333 13.0878 12.7213 13 12.5003 13Z" fill="#737787"/>
</g>
<defs>
<clipPath id="clip0_578_9061">
<rect width="20" height="20" fill="white" transform="translate(0 0.5)"/>
</clipPath>
</defs>
</svg>
