<svg width="20" height="21" viewBox="0 0 20 21" fill="none" xmlns="http://www.w3.org/2000/svg">
<path d="M14.8244 19.4586H5.17435C2.89102 19.4586 1.04102 17.6003 1.04102 15.317V9.14197C1.04102 8.00864 1.74102 6.58364 2.64102 5.88364L7.13268 2.38364C8.48268 1.33364 10.641 1.28364 12.041 2.26697L17.191 5.8753C18.1827 6.56697 18.9577 8.0503 18.9577 9.25864V15.3253C18.9577 17.6003 17.1077 19.4586 14.8244 19.4586ZM7.89935 3.36697L3.40768 6.86697C2.81602 7.33364 2.29102 8.39197 2.29102 9.14197V15.317C2.29102 16.9086 3.58268 18.2086 5.17435 18.2086H14.8244C16.416 18.2086 17.7077 16.917 17.7077 15.3253V9.25864C17.7077 8.45864 17.1327 7.3503 16.4743 6.9003L11.3243 3.29197C10.3743 2.6253 8.80768 2.65864 7.89935 3.36697Z" fill="#718096"/>
<path d="M10 16.125C9.65833 16.125 9.375 15.8417 9.375 15.5V13C9.375 12.6583 9.65833 12.375 10 12.375C10.3417 12.375 10.625 12.6583 10.625 13V15.5C10.625 15.8417 10.3417 16.125 10 16.125Z" fill="#718096"/>
</svg>
