<svg width="17" height="17" viewBox="0 0 17 17" fill="none" xmlns="http://www.w3.org/2000/svg">
<g opacity="0.5">
<path d="M2.58304 6.50764L14.4489 6.43285" stroke="#000929" stroke-width="1.49792" stroke-linecap="round" stroke-linejoin="round"/>
<path d="M11.486 9.05117L11.4922 9.05113" stroke="#000929" stroke-width="1.49792" stroke-linecap="round" stroke-linejoin="round"/>
<path d="M8.53181 9.06997L8.53797 9.06993" stroke="#000929" stroke-width="1.49792" stroke-linecap="round" stroke-linejoin="round"/>
<path d="M5.5716 9.08852L5.57776 9.08848" stroke="#000929" stroke-width="1.49792" stroke-linecap="round" stroke-linejoin="round"/>
<path d="M11.5023 11.6388L11.5084 11.6388" stroke="#000929" stroke-width="1.49792" stroke-linecap="round" stroke-linejoin="round"/>
<path d="M8.54816 11.6574L8.55432 11.6573" stroke="#000929" stroke-width="1.49792" stroke-linecap="round" stroke-linejoin="round"/>
<path d="M5.58784 11.6759L5.594 11.6759" stroke="#000929" stroke-width="1.49792" stroke-linecap="round" stroke-linejoin="round"/>
<path d="M11.1738 1.52418L11.1877 3.71494" stroke="#000929" stroke-width="1.49792" stroke-linecap="round" stroke-linejoin="round"/>
<path d="M5.79591 1.55812L5.80972 3.74888" stroke="#000929" stroke-width="1.49792" stroke-linecap="round" stroke-linejoin="round"/>
<path fill-rule="evenodd" clip-rule="evenodd" d="M11.3099 2.57458L5.67299 2.61011C3.71795 2.62243 2.50369 3.71921 2.51631 5.72112L2.55428 11.7457C2.56709 13.7791 3.79524 14.8857 5.75028 14.8733L11.381 14.8379C13.3422 14.8255 14.5503 13.7225 14.5377 11.7206L14.4994 5.64559C14.4929 3.64365 13.2711 2.56222 11.3099 2.57458Z" stroke="#000929" stroke-width="1.49792" stroke-linecap="round" stroke-linejoin="round"/>
</g>
</svg>
