<svg width="20" height="20" viewBox="0 0 20 20" fill="none" xmlns="http://www.w3.org/2000/svg">
<path fill-rule="evenodd" clip-rule="evenodd" d="M12.5054 7.90234C12.3126 7.90234 12.1562 8.06214 12.1562 8.25931V15.0061C12.1562 15.2031 12.3126 15.363 12.5054 15.363C12.6983 15.363 12.8546 15.2031 12.8546 15.0061V8.25931C12.8546 8.06214 12.6983 7.90234 12.5054 7.90234Z" fill="#FF1C1C"/>
<path fill-rule="evenodd" clip-rule="evenodd" d="M8.38435 7.90234C8.19148 7.90234 8.03516 8.06214 8.03516 8.25931V15.0061C8.03516 15.2031 8.19148 15.363 8.38435 15.363C8.57723 15.363 8.73355 15.2031 8.73355 15.0061V8.25931C8.73355 8.06214 8.57723 7.90234 8.38435 7.90234Z" fill="#FF1C1C"/>
<path fill-rule="evenodd" clip-rule="evenodd" d="M5.3824 6.9168V15.7118C5.3824 16.2316 5.56887 16.7198 5.89461 17.0701C6.21884 17.4214 6.67007 17.6208 7.14231 17.6216H13.7492C14.2216 17.6208 14.6728 17.4214 14.9969 17.0701C15.3227 16.7198 15.5091 16.2316 15.5091 15.7118V6.9168C16.1567 6.74111 16.5762 6.10163 16.4896 5.42241C16.4029 4.74333 15.8369 4.23534 15.1669 4.2352H13.379V3.78899C13.3811 3.41375 13.2359 3.05343 12.9761 2.78835C12.7162 2.52341 12.3632 2.37589 11.9962 2.37895H8.89539C8.52832 2.37589 8.1753 2.52341 7.91545 2.78835C7.6556 3.05343 7.51046 3.41375 7.51251 3.78899V4.2352H5.72464C5.05462 4.23534 4.48868 4.74333 4.40192 5.42241C4.3153 6.10163 4.73489 6.74111 5.3824 6.9168ZM13.7495 16.9064H7.14256C6.54551 16.9064 6.08105 16.3821 6.08105 15.7105V6.94687H14.811V15.7105C14.811 16.3821 14.3465 16.9064 13.7495 16.9064ZM8.21066 3.78774C8.20834 3.60187 8.27981 3.42296 8.40885 3.29175C8.53776 3.16053 8.71317 3.08844 8.89514 3.09165H11.9959C12.1779 3.08844 12.3533 3.16053 12.4822 3.29175C12.6112 3.42282 12.6827 3.60187 12.6804 3.78774V4.23396H8.21066V3.78774ZM5.72531 4.9485H15.1676C15.5147 4.9485 15.7961 5.23617 15.7961 5.59105C15.7961 5.94593 15.5147 6.2336 15.1676 6.2336H5.72531C5.37816 6.2336 5.09675 5.94593 5.09675 5.59105C5.09675 5.23617 5.37816 4.9485 5.72531 4.9485Z" fill="#FF1C1C"/>
</svg>
