<svg width="20" height="20" viewBox="0 0 10 13" fill="none" xmlns="http://www.w3.org/2000/svg">
<path fill-rule="evenodd" clip-rule="evenodd" d="M6.65326 4.81641C6.49848 4.81641 6.37305 4.94464 6.37305 5.10285V10.5167C6.37305 10.6748 6.49848 10.8031 6.65326 10.8031C6.80803 10.8031 6.93346 10.6748 6.93346 10.5167V5.10285C6.93346 4.94464 6.80803 4.81641 6.65326 4.81641Z" fill="#FF1C1C"/>
<path fill-rule="evenodd" clip-rule="evenodd" d="M3.34662 4.81641C3.19184 4.81641 3.06641 4.94464 3.06641 5.10285V10.5167C3.06641 10.6748 3.19184 10.8031 3.34662 10.8031C3.50139 10.8031 3.62682 10.6748 3.62682 10.5167V5.10285C3.62682 4.94464 3.50139 4.81641 3.34662 4.81641Z" fill="#FF1C1C"/>
<path fill-rule="evenodd" clip-rule="evenodd" d="M0.936464 4.02614V11.0836C0.936464 11.5007 1.08609 11.8924 1.34747 12.1735C1.60765 12.4554 1.96973 12.6154 2.34867 12.6161H7.65031C8.02936 12.6154 8.39145 12.4554 8.65151 12.1735C8.9129 11.8924 9.06252 11.5007 9.06252 11.0836V4.02614C9.58211 3.88515 9.9188 3.37201 9.8493 2.82698C9.77968 2.28206 9.32555 1.87443 8.7879 1.87432H7.35325V1.51627C7.35489 1.21516 7.23843 0.92603 7.02991 0.713321C6.8214 0.500724 6.53813 0.382342 6.24358 0.384803H3.75541C3.46086 0.382342 3.17759 0.500724 2.96907 0.713321C2.76056 0.92603 2.6441 1.21516 2.64574 1.51627V1.87432H1.21109C0.67344 1.87443 0.219304 2.28206 0.14969 2.82698C0.080185 3.37201 0.416874 3.88515 0.936464 4.02614ZM7.65048 12.0431H2.34884C1.86975 12.0431 1.49705 11.6224 1.49705 11.0835V4.05127H8.50227V11.0835C8.50227 11.6224 8.12957 12.0431 7.65048 12.0431ZM3.20612 1.51617C3.20426 1.36702 3.26162 1.22346 3.36516 1.11817C3.4686 1.01288 3.60936 0.955028 3.75537 0.957602H6.24354C6.38956 0.955028 6.53032 1.01288 6.63375 1.11817C6.7373 1.22335 6.79466 1.36702 6.79279 1.51617V1.87423H3.20612V1.51617ZM1.21139 2.44727H8.7882C9.06677 2.44727 9.29257 2.6781 9.29257 2.96287C9.29257 3.24764 9.06677 3.47847 8.7882 3.47847H1.21139C0.932825 3.47847 0.707016 3.24764 0.707016 2.96287C0.707016 2.6781 0.932825 2.44727 1.21139 2.44727Z" fill="#FF1C1C"/>
<path fill-rule="evenodd" clip-rule="evenodd" d="M4.99896 4.81641C4.84419 4.81641 4.71875 4.94464 4.71875 5.10285V10.5167C4.71875 10.6748 4.84419 10.8031 4.99896 10.8031C5.15373 10.8031 5.27917 10.6748 5.27917 10.5167V5.10285C5.27917 4.94464 5.15373 4.81641 4.99896 4.81641Z" fill="#FF1C1C"/>
</svg>
