<svg width="21" height="21" viewBox="0 0 21 21" fill="none" xmlns="http://www.w3.org/2000/svg">
<path fill-rule="evenodd" clip-rule="evenodd" d="M10.5 2.40625C6.02995 2.40625 2.40625 6.02995 2.40625 10.5C2.40625 14.9701 6.02995 18.5938 10.5 18.5938C14.9701 18.5938 18.5938 14.9701 18.5938 10.5C18.5938 6.02995 14.9701 2.40625 10.5 2.40625ZM1.09375 10.5C1.09375 5.30507 5.30507 1.09375 10.5 1.09375C15.6949 1.09375 19.9062 5.30507 19.9062 10.5C19.9062 15.6949 15.6949 19.9062 10.5 19.9062C5.30507 19.9062 1.09375 15.6949 1.09375 10.5Z" fill="#737787"/>
<path fill-rule="evenodd" clip-rule="evenodd" d="M12.9626 8.03884L9.26905 9.27003L8.03786 12.9636L11.7314 11.7324L12.9626 8.03884ZM13.6267 6.43398C14.2081 6.24017 14.7613 6.79333 14.5675 7.37476L12.8866 12.4172C12.8126 12.6393 12.6383 12.8136 12.4163 12.8876L7.37379 14.5685C6.79235 14.7623 6.2392 14.2091 6.43301 13.6277L8.11383 8.5852C8.18786 8.36311 8.36213 8.18884 8.58422 8.11481L13.6267 6.43398Z" fill="#737787"/>
</svg>
