<svg width="15" height="15" viewBox="0 0 15 15" fill="none" xmlns="http://www.w3.org/2000/svg">
<path d="M11.3191 0.634794C10.9994 0.632691 10.686 0.746273 10.4441 0.98816L9.90562 1.54345L13.4561 5.11076L13.9946 4.55547C14.4804 4.06959 14.4846 3.28083 13.9946 2.78864L12.2109 1.00499C11.9648 0.758893 11.6388 0.636898 11.3191 0.634794ZM9.29985 2.03143L8.4585 2.83912L12.1604 6.54104L13.0186 5.75018L9.29985 2.03143ZM7.92004 3.42806L2.09793 9.1997C1.96331 9.26911 1.86656 9.3911 1.82869 9.53624L0.583502 13.7598C0.526712 13.9449 0.577192 14.1489 0.713911 14.2856C0.85063 14.4224 1.05466 14.4728 1.23975 14.416L5.46331 13.1709C5.65892 13.1414 5.82088 13.0047 5.88398 12.8175L11.622 7.12999L10.8311 6.33912L4.94167 12.2454L2.56908 12.9353L2.06427 12.4305L2.78783 9.95691L8.62677 4.13479L7.92004 3.42806ZM9.19889 4.72374L3.29264 10.6468L4.15081 10.8319L4.2686 11.6228L10.1917 5.71653L9.19889 4.72374Z" fill="#9FC5E9"/>
</svg>
