<svg width="21" height="20" viewBox="0 0 21 20" fill="none" xmlns="http://www.w3.org/2000/svg">
<path d="M7.27962 8.33333L5.61296 8.33333C5.17093 8.33333 4.747 8.50893 4.43444 8.82149C4.12188 9.13405 3.94629 9.55797 3.94629 10L3.94629 15.8333C3.94629 16.2754 4.12188 16.6993 4.43444 17.0118C4.747 17.3244 5.17093 17.5 5.61296 17.5L15.613 17.5C16.055 17.5 16.4789 17.3244 16.7915 17.0118C17.104 16.6993 17.2796 16.2754 17.2796 15.8333L17.2796 10C17.2796 9.55797 17.104 9.13405 16.7915 8.82149C16.4789 8.50893 16.055 8.33333 15.613 8.33333L13.9463 8.33333" stroke="#1A202C" stroke-width="1.5" stroke-linecap="round" stroke-linejoin="round"/>
<path d="M10.6128 14.168L10.6128 2.5013M10.6128 2.5013L8.11279 5.0013M10.6128 2.5013L13.1128 5.0013" stroke="#1A202C" stroke-width="1.5" stroke-linecap="round" stroke-linejoin="round"/>
</svg>
