<svg width="21" height="20" viewBox="0 0 21 20" fill="none" xmlns="http://www.w3.org/2000/svg">
<path d="M9.09972 13.8288H3.84912" stroke="#1A202C" stroke-width="1.5" stroke-linecap="round" stroke-linejoin="round"/>
<path d="M11.4419 5.75072H16.6925" stroke="#1A202C" stroke-width="1.5" stroke-linecap="round" stroke-linejoin="round"/>
<path fill-rule="evenodd" clip-rule="evenodd" d="M7.76328 5.70521C7.76328 4.6255 6.88148 3.75 5.79399 3.75C4.70651 3.75 3.82471 4.6255 3.82471 5.70521C3.82471 6.78492 4.70651 7.66042 5.79399 7.66042C6.88148 7.66042 7.76328 6.78492 7.76328 5.70521Z" stroke="#1A202C" stroke-width="1.5" stroke-linecap="round" stroke-linejoin="round"/>
<path fill-rule="evenodd" clip-rule="evenodd" d="M17.1583 13.7951C17.1583 12.7153 16.2772 11.8398 15.1897 11.8398C14.1015 11.8398 13.2197 12.7153 13.2197 13.7951C13.2197 14.8748 14.1015 15.7503 15.1897 15.7503C16.2772 15.7503 17.1583 14.8748 17.1583 13.7951Z" stroke="#1A202C" stroke-width="1.5" stroke-linecap="round" stroke-linejoin="round"/>
</svg>
