<svg width="19" height="20" viewBox="0 0 19 20" fill="none" xmlns="http://www.w3.org/2000/svg">
<path fill-rule="evenodd" clip-rule="evenodd" d="M9.5 1.90625C5.02995 1.90625 1.40625 5.52995 1.40625 10C1.40625 14.4701 5.02995 18.0938 9.5 18.0938C13.9701 18.0938 17.5938 14.4701 17.5938 10C17.5938 5.52995 13.9701 1.90625 9.5 1.90625ZM0.09375 10C0.09375 4.80507 4.30507 0.59375 9.5 0.59375C14.6949 0.59375 18.9062 4.80507 18.9062 10C18.9062 15.1949 14.6949 19.4062 9.5 19.4062C4.30507 19.4062 0.09375 15.1949 0.09375 10Z" fill="white"/>
<path fill-rule="evenodd" clip-rule="evenodd" d="M11.9624 7.53786L8.26881 8.76905L7.03762 12.4626L10.7312 11.2314L11.9624 7.53786ZM12.6265 5.93301C13.2079 5.7392 13.761 6.29235 13.5672 6.87379L11.8864 11.9163C11.8124 12.1383 11.6381 12.3126 11.416 12.3866L6.37354 14.0675C5.79211 14.2613 5.23895 13.7081 5.43276 13.1267L7.11359 8.08422C7.18762 7.86214 7.36189 7.68786 7.58398 7.61383L12.6265 5.93301Z" fill="white"/>
</svg>
