<svg width="24" height="24" viewBox="0 0 24 24" fill="none" xmlns="http://www.w3.org/2000/svg">
<path d="M17.8877 0C16.323 0 14.763 0.595358 13.5835 1.78607C11.3766 3.99604 11.1862 7.50129 13.1647 9.93987L16.7225 14.3411C17.0079 14.703 17.4453 14.9126 17.9019 14.9126C18.3584 14.9126 18.7962 14.703 19.0816 14.3411L22.639 9.93987C24.5985 7.50129 24.4274 4.01509 22.2206 1.78607C21.0221 0.595358 19.4525 0 17.8877 0ZM17.8829 1.13825C19.1575 1.13825 20.4132 1.61446 21.3835 2.58609C23.1718 4.37692 23.3237 7.23479 21.7257 9.21614L18.1872 13.598C18.0921 13.7123 17.959 13.7312 17.8829 13.7312C17.8068 13.7312 17.6927 13.7123 17.5786 13.598L14.0401 9.21614C12.4421 7.23479 12.5941 4.37692 14.3824 2.58609C15.3526 1.61446 16.6083 1.13825 17.8829 1.13825ZM10.5013 1.95761C4.62277 2.18623 0 7.0442 0 12.9502C0 14.4171 0.285217 15.8077 0.798875 17.0842C0.798875 17.1032 0.818197 17.1034 0.818197 17.1225C1.97868 19.9802 4.31861 22.2283 7.21031 23.3142C7.22934 23.3142 7.22919 23.3141 7.24821 23.3332C8.42772 23.7714 9.70243 24 11.0341 24C14.7819 24 18.2442 22.1138 20.2989 18.9703C20.4701 18.7036 20.3943 18.3608 20.1279 18.1893C19.8616 18.0178 19.5189 18.0941 19.3287 18.3608C19.2336 18.5133 19.1196 18.6657 19.0054 18.8182L16.5891 18.2656C16.2086 18.1894 15.7902 18.094 15.3336 17.9988C13.8116 17.6559 12.2515 17.2937 11.3574 17.5605C9.39789 18.113 8.63699 19.6755 8.00919 20.9138C7.78089 21.3901 7.55282 21.8473 7.28648 22.1711C5.2699 21.3519 3.59553 19.8848 2.49212 18.0178C3.08187 18.2083 3.59575 18.3035 4.05234 18.3035C4.62307 18.3035 5.09846 18.1511 5.4409 17.8462C6.0687 17.3128 6.03065 16.5508 6.01163 15.8268C5.9926 15.16 5.95448 14.4173 6.31594 13.4837C6.73448 12.3788 7.38138 11.826 8.00919 11.2735C8.63699 10.721 9.26472 10.1685 9.45496 9.17782C9.74033 7.67275 8.80843 5.9963 6.62063 4.1102C7.80014 3.51961 9.13177 3.15785 10.5396 3.1007C10.863 3.08165 11.0914 2.81463 11.0914 2.50981C11.0723 2.18593 10.8247 1.95761 10.5013 1.95761ZM5.59324 4.68175C7.60982 6.33922 8.56104 7.80633 8.35177 8.93037C8.23763 9.52097 7.83789 9.88294 7.26716 10.3592C6.60131 10.9308 5.78326 11.6547 5.2696 13.0264C4.83204 14.1695 4.87009 15.122 4.88911 15.8079C4.90814 16.4747 4.90844 16.7415 4.71819 16.913C4.52795 17.0845 3.843 17.3702 1.78837 16.4557C1.36983 15.3698 1.14146 14.1885 1.14146 12.9502C1.14146 9.50184 2.89178 6.45353 5.59324 4.68175ZM21.3077 14.2745C21.0447 14.2804 20.8055 14.4743 20.7555 14.7411C20.6984 15.0268 20.6414 15.3126 20.5653 15.5984C20.4892 15.9032 20.6603 16.2079 20.9647 16.3031C21.0218 16.3222 21.06 16.3221 21.1171 16.3221C21.3644 16.3221 21.5927 16.1508 21.6688 15.9031C21.764 15.5983 21.821 15.2744 21.878 14.9506C21.9351 14.6457 21.7448 14.3409 21.4214 14.2838C21.3833 14.2766 21.3452 14.2736 21.3077 14.2745ZM12.1225 18.5625C12.876 18.5636 14.0818 18.8334 15.0865 19.0656C15.5431 19.1609 15.9615 19.2752 16.342 19.3514L18.1872 19.7707C16.3609 21.733 13.7736 22.8569 11.0341 22.8569C10.14 22.8569 9.26502 22.7234 8.42795 22.5138C8.65624 22.1519 8.84633 21.7708 9.03658 21.3708C9.60731 20.2277 10.2162 19.0274 11.681 18.6083C11.7988 18.5761 11.9486 18.5623 12.1225 18.5625Z" fill="white"/>
</svg>
