<svg width="65" height="66" viewBox="0 0 65 66" fill="none" xmlns="http://www.w3.org/2000/svg">
<circle cx="31.9556" cy="31.9556" r="31.9556" transform="matrix(0.999939 -0.0123476 0.00321673 1 0.86145 1.23639)" fill="#100A55"/>
<path d="M28.9665 46.1615L36.9549 46.0629C43.6119 45.9806 46.2661 43.2848 46.2447 36.6274L46.219 28.6385C46.1976 21.9811 43.5262 19.351 36.8692 19.4332L28.8808 19.5319C22.2238 19.6141 19.5696 22.3099 19.591 28.9673L19.6167 36.9562C19.6381 43.6136 22.3095 46.2437 28.9665 46.1615Z" stroke="white" stroke-width="2.99583" stroke-linecap="round" stroke-linejoin="round"/>
<path d="M29.0568 32.8449L29.0504 30.8743C29.0422 28.3312 30.8363 27.2838 33.0372 28.5215L34.7446 29.4858L36.4519 30.45C38.6528 31.6878 38.6595 33.7649 36.4667 35.057L34.7657 36.0633L33.0647 37.0697C30.872 38.3617 29.0712 37.3453 29.0631 34.8155L29.0568 32.8449Z" stroke="white" stroke-width="2.99583" stroke-miterlimit="10" stroke-linecap="round" stroke-linejoin="round"/>
</svg>
