<svg width="65" height="66" viewBox="0 0 65 66" fill="none" xmlns="http://www.w3.org/2000/svg">
<circle cx="31.9556" cy="31.9556" r="31.4562" transform="matrix(0.999924 -0.0123474 0.00321671 0.999995 0.492432 1.47452)" fill="white" stroke="#9FC5E9" stroke-width="0.998611"/>
<circle cx="27.9611" cy="27.9611" r="27.9611" transform="matrix(0.999924 -0.0123474 0.00321671 0.999995 4.49939 5.41962)" fill="#9FC5E9"/>
<path d="M22.1931 33.1632L19.2345 33.1998L32.5055 19.7206L45.8621 32.8709L42.9035 32.9075" stroke="#073762" stroke-width="2.99583" stroke-linecap="round" stroke-linejoin="round"/>
<path d="M22.1932 33.1632L22.2265 43.5191C22.2291 44.3039 22.5432 45.0526 23.0998 45.6006C23.6565 46.1487 24.41 46.4511 25.1947 46.4414L39.9878 46.2587C40.7725 46.2491 41.524 45.928 42.0771 45.3663C42.6301 44.8046 42.9394 44.0481 42.9369 43.2634L42.9036 32.9075" stroke="#073762" stroke-width="2.99583" stroke-linecap="round" stroke-linejoin="round"/>
<path d="M28.5607 35.082L31.232 37.7121L36.5404 32.3205" stroke="#073762" stroke-width="2.99583" stroke-linecap="round" stroke-linejoin="round"/>
</svg>
