<svg width="65" height="66" viewBox="0 0 65 66" fill="none" xmlns="http://www.w3.org/2000/svg">
<circle cx="31.9556" cy="31.9556" r="30.9569" transform="matrix(0.999924 -0.0123474 0.00321671 0.999995 0.125488 1.71259)" fill="white" stroke="#9FC5E9" stroke-width="1.99722"/>
<path d="M44.1424 26.4681L44.1852 39.7828C44.1981 43.7772 42.2096 46.4649 37.5497 46.5224L26.8987 46.6539C22.2389 46.7115 20.2332 44.0732 20.2204 40.0787L20.1775 26.764C20.1647 22.7696 22.1532 20.082 26.813 20.0244L37.4641 19.8929C42.1239 19.8354 44.1295 22.4737 44.1424 26.4681Z" stroke="#073762" stroke-width="2.99583" stroke-miterlimit="10" stroke-linecap="round" stroke-linejoin="round"/>
<path d="M35.4777 23.2462L35.4862 25.9092C35.4909 27.3738 36.693 28.5573 38.1576 28.5393L40.8203 28.5064" stroke="#073762" stroke-width="2.99583" stroke-miterlimit="10" stroke-linecap="round" stroke-linejoin="round"/>
<path d="M26.8601 34.6707L32.1856 34.6049" stroke="#073762" stroke-width="2.99583" stroke-miterlimit="10" stroke-linecap="round" stroke-linejoin="round"/>
<path d="M26.8773 39.9966L37.5284 39.865" stroke="#073762" stroke-width="2.99583" stroke-miterlimit="10" stroke-linecap="round" stroke-linejoin="round"/>
</svg>
