<svg width="142" height="43" viewBox="0 0 142 43" fill="none" xmlns="http://www.w3.org/2000/svg">
<path fill-rule="evenodd" clip-rule="evenodd" d="M8.13948 14.3399C8.37575 13.9264 11.6945 10.8791 12.2612 10.4858L12.415 27.4558C17.4342 27.0907 20.0396 27.202 24.7398 27.9053L24.6605 17.6578L29.2379 20.1231L29.154 11.4933L8.06221 0.620283L8.13948 14.3399Z" fill="#1D79BE"/>
<path fill-rule="evenodd" clip-rule="evenodd" d="M12.415 27.4558L12.4417 27.5095L12.4733 35.867C19.776 34.7085 26.8063 35.8652 32.5641 40.7483L33.3563 39.9389L33.3013 31.2016C27.099 27.6213 19.4176 26.401 12.4147 27.4552L12.415 27.4558Z" fill="#F14231"/>
<path fill-rule="evenodd" clip-rule="evenodd" d="M0.390605 32.0964L8.19815 28.4186L8.13948 14.3399L0.793955 21.2618C-0.0463799 21.9755 0.33224 23.3709 0.34611 25.5717L0.390605 32.0964Z" fill="#1D79BE"/>
<path fill-rule="evenodd" clip-rule="evenodd" d="M8.13948 14.3399L8.19815 28.4186L0.390605 32.0964L0.467911 42.6106C2.92283 39.5209 8.74523 36.6423 12.4855 35.9084L12.4733 35.867L12.4417 27.5095L12.415 27.4558L12.2612 10.4858C11.6945 10.8791 8.37575 13.9264 8.13948 14.3399Z" fill="black"/>
<path fill-rule="evenodd" clip-rule="evenodd" d="M24.7398 27.9053C26.3716 28.3056 28.0168 28.7806 29.2885 29.2815L29.2973 20.3003L29.2379 20.1231L24.6605 17.6578L24.7398 27.9053Z" fill="#141026"/>
<path fill-rule="evenodd" clip-rule="evenodd" d="M22.5949 8.1229L29.154 11.4933L29.0792 6.5794L22.6244 3.25409L22.5949 8.1229Z" fill="#F14231"/>
<path fill-rule="evenodd" clip-rule="evenodd" d="M33.2971 31.8123L25.4438 28.2332L25.3254 14.1549L32.7572 20.9836C33.6065 21.6867 33.2455 23.0867 33.2594 25.2875L33.2971 31.8123Z" fill="#1D79BE"/>
<path fill-rule="evenodd" clip-rule="evenodd" d="M25.3254 14.1549L25.4438 28.2332L33.2971 31.8123L33.3527 42.3267C30.859 39.2681 25.0008 36.4628 21.2516 35.7764L21.263 35.7352L21.1891 27.3779L21.2155 27.3236L21.1554 10.353C21.727 10.7392 25.0842 13.7443 25.3254 14.1549Z" fill="black"/>
<path fill-rule="evenodd" clip-rule="evenodd" d="M13.3918 21.3865L16.7811 21.3661L16.7312 14.713L13.3365 13.0455L13.3918 21.3865Z" fill="#F5F5F5"/>
<path fill-rule="evenodd" clip-rule="evenodd" d="M18.1856 21.3696L20.4593 21.3432L20.4307 16.701L18.1485 15.6285L18.1856 21.3696Z" fill="#F5F5F5"/>
<path d="M38.0865 30.7826L38.0702 28.2009L39.558 28.1915L39.4817 16.0878L37.9939 16.0971L37.9777 13.5155L49.5347 13.4426L49.5692 18.9302L46.5223 18.9494L46.504 16.0435L43.5523 16.0621L43.5811 20.637L45.8544 20.6227L45.8707 23.2044L43.5974 23.2187L43.6285 28.1659L46.5803 28.1473L46.561 25.0973L49.608 25.0781L49.6435 30.7097L38.0865 30.7826Z" fill="#1D79BE"/>
<path d="M51.3759 26.0757L51.3576 23.1698L57.6419 23.1302L57.6602 26.036L51.3759 26.0757Z" fill="#1D79BE"/>
<path d="M59.143 30.6499L59.1267 28.0682L60.317 28.0607L60.2407 15.9569L59.0505 15.9644L59.0342 13.3828L64.5449 13.348C66.5603 13.3353 68.1305 13.8138 69.2555 14.7833C70.3884 15.7529 70.9603 17.1062 70.9712 18.8433C70.9939 22.4376 68.7914 24.2487 64.3638 24.2766L64.3875 28.035L65.8277 28.026L65.8439 30.6076L59.143 30.6499ZM64.3112 15.9313L64.3472 21.6349C65.2517 21.6292 65.8611 21.3732 66.1753 20.8669C66.4975 20.3605 66.6557 19.655 66.65 18.7505C66.6381 16.8612 65.8585 15.9215 64.3112 15.9313Z" fill="#F14231"/>
<path d="M72.4258 30.5661L72.4095 27.9845L73.6831 27.9765L73.6397 21.096L72.3662 21.1041L72.3498 18.5104L77.1821 18.4799L77.1973 20.8935L77.2449 20.8932C77.3995 20.2358 77.5985 19.7142 77.8421 19.3284C78.0856 18.9346 78.3576 18.6607 78.6582 18.5067C78.9667 18.3526 79.3669 18.274 79.8589 18.2709L79.8843 22.3055C78.099 22.3168 77.2138 23.5112 77.2288 25.8887L77.2418 27.954L78.6582 27.9451L78.6744 30.5268L72.4258 30.5661Z" fill="#F14231"/>
<path d="M86.056 30.8285C84.5801 30.8378 83.3663 30.253 82.4146 29.0742C81.4629 27.8874 80.9811 26.3574 80.9693 24.4842C80.9575 22.619 81.4161 21.0911 82.3449 19.9004C83.2737 18.7017 84.4839 18.0977 85.9757 18.0883C87.4357 18.0791 88.6376 18.6679 89.5814 19.8548C90.5331 21.0336 91.0148 22.5556 91.0266 24.4208C91.0384 26.294 90.5759 27.83 89.6392 29.0287C88.7104 30.2193 87.516 30.8193 86.056 30.8285ZM85.993 20.8381C85.5169 20.8411 85.1736 21.1354 84.963 21.7211C84.7604 22.3068 84.663 23.2201 84.6708 24.4609C84.6787 25.7017 84.7876 26.6136 84.9976 27.1967C85.2155 27.7797 85.5625 28.0697 86.0386 28.0667C86.9114 28.0612 87.3402 26.8537 87.325 24.4441C87.3098 22.0346 86.8658 20.8326 85.993 20.8381Z" fill="#F14231"/>
<path d="M92.361 35.9523L92.3447 33.3706L93.5111 33.3633L93.433 20.9713L92.2666 20.9786L92.2502 18.385L96.9754 18.3552L96.9841 19.7361L97.0317 19.7358C97.3901 18.6848 98.1128 18.1559 99.1999 18.149C100.311 18.142 101.167 18.665 101.769 19.7179C102.371 20.7709 102.678 22.298 102.69 24.2993C102.703 26.3246 102.415 27.8794 101.827 28.9639C101.239 30.0403 100.397 30.582 99.3021 30.5889C98.4689 30.5941 97.7167 30.2226 97.0455 29.4743L97.0698 33.3408L98.7004 33.3305L98.7167 35.9122L92.361 35.9523ZM97.0222 25.788C97.0273 26.5885 97.1063 27.1604 97.2592 27.5037C97.4121 27.8469 97.6711 28.0174 98.0361 28.0151C98.4884 28.0123 98.7604 27.7384 98.8522 27.1934C98.9519 26.6404 98.9973 25.6755 98.9887 24.2986C98.981 23.0738 98.9042 22.2257 98.7584 21.7543C98.6125 21.2749 98.3492 21.0364 97.9683 21.0388C97.3177 21.0429 96.9968 21.7574 97.0058 23.1823L97.0222 25.788Z" fill="#F14231"/>
<path d="M110.18 26.5696L113.138 27.6557C112.779 28.6187 112.225 29.3627 111.474 29.8878C110.724 30.4128 109.852 30.6785 108.86 30.6848C105.861 30.7037 104.348 28.5397 104.32 24.1929C104.307 22.1436 104.698 20.5921 105.493 19.5384C106.296 18.4846 107.427 17.9531 108.887 17.9439C110.157 17.9359 111.203 18.4216 112.027 19.4011C112.85 20.3806 113.268 21.8109 113.28 23.6921L113.287 24.8209L107.848 24.8552C107.856 26.192 107.937 27.0681 108.09 27.4834C108.252 27.8987 108.547 28.105 108.975 28.1023C109.34 28.1 109.613 27.9742 109.794 27.7249C109.975 27.4675 110.103 27.0825 110.18 26.5696ZM107.836 23.066L109.717 23.0542L109.713 22.4658C109.705 21.0889 109.391 20.4024 108.772 20.4063C108.407 20.4086 108.158 20.6223 108.026 21.0474C107.894 21.4645 107.831 22.1374 107.836 23.066Z" fill="#F14231"/>
<path d="M114.607 30.3003L114.591 27.7186L115.864 27.7106L115.821 20.8302L114.547 20.8382L114.531 18.2445L119.363 18.2141L119.379 20.6276L119.426 20.6273C119.581 19.9699 119.78 19.4483 120.023 19.0625C120.267 18.6687 120.539 18.3948 120.839 18.2408C121.148 18.0868 121.548 18.0082 122.04 18.0051L122.066 22.0397C120.28 22.0509 119.395 23.2453 119.41 25.6229L119.423 27.6882L120.839 27.6793L120.856 30.2609L114.607 30.3003Z" fill="#F14231"/>
<path d="M129.706 27.4793L129.722 30.157C128.978 30.4259 128.257 30.5625 127.559 30.5669C125.67 30.5788 124.719 29.436 124.704 27.1385L124.664 20.7745L123.593 20.7812L123.577 18.1875L124.648 18.1808L124.638 16.6678L128.179 13.8356L128.207 18.1584L129.647 18.1493L129.663 20.7429L128.223 20.752L128.257 26.1315C128.26 26.6678 128.33 27.0476 128.466 27.2709C128.603 27.4942 128.837 27.6048 129.171 27.6027C129.337 27.6017 129.516 27.5605 129.706 27.4793Z" fill="#F14231"/>
<path d="M132.971 35.6483L132.955 33.0666L134.633 33.0561L135.131 30.8314L131.556 20.731L130.711 20.7363L130.694 18.1427L135.562 18.112L135.579 20.7057L134.781 20.7107L136.417 25.3956L136.465 25.3953L137.554 20.6932L136.781 20.6981L136.764 18.1044L141.025 18.0776L141.042 20.6712L140.089 20.6772L136.506 35.626L132.971 35.6483Z" fill="#F14231"/>
</svg>
