<svg width="18" height="20" viewBox="0 0 18 20" fill="none" xmlns="http://www.w3.org/2000/svg">
<g clip-path="url(#clip0_578_10678)">
<path d="M7.1625 19.7918H0.9375C0.525 19.7918 0.1875 19.4168 0.1875 18.9585V7.45847C0.1875 7.25014 0.2625 7.00014 0.4125 6.87514L6.6375 0.416804C6.8625 0.20847 7.1625 0.125137 7.425 0.250137C7.725 0.416804 7.875 0.70847 7.875 1.0418V19.0001C7.875 19.4168 7.5375 19.7918 7.1625 19.7918ZM1.65 18.1668H6.4125V2.9168L1.65 7.83347V18.1668Z" fill="white"/>
<path d="M17.0625 19.7918H7.125C6.7125 19.7918 6.375 19.4168 6.375 18.9585V9.16681C6.375 8.70848 6.7125 8.33348 7.125 8.33348H17.0625C17.475 8.33348 17.8125 8.70848 17.8125 9.16681V19.0001C17.8125 19.4168 17.475 19.7918 17.0625 19.7918ZM7.875 18.1668H16.35V9.95848H7.875V18.1668Z" fill="white"/>
<path d="M13.5375 19.7918H10.65C10.2375 19.7918 9.89999 19.4168 9.89999 18.9585V13.8751C9.89999 13.4168 10.2375 13.0418 10.65 13.0418H13.5375C13.95 13.0418 14.2875 13.4168 14.2875 13.8751V18.9585C14.2875 19.4168 13.95 19.7918 13.5375 19.7918ZM11.4 18.1668H12.825V14.7085H11.4V18.1668Z" fill="white"/>
</g>
<defs>
<clipPath id="clip0_578_10678">
<rect width="18" height="20" fill="white"/>
</clipPath>
</defs>
</svg>
