<svg width="20" height="20" viewBox="0 0 20 20" fill="none" xmlns="http://www.w3.org/2000/svg">
<path d="M14.825 18.9586H5.17496C2.89163 18.9586 1.04163 17.1003 1.04163 14.817V8.64197C1.04163 7.50864 1.74163 6.08364 2.64163 5.38364L7.13329 1.88364C8.48329 0.833637 10.6416 0.783637 12.0416 1.76697L17.1916 5.3753C18.1833 6.06697 18.9583 7.5503 18.9583 8.75864V14.8253C18.9583 17.1003 17.1083 18.9586 14.825 18.9586ZM7.89996 2.86697L3.40829 6.36697C2.81663 6.83364 2.29163 7.89197 2.29163 8.64197V14.817C2.29163 16.4086 3.58329 17.7086 5.17496 17.7086H14.825C16.4166 17.7086 17.7083 16.417 17.7083 14.8253V8.75864C17.7083 7.95864 17.1333 6.8503 16.475 6.4003L11.325 2.79197C10.375 2.1253 8.80829 2.15864 7.89996 2.86697Z" fill="#FEFEFE"/>
<path d="M10 15.625C9.65833 15.625 9.375 15.3417 9.375 15V12.5C9.375 12.1583 9.65833 11.875 10 11.875C10.3417 11.875 10.625 12.1583 10.625 12.5V15C10.625 15.3417 10.3417 15.625 10 15.625Z" fill="#FEFEFE"/>
</svg>
