<svg viewBox="0 0 362 258" fill="none" xmlns="http://www.w3.org/2000/svg">
<path d="M314.851 401.283L501.981 291.664L189.367 113.795L2.23574 223.413L314.851 401.283Z" fill="#073762"/>
<path d="M494.955 291.71L189.395 117.854L9.2649 223.367L314.827 397.227L494.955 291.71Z" fill="#A9A2F6"/>
<path d="M256.194 362.32L312.178 329.525L370.793 362.875L314.808 395.67L256.194 362.32ZM190.933 260.541L242.942 290.133L186.959 322.926L134.948 293.334L190.933 260.541ZM364.373 219L310.031 250.832L258.022 221.24L312.364 189.408L364.373 219ZM379.267 290.227L433.608 258.393L492.222 291.743L437.879 323.576L379.267 290.227ZM375.158 292.633L433.772 325.982L374.9 360.469L316.287 327.119L375.158 292.633ZM314.169 253.187L368.51 221.354L429.469 256.039L375.128 287.871L314.169 253.187ZM247.051 287.726L195.041 258.134L253.914 223.647L305.923 253.239L247.051 287.726ZM308.041 327.171L252.055 359.966L191.097 325.282L247.081 292.486L308.041 327.171ZM251.189 290.081L310.061 255.594L371.02 290.279L312.148 324.764L251.189 290.081ZM368.505 216.605L368.493 216.585L368.481 216.593L312.334 184.645L126.701 293.386L314.838 400.432L500.471 291.691L368.505 216.605Z" fill="#9FC5E9"/>
<path d="M53.9503 162.97L53.9738 166.695C54.0974 167.725 54.878 168.797 56.3588 169.631C58.3812 170.789 61.1247 171.217 63.4418 170.851C64.4238 170.705 65.3359 170.418 66.0829 169.968L107.956 145.434C109.053 144.818 109.563 143.972 109.605 143.104L109.605 139.473L106.935 139.702C104.068 138.197 99.921 138.082 97.5164 139.503L62.0386 160.272L56.1813 163.706L56.0595 162.957L53.9503 162.97Z" fill="#C7784C"/>
<path d="M53.9503 162.97L53.9738 166.695C54.0974 167.725 54.878 168.797 56.3588 169.631C58.3812 170.789 61.1247 171.217 63.4418 170.851L63.3751 160.264L62.0386 160.272L56.1813 163.706L56.0595 162.957L53.9503 162.97Z" fill="#DFCFB5"/>
<path d="M66.0603 166.462L107.943 141.928C110.425 140.474 110.096 137.964 107.209 136.322L107.209 136.321C104.322 134.678 99.9703 134.526 97.4882 135.98L55.6058 160.514C53.1237 161.968 53.4526 164.478 56.3394 166.12C59.2263 167.763 63.5782 167.916 66.0603 166.462Z" fill="white"/>
<path d="M255.303 156.106L255.289 156.083L255.275 156.09L190.01 118.955L10.9528 223.565L237.649 352.5L416.706 247.891L255.303 156.106Z" fill="#9FC5E9"/>
<path d="M416.495 214.521L367.246 186.5L367.042 154.01L372.258 155.862L367.031 152.908L367.011 149.662L332.09 132.831L331.951 133.077L262.838 94.0096L259.681 92.889L259.666 90.6255L221.038 31.0417L206.926 39.3137L175.576 47.8925L50.078 121.456L53.4796 120.525L53.3803 120.584L53.5224 143.134L10.6039 168.275L10.2197 107.318L189.286 2.70197L415.973 131.63L416.495 214.521Z" fill="url(#paint0_linear_699_1647)"/>
<path d="M416.673 242.705L367.425 214.684L367.244 186.078L416.493 214.1L416.673 242.705ZM10.9171 217.904L10.6017 167.853L53.5203 142.713L53.7144 173.513L53.8385 193.211L10.9171 217.904Z" fill="url(#paint1_linear_699_1647)"/>
<path d="M132.127 165.39L53.3804 120.585L178.877 47.0212L257.624 91.8271L132.127 165.39Z" fill="#0B5394"/>
<path d="M132.719 259.319L132.127 165.39L257.624 91.8274L258.216 185.757L132.719 259.319Z" fill="#073762"/>
<path d="M167.469 234.597L140.078 250.643L139.685 188.224L167.076 172.179L167.469 234.597Z" fill="#9FC5E9"/>
<path d="M53.9724 214.514L53.3804 120.585L132.127 165.39L132.719 259.319L53.9724 214.514Z" fill="#0B5394"/>
<path d="M64.1524 142.878L64.533 203.27L75.0754 209.256L74.6947 148.863L64.1524 142.878Z" fill="#9FC5E9"/>
<path d="M78.9 151.264L79.2806 211.656L89.8218 217.641L89.4412 157.248L78.9 151.264Z" fill="#9FC5E9"/>
<path d="M93.6474 159.649L94.028 220.042L104.57 226.026L104.19 165.635L93.6474 159.649Z" fill="#9FC5E9"/>
<path d="M108.395 168.034L108.776 228.426L119.317 234.412L118.936 174.02L108.395 168.034Z" fill="#9FC5E9"/>
<path d="M282.627 203.099L173.206 141.248L257.619 91.8222L367.04 153.674L282.627 203.099Z" fill="#073762"/>
<path d="M283.219 297.105L282.627 203.1L367.04 153.676L367.632 247.679L283.219 297.105Z" fill="#073762"/>
<path d="M173.799 235.253L173.206 141.249L282.627 203.1L283.219 297.105L173.799 235.253Z" fill="#0B5394"/>
<path d="M275.634 286.202L181.297 232.528L180.906 170.397L275.243 224.072L275.634 286.202Z" fill="#9FC5E9"/>
<path d="M153.151 164.852L148.829 160.014L168.286 148.609L173.271 151.427L173.284 153.534L153.151 164.852Z" fill="#073762"/>
<path d="M173.284 153.534L173.271 151.427L173.279 151.432L173.294 153.528L173.284 153.534Z" fill="#013BA1"/>
<path d="M50.078 121.457L95.5677 109.009L221.065 35.4448L175.576 47.8934L50.078 121.457Z" fill="#B955E9"/>
<path d="M134.197 168.591L95.5674 109.008L221.065 35.444L259.694 95.0278L134.197 168.591Z" fill="#3F461D"/>
<path d="M259.667 90.6256L259.695 95.0278L134.198 168.591L134.17 164.188L259.667 90.6256Z" fill="#073762"/>
<path d="M107.017 141.414L92.5734 121.213L65.4135 127.432L53.3804 120.585L55.5962 119.947L95.5678 109.009L115.024 139.018L107.017 141.414Z" fill="#073762"/>
<path d="M53.4441 130.171L53.3804 120.584L65.4135 127.431L53.4441 130.171Z" fill="#073762"/>
<path d="M55.5961 119.947L95.3894 108.498L95.5662 108.772L95.5677 109.009L55.5961 119.947Z" fill="#073CAE"/>
<path d="M50.0502 117.054L95.5399 104.607L221.038 31.043L175.548 43.4904L50.0502 117.054Z" fill="#3D85C5"/>
<path d="M134.169 164.189L95.5397 104.606L221.037 31.0427L259.666 90.6264L134.169 164.189Z" fill="#0B5394"/>
<path d="M159.597 131.343L137.96 123.764L137.873 109.589L155.87 116.104L164.06 125.239L159.597 131.343Z" fill="#073762"/>
<path d="M137.864 108.492L130.03 104.035L137.759 99.5068L145.593 103.965L137.864 108.492Z" fill="#0B5394"/>
<path d="M137.866 108.45L129.451 103.66L137.752 98.7973L146.168 103.586L137.866 108.45Z" fill="#3D85C5"/>
<path d="M137.875 109.905L146.178 105.041L146.169 103.585L137.866 108.449L137.875 109.905Z" fill="#073762"/>
<path d="M129.46 105.117L137.875 109.905L137.866 108.449L129.451 103.66L129.46 105.117Z" fill="#0B5394"/>
<path d="M143.313 103.969L137.846 107.179L137.828 107.161L132.32 104.021L137.77 100.83L137.789 100.848L143.313 103.969Z" fill="#073762"/>
<path d="M143.312 103.969L137.846 107.179L137.828 107.16L137.788 100.848L143.312 103.969Z" fill="#0B5394"/>
<path d="M137.96 123.763L145.689 119.236L145.593 103.964L137.864 108.491L137.96 123.763Z" fill="#073762"/>
<path d="M130.08 111.687L137.96 123.763L137.864 108.491L130.032 104.034L130.08 111.687Z" fill="#0B5394"/>
<path d="M137.817 100.436L136.711 99.8055L137.802 99.1671L138.908 99.796L137.817 100.436Z" fill="#0B5394"/>
<path d="M137.866 108.078L138.956 107.44L138.908 99.7959L137.818 100.435L137.866 108.078Z" fill="#073762"/>
<path d="M136.759 107.45L137.866 108.079L137.817 100.435L136.711 99.8053L136.759 107.45Z" fill="#0B5394"/>
<path d="M137.818 100.436L137.072 100.011L137.8 99.5873L138.552 100.005L137.818 100.436Z" fill="#096EA8"/>
<path d="M137.84 102.781L137.832 102.777L137.818 100.436L138.552 100.006L138.907 100.203L138.92 102.151L137.84 102.781Z" fill="#093B7D"/>
<path d="M137.832 102.776L136.73 102.144L136.718 100.216L137.072 100.012L137.817 100.436L137.832 102.776Z" fill="#096EA8"/>
<path d="M144.455 96.5431L143.349 95.9141L144.439 95.2746L145.547 95.9035L144.455 96.5431Z" fill="#0B5394"/>
<path d="M144.503 104.186L145.594 103.548L145.546 95.9034L144.454 96.5429L144.503 104.186Z" fill="#073762"/>
<path d="M143.397 103.557L144.503 104.186L144.455 96.543L143.349 95.914L143.397 103.557Z" fill="#0B5394"/>
<path d="M144.455 96.543L143.704 96.1165L144.181 95.8322L144.928 96.2653L144.455 96.543Z" fill="#096EA8"/>
<path d="M144.469 98.8937L144.454 96.5437L144.928 96.266L145.551 96.6266L145.561 98.2541L144.469 98.8937Z" fill="#093B7D"/>
<path d="M144.466 98.8951L143.374 98.3963L143.361 96.32L143.704 96.1164L144.455 96.5429L144.47 98.8929L144.466 98.8951Z" fill="#096EA8"/>
<path d="M131.087 96.6079L129.98 95.9789L131.071 95.3394L132.177 95.9695L131.087 96.6079Z" fill="#0B5394"/>
<path d="M131.135 104.252L132.226 103.613L132.178 95.9695L131.087 96.608L131.135 104.252Z" fill="#073762"/>
<path d="M130.028 103.622L131.135 104.252L131.087 96.608L129.98 95.979L130.028 103.622Z" fill="#0B5394"/>
<path d="M131.087 96.6079L130.595 96.3286L131.331 95.8927L131.819 96.1796L131.087 96.6079Z" fill="#096EA8"/>
<path d="M131.102 98.9556L131.087 96.6078L131.819 96.1796L132.177 96.3908L132.189 98.339L131.102 98.9556Z" fill="#093B7D"/>
<path d="M131.099 98.9566L130.001 98.3309L129.991 96.6847L130.595 96.3284L131.087 96.6077L131.102 98.9555L131.099 98.9566Z" fill="#096EA8"/>
<path d="M137.819 100.424L128.563 95.1577L137.694 89.8089L146.95 95.0746L137.819 100.424Z" fill="white"/>
<path d="M137.829 102.027L146.96 96.6768L146.95 95.0755L137.819 100.425L137.829 102.027Z" fill="#0B5394"/>
<path d="M128.573 96.7598L137.829 102.027L137.819 100.425L128.563 95.1585L128.573 96.7598Z" fill="#3D85C5"/>
<path d="M277.645 210.427L168.224 148.575L202.129 116.618L311.549 178.47L277.645 210.427Z" fill="#B955E9"/>
<path d="M262.837 94.0103L222.723 79.7721L332.145 141.624L372.257 155.862L262.837 94.0103Z" fill="#DDB79B"/>
<path d="M332.145 141.624L311.549 178.47L202.128 116.618L222.724 79.7721L332.145 141.624Z" fill="#433E44"/>
<path d="M282.707 215.364L282.643 205.716L282.704 215.273L282.707 215.269L282.707 215.364Z" fill="#02288E"/>
<path d="M282.707 215.364L173.294 153.529L173.28 151.434L277.644 210.427L282.643 205.716L282.704 215.361" fill="#073762"/>
<path d="M173.233 143.854L173.217 141.3L173.391 141.198L175.054 142.138L173.233 143.854Z" fill="#02288E"/>
<path d="M173.217 141.3L173.215 141.098L173.391 141.198L173.217 141.3Z" fill="#0852BE"/>
<path d="M277.644 210.427L173.28 151.433L173.233 143.854L175.054 142.138L282.629 202.934L282.643 205.716L277.644 210.427Z" fill="#073CAE"/>
<path d="M289.999 198.784L311.549 178.47L332.146 141.624L330.283 140.571L332.146 141.624L366.683 153.884L356.473 159.862L332.206 151.259L313.252 185.167L289.999 198.784Z" fill="#073762"/>
<path d="M282.707 215.269L282.646 205.713L289.999 198.784L313.251 185.168L311.609 188.106L282.707 215.269ZM367.099 163.63L356.472 159.862L366.683 153.884L367.038 154.01L367.099 163.63Z" fill="#073762"/>
<path d="M282.647 205.713L282.629 202.934L282.588 196.845L305.673 175.148L311.549 178.47L289.999 198.784L282.647 205.713Z" fill="#033093"/>
<path d="M367.031 152.908L331.951 133.077L332.089 132.831L367.011 149.662L367.031 152.908Z" fill="url(#paint2_linear_699_1647)"/>
<path d="M367.038 154.011L366.683 153.885L332.145 141.626L330.282 140.572L332.118 137.289L330.203 136.207L331.951 133.079L367.031 152.91L367.038 154.011Z" fill="#073962"/>
<path d="M311.549 178.47L305.673 175.148L308.544 172.45L311.522 174.133L330.283 140.571L332.146 141.624L311.549 178.47Z" fill="#02132B"/>
<path d="M282.704 215.273L282.643 205.717L282.647 205.714L282.707 215.27L282.704 215.273Z" fill="#000D5A"/>
<path d="M282.643 205.718L282.626 202.933L282.629 202.935L282.647 205.714L282.643 205.718Z" fill="#00136E"/>
<path d="M277.617 206.091L168.197 144.238L202.101 112.282L311.522 174.135L277.617 206.091Z" fill="#0B5394"/>
<path d="M262.81 89.6721L222.696 75.435L332.117 137.287L372.23 151.524L262.81 89.6721Z" fill="#0B5394"/>
<path d="M332.118 137.288L311.522 174.133L202.101 112.282L222.697 75.4361L332.118 137.288Z" fill="#3D85C5"/>
<path d="M95.54 104.606L95.5677 109.009L50.078 121.457L50.0503 117.054L95.54 104.606Z" fill="#0B5394"/>
<path d="M95.5397 104.606L95.5674 109.008L134.197 168.591L134.169 164.188L95.5397 104.606Z" fill="#0B5394"/>
<path d="M372.258 155.862L372.231 151.525L332.118 137.288L311.522 174.134L277.617 206.09L277.644 210.427L311.549 178.47L332.145 141.624L372.258 155.862Z" fill="#073762"/>
<path d="M277.645 210.427L277.617 206.09L168.197 144.237L168.224 148.575L277.645 210.427Z" fill="#0B5394"/>
<path d="M232.671 124.385L232.529 101.952L226.352 98.4343L224.996 86.4015L232.431 86.3546L255.384 98.9453L255.016 102.244L249.206 111.829L232.671 124.385Z" fill="#073762"/>
<path d="M240.01 98.4774L240.09 111.199L232.671 124.385L232.529 101.952L240.01 98.4774Z" fill="#073762"/>
<path d="M232.671 124.385L217.745 115.886L217.604 93.4533L232.529 101.952L232.671 124.385Z" fill="#0B5394"/>
<path d="M230.444 101.458L213.663 91.9019L225.266 85.3161L242.048 94.8721L230.444 101.458Z" fill="#3D85C5"/>
<path d="M230.439 100.714L213.658 91.1572L225.261 84.5713L242.043 94.1274L230.439 100.714Z" fill="white"/>
<path d="M231.574 103.251L240.011 98.4771L242.048 94.8729L230.444 101.459L231.574 103.251Z" fill="#073762"/>
<path d="M213.663 91.9028L214.793 93.6941L231.574 103.251L230.444 101.459L213.663 91.9028Z" fill="#0B5394"/>
<path d="M230.444 101.458L230.44 100.714L242.043 94.1268L242.048 94.8722L230.444 101.458Z" fill="#0B5394"/>
<path d="M230.444 101.458L230.439 100.714L213.659 91.1566L213.663 91.9019L230.444 101.458Z" fill="#3D85C5"/>
<path d="M219.065 115.504L218.952 97.7044L231.227 104.684L231.339 122.483L219.065 115.504Z" fill="#0B5394"/>
<path d="M220.401 100.183L220.492 114.668L229.89 120.004L229.799 105.519L220.401 100.183Z" fill="white"/>
<path d="M222.02 101.105L222.101 113.972L229.88 118.386L229.89 120.004L220.492 114.67L220.401 100.183L222.02 101.105Z" fill="#073762"/>
<path d="M222.101 113.972L220.492 114.67L229.89 120.004L229.88 118.386L222.101 113.972Z" fill="#3D85C5"/>
<path d="M223.299 114.652L220.492 114.67L222.101 113.973L222.02 101.105L223.25 101.801L223.299 114.652Z" fill="#0C59BE"/>
<path d="M264.197 142.173L258.749 123.954L256.522 104.189L263.957 104.142L286.91 116.733L286.542 120.032L280.731 129.617L264.197 142.173Z" fill="#073762"/>
<path d="M271.535 116.264L271.615 128.987L264.197 142.173L264.056 119.74L271.535 116.264Z" fill="#073762"/>
<path d="M264.197 142.173L249.271 133.673L249.129 111.241L264.056 119.74L264.197 142.173Z" fill="#0B5394"/>
<path d="M261.97 119.248L245.188 109.692L256.792 103.106L273.573 112.663L261.97 119.248Z" fill="#3D85C5"/>
<path d="M261.966 118.501L245.184 108.945L256.787 102.359L273.568 111.915L261.966 118.501Z" fill="white"/>
<path d="M263.099 121.039L271.536 116.264L273.573 112.662L261.97 119.247L263.099 121.039Z" fill="#073762"/>
<path d="M245.188 109.691L246.317 111.482L263.099 121.039L261.97 119.247L245.188 109.691Z" fill="#0B5394"/>
<path d="M261.97 119.248L261.966 118.502L273.568 111.916L273.573 112.663L261.97 119.248Z" fill="#0B5394"/>
<path d="M261.97 119.248L261.966 118.502L245.184 108.946L245.188 109.692L261.97 119.248Z" fill="#3D85C5"/>
<path d="M250.589 133.293L250.477 115.493L262.752 122.473L262.865 140.272L250.589 133.293Z" fill="#0B5394"/>
<path d="M251.926 117.972L252.018 132.457L261.415 137.793L261.324 123.308L251.926 117.972Z" fill="white"/>
<path d="M253.545 118.894L253.627 131.762L261.405 136.174L261.415 137.793L252.018 132.458L251.926 117.972L253.545 118.894Z" fill="#073762"/>
<path d="M253.627 131.762L252.018 132.458L261.415 137.793L261.405 136.174L253.627 131.762Z" fill="#3D85C5"/>
<path d="M252.017 132.458L254.825 132.44L254.776 119.589L253.545 118.893L253.626 131.761L252.017 132.458Z" fill="#073762"/>
<path d="M295.723 159.961L290.275 141.743L288.047 121.978L295.483 121.931L318.435 134.521L318.067 137.821L312.255 147.405L295.723 159.961Z" fill="#073762"/>
<path d="M303.06 134.054L303.14 146.776L295.722 159.961L295.581 137.529L303.06 134.054Z" fill="#073762"/>
<path d="M295.723 159.961L280.797 151.462L280.655 129.03L295.582 137.529L295.723 159.961Z" fill="#0B5394"/>
<path d="M293.494 137.036L276.714 127.48L288.317 120.894L305.098 130.451L293.494 137.036Z" fill="#3D85C5"/>
<path d="M293.49 136.291L276.709 126.735L288.312 120.149L305.093 129.706L293.49 136.291Z" fill="white"/>
<path d="M294.624 138.828L303.06 134.054L305.098 130.451L293.494 137.036L294.624 138.828Z" fill="#073762"/>
<path d="M276.714 127.48L277.843 129.271L294.624 138.828L293.494 137.036L276.714 127.48Z" fill="#0B5394"/>
<path d="M293.494 137.036L293.489 136.29L305.093 129.706L305.098 130.451L293.494 137.036Z" fill="#0B5394"/>
<path d="M293.494 137.036L293.49 136.29L276.709 126.734L276.714 127.48L293.494 137.036Z" fill="#3D85C5"/>
<path d="M282.114 151.082L282.002 133.281L294.278 140.261L294.39 158.06L282.114 151.082Z" fill="#0B5394"/>
<path d="M283.451 135.762L283.543 150.246L292.94 155.582L292.849 141.097L283.451 135.762Z" fill="white"/>
<path d="M285.071 136.682L285.152 149.55L292.929 153.963L292.939 155.582L283.543 150.247L283.451 135.761L285.071 136.682Z" fill="#073762"/>
<path d="M285.152 149.55L283.543 150.247L292.939 155.582L292.929 153.963L285.152 149.55Z" fill="#3D85C5"/>
<path d="M283.543 150.246L286.35 150.229L286.3 137.378L285.071 136.682L285.152 149.55L283.543 150.246Z" fill="#073762"/>
<defs>
<linearGradient id="paint0_linear_699_1647" x1="212.864" y1="82.5371" x2="213.554" y2="192.004" gradientUnits="userSpaceOnUse">
<stop stop-color="#F7F7FD"/>
<stop offset="1" stop-color="#E8E6F9"/>
</linearGradient>
<linearGradient id="paint1_linear_699_1647" x1="212.864" y1="82.539" x2="213.554" y2="192.006" gradientUnits="userSpaceOnUse">
<stop stop-color="#FFFCF7"/>
<stop offset="1" stop-color="#E8E6F9"/>
</linearGradient>
<linearGradient id="paint2_linear_699_1647" x1="212.863" y1="82.5374" x2="213.553" y2="192.004" gradientUnits="userSpaceOnUse">
<stop stop-color="#0850A1"/>
<stop offset="1" stop-color="#074CA1"/>
</linearGradient>
</defs>
</svg>
