<svg width="66" height="65" viewBox="0 0 66 65" fill="none" xmlns="http://www.w3.org/2000/svg">
<circle cx="32.863" cy="32.321" r="31.4562" transform="rotate(-0.361101 32.863 32.321)" fill="white" stroke="#9FC5E9" stroke-width="0.998611"/>
<circle cx="32.863" cy="32.321" r="27.9611" transform="rotate(-0.361101 32.863 32.321)" fill="#9FC5E9"/>
<path fill-rule="evenodd" clip-rule="evenodd" d="M19.5484 32.4049L22.5072 32.3862L43.2187 32.2557L46.1775 32.2371L32.779 19.0064L19.5484 32.4049ZM22.5724 42.7421L22.5071 32.3863L43.2186 32.2558L43.2839 42.6115C43.2888 43.3963 42.9819 44.1508 42.4305 44.7092C41.8791 45.2676 41.1285 45.584 40.3438 45.589L25.5498 45.6822C24.7651 45.6872 24.0105 45.3802 23.4522 44.8288C22.8938 44.2774 22.5773 43.5268 22.5724 42.7421Z" fill="white"/>
<path d="M19.5484 32.4049L18.8378 31.7032C18.554 31.9906 18.4713 32.4207 18.6282 32.7928C18.7851 33.165 19.1508 33.406 19.5547 33.4035L19.5484 32.4049ZM46.1775 32.2371L46.1838 33.2356C46.5877 33.2331 46.9503 32.9875 47.1025 32.6134C47.2547 32.2393 47.1665 31.8103 46.8792 31.5265L46.1775 32.2371ZM32.779 19.0064L33.4807 18.2959C33.0883 17.9083 32.456 17.9123 32.0685 18.3048L32.779 19.0064ZM22.5071 32.3863L22.5008 31.3877C21.9493 31.3912 21.505 31.8411 21.5085 32.3926L22.5071 32.3863ZM22.5724 42.7421L21.5738 42.7484L22.5724 42.7421ZM43.2186 32.2558L44.2172 32.2495C44.2137 31.698 43.7638 31.2537 43.2123 31.2572L43.2186 32.2558ZM40.3438 45.589L40.3375 44.5904L40.3438 45.589ZM25.5498 45.6822L25.5561 46.6808L25.5498 45.6822ZM23.4522 44.8288L22.7505 45.5393L22.7505 45.5393L23.4522 44.8288ZM22.5009 31.3876L19.5421 31.4063L19.5547 33.4035L22.5135 33.3848L22.5009 31.3876ZM43.2124 31.2571L22.5009 31.3876L22.5135 33.3848L43.225 33.2543L43.2124 31.2571ZM46.1712 31.2385L43.2124 31.2571L43.225 33.2543L46.1838 33.2356L46.1712 31.2385ZM32.0774 19.717L45.4758 32.9476L46.8792 31.5265L33.4807 18.2959L32.0774 19.717ZM20.259 33.1065L33.4896 19.7081L32.0685 18.3048L18.8378 31.7032L20.259 33.1065ZM21.5085 32.3926L21.5738 42.7484L23.571 42.7358L23.5057 32.38L21.5085 32.3926ZM43.2123 31.2572L22.5008 31.3877L22.5134 33.3849L43.2249 33.2544L43.2123 31.2572ZM44.2825 42.6052L44.2172 32.2495L42.22 32.2621L42.2853 42.6178L44.2825 42.6052ZM43.141 45.4108C43.8785 44.664 44.2891 43.6548 44.2825 42.6052L42.2853 42.6178C42.2886 43.1377 42.0852 43.6376 41.7199 44.0075L43.141 45.4108ZM40.35 46.5876C41.3996 46.5809 42.4036 46.1577 43.141 45.4108L41.7199 44.0075C41.3546 44.3774 40.8573 44.5871 40.3375 44.5904L40.35 46.5876ZM25.5561 46.6808L40.35 46.5876L40.3375 44.5904L25.5435 44.6836L25.5561 46.6808ZM22.7505 45.5393C23.4973 46.2768 24.5065 46.6874 25.5561 46.6808L25.5435 44.6836C25.0236 44.6869 24.5238 44.4835 24.1538 44.1182L22.7505 45.5393ZM21.5738 42.7484C21.5804 43.7979 22.0037 44.8019 22.7505 45.5393L24.1538 44.1182C23.7839 43.7529 23.5742 43.2557 23.571 42.7358L21.5738 42.7484Z" fill="white"/>
<path d="M28.8812 34.3436L31.5609 36.9897L36.8531 31.6303" stroke="#073762" stroke-width="1.99722" stroke-linecap="round" stroke-linejoin="round"/>
<path d="M40.902 40.2593L64.8682 40.1082L64.9437 52.0913C64.9854 58.7094 59.6542 64.1082 53.0361 64.1499C46.418 64.1917 41.0192 58.8605 40.9775 52.2424L40.902 40.2593Z" fill="#073762"/>
<path d="M57.2816 46.9268L53.6115 45.5785C53.2312 45.4411 52.612 45.445 52.2334 45.5871L48.5806 46.9816C47.8766 47.2524 47.3093 48.0815 47.314 48.8337L47.348 54.2261C47.3514 54.7654 47.7087 55.4755 48.1435 55.7923L51.8222 58.5054C52.471 58.9873 53.5295 58.9806 54.1722 58.4906L57.8165 55.7313C58.2471 55.4024 58.5955 54.6945 58.5921 54.1553L58.5582 48.7629C58.5601 48.0106 57.9823 47.1887 57.2816 46.9268ZM53.4636 52.7429L53.4746 54.4938C53.4763 54.7667 53.2514 54.9945 52.9785 54.9962C52.7055 54.9979 52.4778 54.773 52.476 54.5001L52.465 52.7492C51.7913 52.5404 51.2947 51.9177 51.29 51.1788C51.2842 50.2601 52.0252 49.5098 52.9439 49.504C53.8626 49.4982 54.6129 50.2391 54.6187 51.1578C54.6234 51.9034 54.1346 52.5256 53.4636 52.7429Z" fill="white"/>
</svg>
