<svg width="65" height="65" viewBox="0 0 65 65" fill="none" xmlns="http://www.w3.org/2000/svg">
<circle cx="32.5352" cy="32.2027" r="31.4562" transform="rotate(-0.361101 32.5352 32.2027)" fill="white" stroke="#9FC5E9" stroke-width="0.998611"/>
<circle cx="32.5352" cy="32.2025" r="27.9611" transform="rotate(-0.361101 32.5352 32.2025)" fill="#9FC5E9"/>
<path d="M23.1815 26.9355C20.9713 26.9494 19.1984 28.7448 19.2123 30.9551L19.2794 41.6067C19.2934 43.8169 21.0888 45.5898 23.299 45.5759L25.2962 45.5633C26.7608 45.5541 27.9515 44.3482 27.9423 42.8836L27.8584 29.5691C27.8491 28.1045 26.6433 26.9137 25.1787 26.9229L23.1815 26.9355ZM24.5885 38.9102C24.5919 39.4561 24.1421 39.9117 23.5962 39.9151C23.0503 39.9186 22.5947 39.4687 22.5913 38.9228L22.5577 33.597C22.5543 33.0511 23.0041 32.5955 23.55 32.5921C24.0959 32.5887 24.5515 33.0385 24.5549 33.5844L24.5885 38.9102Z" fill="white"/>
<path d="M41.7714 18.8295L33.7827 18.8799C31.5725 18.8938 29.7996 20.6892 29.8135 22.8994L29.931 41.5398C29.9449 43.75 31.7403 45.5229 33.9505 45.509L34.6163 45.5048C34.9891 45.5024 35.2801 45.2076 35.2778 44.8348L35.2484 40.1747C35.2438 39.4424 35.8392 38.8395 36.5715 38.8349L39.2344 38.8181C39.9667 38.8135 40.5696 39.4089 40.5742 40.1412L40.6036 44.8013C40.606 45.1741 40.9007 45.4652 41.2735 45.4628L41.9393 45.4586C44.1495 45.4447 45.9224 43.6493 45.9084 41.4391L45.791 22.7987C45.777 20.5885 43.9816 18.8156 41.7714 18.8295ZM36.205 33.5112C36.2085 34.0571 35.7586 34.5126 35.2127 34.5161C34.6669 34.5195 34.2113 34.0697 34.2079 33.5238L34.1659 26.8665C34.1625 26.3206 34.6123 25.865 35.1582 25.8616C35.7041 25.8582 36.1596 26.308 36.1631 26.8539L36.205 33.5112ZM41.5309 33.4776C41.5343 34.0235 41.0845 34.4791 40.5386 34.4825C39.9927 34.4859 39.5371 34.0361 39.5337 33.4902L39.4917 26.8329C39.4883 26.287 39.9381 25.8315 40.484 25.828C41.0299 25.8246 41.4855 26.2744 41.4889 26.8203L41.5309 33.4776Z" fill="white"/>
<path d="M40.6247 48.1298C40.5969 43.7178 44.151 40.1186 48.5631 40.0908L56.5518 40.0404C60.9639 40.0126 64.5631 43.5667 64.5909 47.9788L64.6412 55.9675C64.669 60.3796 61.1149 63.9788 56.7028 64.0066L48.7141 64.057C44.3021 64.0848 40.7028 60.5306 40.675 56.1186L40.6247 48.1298Z" fill="#073762"/>
<path d="M52.3378 58.0421C55.8307 58.0201 58.6444 55.1707 58.6224 51.6778C58.6004 48.1849 55.751 45.3712 52.2581 45.3932C48.7653 45.4153 45.9516 48.2646 45.9736 51.7575C45.9956 55.2504 48.845 58.0641 52.3378 58.0421Z" stroke="white" stroke-width="1.99722" stroke-linecap="round" stroke-linejoin="round"/>
<path d="M59.3322 58.6636L57.9923 57.3406" stroke="white" stroke-width="1.99722" stroke-linecap="round" stroke-linejoin="round"/>
</svg>
