<svg width="65" height="65" viewBox="0 0 65 65" fill="none" xmlns="http://www.w3.org/2000/svg">
<circle cx="32.6511" cy="32.702" r="31.4562" transform="rotate(-0.361101 32.6511 32.702)" fill="white" stroke="#9FC5E9" stroke-width="0.998611"/>
<circle cx="32.6511" cy="32.7018" r="27.9611" transform="rotate(-0.361101 32.6511 32.7018)" fill="#9FC5E9"/>
<path d="M39.9786 27.0236C39.8853 27.0109 39.7921 27.0115 39.699 27.0254C37.6348 26.9718 35.9864 25.2912 35.9733 23.2141C35.96 21.0971 37.6667 19.3554 39.797 19.342C41.914 19.3286 43.6557 21.0353 43.6692 23.1656C43.6689 25.2428 42.0419 26.944 39.9786 27.0236Z" fill="white"/>
<path d="M44.3773 36.2228C42.8923 37.2308 40.8043 37.6168 38.8721 37.376C39.3712 36.281 39.6298 35.0677 39.6351 33.7894C39.6267 32.458 39.3258 31.1949 38.7596 30.0933C40.7285 29.8146 42.8212 30.1743 44.3321 31.1634C46.4445 32.5348 46.4588 34.8116 44.3773 36.2228Z" fill="white"/>
<path d="M25.2127 27.1167C25.3058 27.1028 25.399 27.1022 25.4923 27.1149C27.5556 27.0353 29.1827 25.3341 29.1696 23.257C29.1562 21.1267 27.4277 19.4199 25.2974 19.4334C23.1804 19.4467 21.4737 21.1751 21.4871 23.3054C21.5002 25.3825 23.1485 27.0631 25.2127 27.1167Z" fill="white"/>
<path d="M25.4018 33.8791C25.4099 35.1706 25.6973 36.3938 26.2102 37.4957C24.3341 37.7073 22.3743 37.3202 20.9304 36.3839C18.8179 34.9992 18.8035 32.7224 20.8984 31.3111C22.3171 30.3434 24.3251 29.9447 26.2171 30.1458C25.6783 31.2676 25.3933 32.5344 25.4018 33.8791Z" fill="white"/>
<path d="M32.8434 37.8535C32.7368 37.8408 32.6169 37.8416 32.4972 37.8556C30.0468 37.7912 28.0769 35.793 28.0613 33.3165C28.0586 30.7867 30.0829 28.7234 32.6259 28.7074C35.1557 28.6914 37.2191 30.729 37.235 33.2587C37.2373 35.7353 35.306 37.7581 32.8434 37.8535Z" fill="white"/>
<path d="M28.5335 40.6369C26.5315 41.9944 26.5454 44.2046 28.5643 45.5234C30.864 47.0401 34.6187 47.0164 36.8992 45.4708C38.9012 44.1134 38.8873 41.9032 36.8684 40.5844C34.582 39.0676 30.8272 39.0912 28.5335 40.6369Z" fill="white"/>
<path d="M40.7405 48.6291C40.7127 44.2171 44.2669 40.6178 48.6789 40.59L56.6676 40.5397C61.0797 40.5119 64.6789 44.066 64.7067 48.4781L64.7571 56.4668C64.7849 60.8788 61.2307 64.4781 56.8187 64.5059L48.83 64.5562C44.4179 64.584 40.8187 61.0299 40.7909 56.6178L40.7405 48.6291Z" fill="#073762"/>
<path d="M57.9471 54.4655C56.5843 55.8389 54.623 56.2706 52.8954 55.7423L49.7795 58.8909C49.5547 59.1254 49.1095 59.268 48.7897 59.2234L47.3371 59.0328C46.8574 58.9693 46.4085 58.5194 46.3322 58.0405L46.1234 56.5905C46.0748 56.2713 46.2251 55.8242 46.4433 55.5965L49.5525 52.4479C49.009 50.7203 49.4094 48.7538 50.7722 47.3805C52.7237 45.4042 55.9126 45.3841 57.8955 47.3356C59.8784 49.287 59.8986 52.4892 57.9471 54.4655Z" fill="white"/>
<path d="M49.37 56.2241L50.9108 57.7456" stroke="#073762" stroke-width="1.99722" stroke-miterlimit="10" stroke-linecap="round" stroke-linejoin="round"/>
<path d="M54.4089 51.8715C54.9605 51.868 55.4047 51.4181 55.4012 50.8666C55.3978 50.3151 54.9479 49.8708 54.3964 49.8743C53.8449 49.8778 53.4006 50.3277 53.4041 50.8792C53.4075 51.4307 53.8574 51.875 54.4089 51.8715Z" fill="#073762" stroke="#073762" stroke-width="1.99722" stroke-linecap="round" stroke-linejoin="round"/>
</svg>
