<svg width="25" height="25" viewBox="0 0 25 25" fill="none" xmlns="http://www.w3.org/2000/svg">
<path d="M17.7755 5.89179C17.5385 5.89328 17.3072 5.96502 17.111 6.09793C16.9148 6.23085 16.7624 6.41896 16.673 6.6385C16.5837 6.85803 16.5615 7.09912 16.6092 7.33128C16.6569 7.56344 16.7724 7.77624 16.941 7.94277C17.1097 8.1093 17.3239 8.22208 17.5567 8.26685C17.7894 8.31162 18.0302 8.28638 18.2486 8.1943C18.467 8.10222 18.6531 7.94745 18.7836 7.74956C18.914 7.55167 18.9828 7.31955 18.9813 7.08254C18.9793 6.76473 18.8512 6.46073 18.625 6.23742C18.3989 6.01411 18.0933 5.88978 17.7755 5.89179ZM22.3842 8.27943C22.3596 7.45102 22.1992 6.63225 21.9096 5.85574C21.6515 5.19142 21.2525 4.5909 20.7401 4.09554C20.2424 3.5868 19.6355 3.19792 18.9653 2.9583C18.1872 2.66976 17.3656 2.51621 16.5358 2.50425C15.4769 2.45101 15.1374 2.45315 12.4212 2.47027C9.70505 2.48739 9.36553 2.48953 8.3074 2.55611C7.47783 2.57853 6.65818 2.74243 5.88378 3.04074C5.21795 3.29125 4.61653 3.68742 4.12351 4.20026C3.61477 4.69797 3.22589 5.30485 2.98627 5.97501C2.69774 6.7531 2.54418 7.57476 2.53222 8.40454C2.47898 9.46343 2.48112 9.80295 2.49824 12.5191C2.51536 15.2353 2.5175 15.5748 2.58408 16.6329C2.6065 17.4625 2.7704 18.2822 3.06872 19.0566C3.31676 19.7236 3.71327 20.3256 4.22823 20.8168C4.72768 21.3234 5.33404 21.712 6.00298 21.9541C6.78108 22.2426 7.60273 22.3962 8.43251 22.4081C9.4914 22.4614 9.83092 22.4592 12.5471 22.4421C15.2633 22.425 15.6028 22.4228 16.6609 22.3562C17.4905 22.3338 18.3101 22.1699 19.0845 21.8716C19.7516 21.6236 20.3535 21.2271 20.8448 20.7121C21.3532 20.2122 21.7449 19.6061 21.992 18.9373C22.2719 18.1572 22.4219 17.3365 22.4361 16.5078C22.4294 15.4493 22.4872 15.1094 22.4701 12.3932C22.4529 9.67708 22.4508 9.33755 22.3842 8.27943ZM20.6379 16.3993C20.6346 17.0332 20.5237 17.662 20.31 18.2588C20.1533 18.6944 19.8997 19.0887 19.5683 19.4119C19.2465 19.744 18.8563 20.0021 18.4247 20.1681C17.8306 20.3893 17.2033 20.5081 16.5694 20.5193C15.5712 20.5756 15.2017 20.5879 12.5755 20.6044C9.94916 20.621 9.57968 20.6233 8.58071 20.5697C7.92261 20.5862 7.26659 20.4889 6.64155 20.2823C6.22684 20.1132 5.85133 19.8607 5.53838 19.5403C5.20492 19.2216 4.94955 18.8302 4.79219 18.3966C4.54458 17.7941 4.40531 17.1527 4.38079 16.5018C4.3745 15.5032 4.31226 15.1341 4.2957 12.5078C4.27915 9.88149 4.27682 9.51201 4.33044 8.51304C4.33084 7.86499 4.44509 7.22204 4.66799 6.61352C4.84114 6.19092 5.1086 5.81349 5.44996 5.5101C5.75118 5.16484 6.12441 4.88979 6.54337 4.7043C7.15068 4.48082 7.7915 4.36197 8.43856 4.35282C9.43715 4.34653 9.80625 4.28428 12.4325 4.26773C15.0588 4.25118 15.4283 4.24885 16.4273 4.30247C17.0612 4.30575 17.69 4.41659 18.2868 4.63029C18.7417 4.79584 19.1507 5.06708 19.4802 5.42167C19.8093 5.72635 20.0674 6.09977 20.236 6.5154C20.4618 7.12208 20.5807 7.76329 20.5875 8.41058C20.6437 9.40886 20.656 9.77828 20.6726 12.4046C20.6892 15.0309 20.6815 15.4004 20.6379 16.3993ZM12.4519 7.33341C11.4391 7.34176 10.4516 7.65012 9.614 8.21952C8.77644 8.78892 8.12644 9.5938 7.74614 10.5325C7.36584 11.4711 7.27231 12.5015 7.47735 13.4933C7.6824 14.4851 8.17683 15.3939 8.89817 16.1048C9.61951 16.8157 10.5354 17.2969 11.5301 17.4875C12.5248 17.678 13.5536 17.5695 14.4867 17.1756C15.4197 16.7817 16.215 16.1201 16.7722 15.2743C17.3293 14.4285 17.6233 13.4366 17.6169 12.4238C17.614 11.7499 17.4778 11.0832 17.2163 10.462C16.9548 9.84086 16.573 9.27754 16.093 8.80446C15.613 8.33138 15.0442 7.95787 14.4193 7.70541C13.7944 7.45295 13.1258 7.32653 12.4519 7.33341ZM12.5051 15.7815C11.8474 15.7856 11.2033 15.5947 10.6541 15.2327C10.105 14.8708 9.6755 14.3541 9.41999 13.7481C9.16447 13.142 9.09441 12.4739 9.21865 11.828C9.34289 11.1821 9.65586 10.5876 10.118 10.1197C10.5801 9.65167 11.1706 9.33123 11.8149 9.19885C12.4591 9.06648 13.1281 9.12812 13.7373 9.37597C14.3465 9.62383 14.8686 10.0468 15.2374 10.5913C15.6062 11.1359 15.8053 11.7775 15.8095 12.4352C15.8122 12.8719 15.7289 13.3049 15.5644 13.7094C15.3998 14.1139 15.1572 14.482 14.8503 14.7927C14.5435 15.1034 14.1784 15.3507 13.7761 15.5203C13.3737 15.69 12.9418 15.7787 12.5051 15.7815Z" fill="#000929"/>
</svg>
