<svg viewBox="0 0 21 21" fill="none" xmlns="http://www.w3.org/2000/svg">
<path d="M17.3726 12.5598C15.6691 14.2765 13.2176 14.8163 11.058 14.1558L7.16321 18.0916C6.88212 18.3847 6.32567 18.563 5.92587 18.5072L4.11019 18.269C3.51051 18.1896 2.94939 17.6272 2.85408 17.0286L2.593 15.2161C2.53223 14.817 2.72011 14.2583 2.99294 13.9736L6.87944 10.0378C6.20008 7.8784 6.70054 5.42027 8.40404 3.70354C10.8434 1.2332 14.8295 1.20808 17.3081 3.64743C19.7868 6.08677 19.812 10.0895 17.3726 12.5598Z" stroke="#073762" stroke-width="1.99722" stroke-miterlimit="10" stroke-linecap="round" stroke-linejoin="round"/>
<path d="M6.65125 14.7577L8.57727 16.6596" stroke="#073762" stroke-width="1.99722" stroke-miterlimit="10" stroke-linecap="round" stroke-linejoin="round"/>
<path d="M12.9499 9.3171C13.6393 9.31276 14.1946 8.75038 14.1903 8.061C14.1859 7.37161 13.6235 6.81628 12.9342 6.82062C12.2448 6.82497 11.6894 7.38735 11.6938 8.07673C11.6981 8.76611 12.2605 9.32145 12.9499 9.3171Z" stroke="#073762" stroke-width="1.99722" stroke-linecap="round" stroke-linejoin="round"/>
</svg>
