<svg width="25" height="25" viewBox="0 0 25 25" fill="none" xmlns="http://www.w3.org/2000/svg">
<path d="M20.6989 2.61157L3.78275 2.71818C3.59258 2.71674 3.40399 2.75277 3.22775 2.82422C3.0515 2.89567 2.89106 3.00114 2.75558 3.13461C2.62011 3.26807 2.51225 3.42691 2.43816 3.60207C2.36408 3.77722 2.32523 3.96525 2.32382 4.15542L2.43169 21.2713C2.4355 21.4614 2.47672 21.6489 2.553 21.8231C2.62929 21.9973 2.73914 22.1548 2.87629 22.2866C3.01344 22.4183 3.1752 22.5217 3.35232 22.591C3.52945 22.6602 3.71848 22.6938 3.90862 22.69L20.8248 22.5834C21.0149 22.5848 21.2035 22.5488 21.3798 22.4774C21.556 22.4059 21.7164 22.3004 21.8519 22.167C21.9874 22.0335 22.0953 21.8747 22.1693 21.6995C22.2434 21.5244 22.2823 21.3363 22.2837 21.1462L22.1758 4.0303C22.172 3.84017 22.1308 3.65264 22.0545 3.47844C21.9782 3.30423 21.8684 3.14676 21.7312 3.01501C21.5941 2.88327 21.4323 2.77983 21.2552 2.71061C21.0781 2.64138 20.889 2.60773 20.6989 2.61157ZM8.44168 19.4059L5.44591 19.4248L5.38926 10.4375L8.38504 10.4186L8.44168 19.4059ZM6.87922 9.1698C6.46607 9.1724 6.0688 9.01077 5.77481 8.72047C5.48083 8.43017 5.3142 8.03497 5.3116 7.62181C5.309 7.20866 5.47062 6.81139 5.76093 6.5174C6.05123 6.22342 6.44643 6.0568 6.85959 6.05419C7.07881 6.02793 7.30112 6.04827 7.51194 6.11388C7.72277 6.17948 7.91736 6.28888 8.08297 6.43491C8.24858 6.58094 8.38148 6.7603 8.47297 6.96125C8.56446 7.1622 8.61247 7.38021 8.61386 7.601C8.61525 7.82179 8.56999 8.04039 8.48104 8.24248C8.3921 8.44456 8.26147 8.62559 8.09771 8.77369C7.93395 8.92179 7.74075 9.03363 7.53077 9.10189C7.32079 9.17015 7.09876 9.19329 6.87922 9.1698ZM19.2464 19.3378L16.2507 19.3567L16.2203 14.5335C16.2127 13.3252 15.7783 12.539 14.6898 12.5459C14.353 12.5505 14.0256 12.6582 13.7519 12.8545C13.4782 13.0509 13.2712 13.3264 13.1589 13.644C13.0822 13.8792 13.0499 14.1266 13.0636 14.3736L13.0951 19.3666L10.0993 19.3855C10.0993 19.3855 10.0478 11.217 10.0426 10.3981L13.0384 10.3793L13.0464 11.6475C13.3156 11.1735 13.7089 10.782 14.1841 10.5151C14.6593 10.2481 15.1984 10.1158 15.7431 10.1325C17.7403 10.1199 19.1964 11.399 19.2138 14.1651L19.2464 19.3378Z" fill="#000929"/>
</svg>
