<svg width="18" height="23" viewBox="0 0 18 23" fill="none" xmlns="http://www.w3.org/2000/svg">
<path d="M5.47966 10.0902C5.47966 8.14567 7.05599 6.56934 9.00049 6.56934C10.945 6.56934 12.5213 8.14567 12.5213 10.0902C12.5213 12.0347 10.945 13.611 9.00049 13.611C7.05599 13.611 5.47966 12.0347 5.47966 10.0902Z" fill="#073762"/>
<path fill-rule="evenodd" clip-rule="evenodd" d="M0.0884929 8.87401C0.460768 4.35765 4.23488 0.881836 8.76655 0.881836H9.23448C13.7662 0.881836 17.5403 4.35765 17.9125 8.87401C18.113 11.3057 17.3619 13.7202 15.8174 15.609L10.6249 21.9593C9.78535 22.986 8.21568 22.986 7.37612 21.9593L2.18364 15.609C0.639177 13.7202 -0.111943 11.3057 0.0884929 8.87401ZM9.00049 4.94434C6.15852 4.94434 3.85466 7.2482 3.85466 10.0902C3.85466 12.9321 6.15852 15.236 9.00049 15.236C11.8425 15.236 14.1463 12.9321 14.1463 10.0902C14.1463 7.2482 11.8425 4.94434 9.00049 4.94434Z" fill="#073762"/>
</svg>
