<svg width="22" height="22" viewBox="0 0 22 22" fill="none" xmlns="http://www.w3.org/2000/svg">
<path d="M11.5408 11.9164L9.43242 14.0156C9.3465 14.1008 9.27831 14.2022 9.23177 14.3139C9.18523 14.4256 9.16127 14.5454 9.16127 14.6664C9.16127 14.7874 9.18523 14.9073 9.23177 15.019C9.27831 15.1307 9.3465 15.232 9.43242 15.3173C9.51763 15.4032 9.61902 15.4714 9.73072 15.5179C9.84243 15.5645 9.96224 15.5884 10.0833 15.5884C10.2043 15.5884 10.3241 15.5645 10.4358 15.5179C10.5475 15.4714 10.6489 15.4032 10.7341 15.3173L14.4008 11.6506C14.4842 11.5634 14.5496 11.4606 14.5933 11.3481C14.6849 11.1249 14.6849 10.8746 14.5933 10.6514C14.5496 10.5389 14.4842 10.4361 14.4008 10.3489L10.7341 6.68227C10.6486 6.5968 10.5472 6.529 10.4355 6.48274C10.3238 6.43649 10.2041 6.41268 10.0833 6.41268C9.96238 6.41268 9.84269 6.43649 9.73102 6.48274C9.61935 6.529 9.51789 6.5968 9.43242 6.68227C9.34695 6.76773 9.27915 6.8692 9.2329 6.98087C9.18664 7.09254 9.16284 7.21223 9.16284 7.3331C9.16284 7.45397 9.18664 7.57366 9.2329 7.68533C9.27915 7.797 9.34695 7.89846 9.43242 7.98393L11.5408 10.0831H2.74992C2.5068 10.0831 2.27365 10.1797 2.10174 10.3516C1.92983 10.5235 1.83325 10.7567 1.83325 10.9998C1.83325 11.2429 1.92983 11.476 2.10174 11.6479C2.27365 11.8199 2.5068 11.9164 2.74992 11.9164H11.5408ZM10.9999 1.8331C9.28675 1.82545 7.60573 2.29804 6.14751 3.19727C4.6893 4.09651 3.51227 5.38638 2.74992 6.9206C2.64052 7.1394 2.62252 7.3927 2.69987 7.62478C2.77723 7.85686 2.94362 8.0487 3.16242 8.1581C3.38122 8.2675 3.63452 8.2855 3.8666 8.20814C4.09868 8.13078 4.29052 7.9644 4.39992 7.7456C4.97943 6.57531 5.86093 5.581 6.95334 4.86542C8.04575 4.14984 9.30942 3.73896 10.6138 3.67523C11.9181 3.61149 13.2158 3.89723 14.3728 4.5029C15.5298 5.10857 16.504 6.01221 17.1949 7.12043C17.8857 8.22865 18.2681 9.50124 18.3025 10.8067C18.3368 12.1122 18.022 13.4031 17.3905 14.5462C16.7589 15.6892 15.8336 16.6429 14.7102 17.3087C13.5867 17.9744 12.3058 18.3281 10.9999 18.3331C9.63306 18.339 8.29223 17.9594 7.1313 17.2379C5.97038 16.5164 5.03641 15.4822 4.43659 14.2539C4.32718 14.0351 4.13534 13.8687 3.90327 13.7914C3.67119 13.714 3.41789 13.732 3.19909 13.8414C2.98028 13.9508 2.8139 14.1427 2.73654 14.3748C2.65918 14.6068 2.67718 14.8601 2.78659 15.0789C3.51334 16.5415 4.61765 17.7833 5.98527 18.676C7.35289 19.5686 8.93416 20.0797 10.5655 20.1563C12.1969 20.233 13.8191 19.8724 15.2644 19.1118C16.7097 18.3513 17.9255 17.2184 18.7861 15.8304C19.6468 14.4424 20.121 12.8497 20.1597 11.217C20.1984 9.58431 19.8002 7.97091 19.0063 6.54369C18.2124 5.11648 17.0516 3.92729 15.644 3.09911C14.2364 2.27094 12.6331 1.83387 10.9999 1.8331Z" fill="#F14231"/>
</svg>
