<svg width="39" height="40" viewBox="0 0 39 40" fill="none" xmlns="http://www.w3.org/2000/svg">
<rect x="0.0820312" width="38.8889" height="40" rx="8" fill="#F7F7FD"/>
<g clip-path="url(#clip0_1994_3999)">
<path d="M12.9829 17.7499C12.9817 16.8605 13.1516 15.9795 13.483 15.1579C13.8143 14.3363 14.3005 13.5903 14.9135 12.9628C15.5264 12.3353 16.2541 11.8389 17.0544 11.502C17.8548 11.1652 18.7121 10.9946 19.5769 11.0001C23.1853 11.0277 26.0716 14.1128 26.0716 17.8347V18.4999C26.0716 21.8577 26.7546 23.8061 27.3561 24.871C27.4209 24.9848 27.4554 25.1142 27.4561 25.246C27.4568 25.3779 27.4236 25.5076 27.36 25.6221C27.2964 25.7366 27.2046 25.8318 27.0938 25.8982C26.9829 25.9645 26.8571 25.9996 26.7289 25.9999H12.3249C12.1966 25.9996 12.0708 25.9645 11.96 25.8981C11.8491 25.8318 11.7573 25.7366 11.6937 25.622C11.6301 25.5075 11.597 25.3778 11.5977 25.2459C11.5984 25.114 11.6329 24.9846 11.6977 24.8709C12.2996 23.8059 12.9829 21.8575 12.9829 18.4999L12.9829 17.7499Z" stroke="#000929" stroke-width="2" stroke-linecap="round" stroke-linejoin="round"/>
<path d="M16.6094 26V26.75C16.6094 27.5456 16.9167 28.3087 17.4636 28.8713C18.0106 29.4339 18.7525 29.75 19.526 29.75C20.2996 29.75 21.0415 29.4339 21.5884 28.8713C22.1354 28.3087 22.4427 27.5456 22.4427 26.75V26" stroke="#000929" stroke-width="2" stroke-linecap="round" stroke-linejoin="round"/>
<mask id="path-4-outside-1_1994_3999" maskUnits="userSpaceOnUse" x="19.5273" y="10" width="10" height="10" fill="black">
<rect fill="white" x="19.5273" y="10" width="10" height="10"/>
<path fill-rule="evenodd" clip-rule="evenodd" d="M27.2496 15C27.2496 16.7103 25.9159 18 24.3885 18C22.861 18 21.5273 16.7103 21.5273 15C21.5273 13.2897 22.861 12 24.3885 12C25.9159 12 27.2496 13.2897 27.2496 15Z"/>
</mask>
<path fill-rule="evenodd" clip-rule="evenodd" d="M27.2496 15C27.2496 16.7103 25.9159 18 24.3885 18C22.861 18 21.5273 16.7103 21.5273 15C21.5273 13.2897 22.861 12 24.3885 12C25.9159 12 27.2496 13.2897 27.2496 15Z" fill="#073762"/>
<path d="M24.3885 20C27.0624 20 29.2496 17.7725 29.2496 15H25.2496C25.2496 15.6482 24.7694 16 24.3885 16V20ZM19.5273 15C19.5273 17.7725 21.7146 20 24.3885 20V16C24.0075 16 23.5273 15.6482 23.5273 15H19.5273ZM24.3885 10C21.7146 10 19.5273 12.2275 19.5273 15H23.5273C23.5273 14.3518 24.0075 14 24.3885 14V10ZM29.2496 15C29.2496 12.2275 27.0624 10 24.3885 10V14C24.7694 14 25.2496 14.3518 25.2496 15H29.2496Z" fill="#F7F7FD" mask="url(#path-4-outside-1_1994_3999)"/>
</g>
<defs>
<clipPath id="clip0_1994_3999">
<rect width="23.3333" height="24" fill="white" transform="translate(7.85938 8)"/>
</clipPath>
</defs>
</svg>
