<svg width="48" height="49" viewBox="0 0 48 49" fill="none" xmlns="http://www.w3.org/2000/svg">
<circle cx="24" cy="24.709" r="24" fill="#FF7E53"/>
<path d="M20.2251 32.709H21.2571C22.4411 32.709 23.4651 32.477 24.3291 32.013C25.2091 31.549 25.8811 30.901 26.3451 30.069C26.8251 29.237 27.0651 28.269 27.0651 27.165V14.829H23.7771V27.285C23.7771 28.021 23.5451 28.613 23.0811 29.061C22.6331 29.493 22.0251 29.709 21.2571 29.709H20.2251V32.709Z" fill="white"/>
<circle cx="36" cy="36.709" r="12" fill="#073762"/>
<g clip-path="url(#clip0_320_1776)">
<path d="M31 34.209V32.959C31 32.6275 31.1317 32.3095 31.3661 32.0751C31.6005 31.8407 31.9185 31.709 32.25 31.709H33.5" stroke="white" stroke-linecap="round" stroke-linejoin="round"/>
<path d="M31 39.209V40.459C31 40.7905 31.1317 41.1084 31.3661 41.3429C31.6005 41.5773 31.9185 41.709 32.25 41.709H33.5" stroke="white" stroke-linecap="round" stroke-linejoin="round"/>
<path d="M38.5 31.709H39.75C40.0815 31.709 40.3995 31.8407 40.6339 32.0751C40.8683 32.3095 41 32.6275 41 32.959V34.209" stroke="white" stroke-linecap="round" stroke-linejoin="round"/>
<path d="M38.5 41.709H39.75C40.0815 41.709 40.3995 41.5773 40.6339 41.3429C40.8683 41.1084 41 40.7905 41 40.459V39.209" stroke="white" stroke-linecap="round" stroke-linejoin="round"/>
<path d="M36 36.084V36.0902" stroke="white" stroke-linecap="round" stroke-linejoin="round"/>
<path d="M36 40.4593L33.8125 37.3343C33.6019 36.9537 33.4943 36.5248 33.5002 36.0898C33.5062 35.6549 33.6255 35.229 33.8464 34.8543C34.0673 34.4796 34.3822 34.1691 34.7599 33.9533C35.1376 33.7375 35.565 33.624 36 33.624C36.435 33.624 36.8624 33.7375 37.2401 33.9533C37.6178 34.1691 37.9327 34.4796 38.1536 34.8543C38.3745 35.229 38.4938 35.6549 38.4998 36.0898C38.5057 36.5248 38.3981 36.9537 38.1875 37.3343L36 40.4593Z" stroke="white" stroke-linecap="round" stroke-linejoin="round"/>
</g>
<defs>
<clipPath id="clip0_320_1776">
<rect width="15" height="15" fill="white" transform="translate(28.5 29.209)"/>
</clipPath>
</defs>
</svg>
