<svg width="30" height="30" viewBox="0 0 39 40" fill="none" xmlns="http://www.w3.org/2000/svg">
<rect x="0.0839844" width="38.8889" height="40" rx="8" fill="#F7F7FD"/>
<g clip-path="url(#clip0_1615_8905)">
<path d="M12.9848 17.7499C12.9836 16.8605 13.1536 15.9795 13.4849 15.1579C13.8163 14.3363 14.3024 13.5903 14.9154 12.9628C15.5284 12.3353 16.256 11.8389 17.0564 11.502C17.8568 11.1652 18.714 10.9946 19.5788 11.0001C23.1872 11.0277 26.0735 14.1128 26.0735 17.8347V18.4999C26.0735 21.8577 26.7565 23.8061 27.3581 24.871C27.4229 24.9848 27.4573 25.1142 27.458 25.246C27.4587 25.3779 27.4256 25.5076 27.362 25.6221C27.2984 25.7366 27.2065 25.8318 27.0957 25.8982C26.9849 25.9645 26.859 25.9996 26.7308 25.9999H12.3268C12.1986 25.9996 12.0727 25.9645 11.9619 25.8981C11.8511 25.8318 11.7592 25.7366 11.6956 25.622C11.632 25.5075 11.5989 25.3778 11.5996 25.2459C11.6003 25.114 11.6348 24.9846 11.6997 24.8709C12.3015 23.8059 12.9848 21.8575 12.9848 18.4999L12.9848 17.7499Z" stroke="#000929" stroke-width="2" stroke-linecap="round" stroke-linejoin="round"/>
<path d="M16.6113 26V26.75C16.6113 27.5456 16.9186 28.3087 17.4656 28.8713C18.0126 29.4339 18.7544 29.75 19.528 29.75C20.3015 29.75 21.0434 29.4339 21.5904 28.8713C22.1374 28.3087 22.4447 27.5456 22.4447 26.75V26" stroke="#000929" stroke-width="2" stroke-linecap="round" stroke-linejoin="round"/>
<mask id="path-4-outside-1_1615_8905" maskUnits="userSpaceOnUse" x="19.5273" y="9" width="10" height="11" fill="black">
<rect fill="white" x="19.5273" y="9" width="10" height="11"/>
<path fill-rule="evenodd" clip-rule="evenodd" d="M24.3889 18C25.9161 17.9998 27.2496 16.7102 27.2496 15L24.3889 18ZM24.3622 12.0001C22.8458 12.0148 21.5273 13.2995 21.5273 15C21.5273 16.702 22.848 17.9874 24.366 17.9999M24.3622 12.0001C24.3709 12 24.3797 12 24.3885 12C25.9159 12 27.2496 13.2897 27.2496 15"/>
</mask>
<path fill-rule="evenodd" clip-rule="evenodd" d="M24.3889 18C25.9161 17.9998 27.2496 16.7102 27.2496 15L24.3889 18ZM24.3622 12.0001C22.8458 12.0148 21.5273 13.2995 21.5273 15C21.5273 16.702 22.848 17.9874 24.366 17.9999M24.3622 12.0001C24.3709 12 24.3797 12 24.3885 12C25.9159 12 27.2496 13.2897 27.2496 15" fill="#073762"/>
<path d="M27.2496 15L27.9733 15.6901L28.6344 14.9968L27.9701 14.3065L27.2496 15ZM24.3622 12.0001L25.0827 11.3067L23.3606 9.51748L23.3622 12.0008L24.3622 12.0001ZM25.1126 18.6901L27.9733 15.6901L26.5259 14.3099L23.6652 17.3099L25.1126 18.6901ZM25.366 17.9993L25.3622 11.9995L23.3622 12.0008L23.366 18.0006L25.366 17.9993ZM27.9701 14.3065L25.0827 11.3067L23.6417 12.6936L26.5291 15.6935L27.9701 14.3065ZM24.3622 12.0001L24.3816 14L24.3622 12.0001ZM24.3892 20C27.0628 19.9996 29.2496 17.7723 29.2496 15H25.2496C25.2496 15.6481 24.7695 15.9999 24.3886 16L24.3892 20ZM24.3428 10.0002C21.6895 10.0259 19.5273 12.2429 19.5273 15H23.5273C23.5273 14.3561 24.0021 14.0037 24.3816 14L24.3428 10.0002ZM19.5273 15C19.5273 17.7594 21.6931 19.9779 24.3495 19.9998L24.3826 16C24.0029 15.9968 23.5273 15.6446 23.5273 15H19.5273ZM24.3885 10C24.3732 10 24.358 10.0001 24.3428 10.0002L24.3816 14C24.3838 14 24.3862 14 24.3885 14V10ZM29.2496 15C29.2496 12.2275 27.0624 10 24.3885 10V14C24.7694 14 25.2496 14.3518 25.2496 15H29.2496Z" fill="#F7F7FD" mask="url(#path-4-outside-1_1615_8905)"/>
</g>
<defs>
<clipPath id="clip0_1615_8905">
<rect width="23.3333" height="24" fill="white" transform="translate(7.86133 8)"/>
</clipPath>
</defs>
</svg>
