<svg width="156" height="40" viewBox="0 0 156 40" fill="none" xmlns="http://www.w3.org/2000/svg">
<path d="M46.543 12.5875H50.293V27.75H46.543V12.5875ZM51.7805 22.025C51.7805 18.275 54.0805 16.0375 57.6305 16.0375C61.1805 16.0375 63.4805 18.275 63.4805 22.025C63.4805 25.775 61.2305 28.025 57.6305 28.025C54.0305 28.025 51.7805 25.8375 51.7805 22.025ZM59.718 22.025C59.718 19.9625 58.9055 18.75 57.6305 18.75C56.3555 18.75 55.5555 20 55.5555 22.025C55.5555 24.05 56.343 25.275 57.6305 25.275C58.918 25.275 59.718 24.125 59.718 22.0375V22.025ZM64.893 28.4875H68.493C68.6643 28.8681 68.954 29.1832 69.3188 29.386C69.6837 29.5886 70.1043 29.6681 70.518 29.6125C71.943 29.6125 72.693 28.8375 72.693 27.7125V25.6125H72.618C72.3192 26.2561 71.8343 26.7954 71.2261 27.1609C70.6178 27.5262 69.914 27.701 69.2055 27.6625C66.468 27.6625 64.6555 25.575 64.6555 21.9875C64.6555 18.4 66.3805 16.1375 69.2555 16.1375C69.9862 16.1089 70.7082 16.3042 71.3248 16.6974C71.9415 17.0906 72.4232 17.6629 72.7055 18.3375V16.25H76.4555V27.625C76.4555 30.3625 74.043 32.0625 70.4805 32.0625C67.168 32.0625 65.1055 30.575 64.893 28.5V28.4875ZM72.7055 22.0125C72.7055 20.1875 71.868 19.0375 70.543 19.0375C69.218 19.0375 68.4055 20.175 68.4055 22.0125C68.4055 23.85 69.2055 24.8875 70.543 24.8875C71.8805 24.8875 72.7055 23.875 72.7055 22.025V22.0125ZM77.868 22.0125C77.868 18.2625 80.168 16.025 83.718 16.025C87.268 16.025 89.5805 18.2625 89.5805 22.0125C89.5805 25.7625 87.3305 28.0125 83.718 28.0125C80.1055 28.0125 77.868 25.8375 77.868 22.025V22.0125ZM85.8055 22.0125C85.8055 19.95 84.993 18.7375 83.718 18.7375C82.443 18.7375 81.7055 20 81.7055 22.0375C81.7055 24.075 82.493 25.2875 83.768 25.2875C85.043 25.2875 85.8055 24.125 85.8055 22.0375V22.0125ZM91.0055 13.525C90.9956 13.1464 91.0985 12.7734 91.3008 12.4532C91.5033 12.1331 91.7962 11.8803 92.1425 11.7269C92.4887 11.5734 92.8727 11.5262 93.2458 11.5913C93.619 11.6564 93.9643 11.8308 94.2382 12.0923C94.5122 12.3539 94.7022 12.691 94.7843 13.0607C94.8665 13.4305 94.837 13.8162 94.6995 14.1692C94.5621 14.5221 94.323 14.8264 94.0125 15.0432C93.7021 15.2601 93.3341 15.38 92.9555 15.3875C92.7045 15.4047 92.4526 15.3699 92.2157 15.2851C91.9787 15.2004 91.762 15.0676 91.5788 14.895C91.3957 14.7225 91.2502 14.5139 91.1516 14.2824C91.0528 14.051 91.0031 13.8016 91.0055 13.55V13.525ZM91.0055 16.275H94.7555V27.75H91.0055V16.275ZM108.368 22.0125C108.368 25.7625 106.705 27.9 103.855 27.9C103.125 27.9469 102.397 27.7682 101.771 27.3882C101.145 27.0081 100.651 26.445 100.355 25.775H100.28V31.425H96.5305V16.25H100.28V18.3H100.355C100.637 17.6189 101.122 17.0411 101.744 16.6452C102.365 16.2494 103.094 16.0546 103.83 16.0875C106.705 16.1375 108.418 18.2875 108.418 22.0375L108.368 22.0125ZM104.618 22.0125C104.618 20.1875 103.78 19.025 102.468 19.025C101.155 19.025 100.318 20.2 100.305 22.0125C100.293 23.825 101.155 24.9875 102.468 24.9875C103.78 24.9875 104.618 23.85 104.618 22.0375V22.0125ZM114.805 16.0125C117.918 16.0125 119.805 17.4875 119.893 19.85H116.48C116.48 19.0375 115.805 18.525 114.768 18.525C113.73 18.525 113.268 18.925 113.268 19.5125C113.268 20.1 113.68 20.2875 114.518 20.4625L116.918 20.95C119.205 21.4375 120.18 22.3625 120.18 24.1C120.18 26.475 118.018 28 114.83 28C111.643 28 109.555 26.475 109.393 24.1375H113.005C113.118 24.9875 113.793 25.4875 114.893 25.4875C115.993 25.4875 116.493 25.125 116.493 24.525C116.493 23.925 116.143 23.8 115.243 23.6125L113.08 23.15C110.843 22.6875 109.668 21.5 109.668 19.75C109.693 17.5 111.705 16.0375 114.805 16.0375V16.0125ZM132.693 27.725H129.08V25.5875H129.005C128.807 26.3051 128.369 26.9332 127.764 27.3676C127.159 27.8019 126.424 28.0162 125.68 27.975C125.111 28.0074 124.541 27.9171 124.009 27.7102C123.477 27.5034 122.996 27.1849 122.598 26.776C122.199 26.3672 121.894 25.8776 121.701 25.3405C121.508 24.8034 121.433 24.2311 121.48 23.6625V16.25H125.23V22.8C125.23 24.1625 125.93 24.8875 127.093 24.8875C127.365 24.888 127.635 24.8304 127.884 24.7182C128.132 24.6061 128.354 24.4421 128.534 24.2374C128.713 24.0325 128.848 23.7916 128.927 23.5309C129.005 23.27 129.029 22.9952 128.993 22.725V16.25H132.743L132.693 27.725ZM134.505 16.25H138.13V18.4625H138.205C138.404 17.7544 138.833 17.1321 139.423 16.6934C140.013 16.2546 140.733 16.0239 141.468 16.0375C142.217 15.9776 142.959 16.2015 143.55 16.6647C144.14 17.128 144.535 17.7965 144.655 18.5375H144.73C144.957 17.7886 145.427 17.1366 146.065 16.684C146.703 16.2314 147.474 16.0039 148.255 16.0375C148.765 16.0204 149.273 16.1107 149.745 16.3027C150.219 16.4946 150.645 16.784 150.999 17.1517C151.353 17.5196 151.625 17.9577 151.799 18.4376C151.972 18.9175 152.043 19.4286 152.005 19.9375V27.75H148.255V20.9375C148.255 19.6875 147.693 19.1125 146.643 19.1125C146.409 19.1105 146.177 19.1587 145.963 19.254C145.749 19.3492 145.558 19.4892 145.403 19.6646C145.248 19.84 145.132 20.0465 145.063 20.2704C144.994 20.4944 144.975 20.7304 145.005 20.9625V27.75H141.443V20.8875C141.443 19.7375 140.88 19.1125 139.855 19.1125C139.619 19.1126 139.384 19.1629 139.169 19.26C138.953 19.3572 138.759 19.4991 138.603 19.6762C138.445 19.8534 138.328 20.0619 138.257 20.288C138.187 20.514 138.164 20.7524 138.193 20.9875V27.75H134.443L134.505 16.25Z" fill="#666666"/>
<path d="M36.058 13.275C35.4219 11.8204 34.58 10.4649 33.558 9.24999C32.0474 7.40041 30.1621 5.89172 28.0264 4.82324C25.8906 3.75476 23.5528 3.1507 21.1668 3.05081C18.7808 2.95093 16.4006 3.35747 14.183 4.24372C11.9655 5.12996 9.96072 6.4758 8.30075 8.19265C6.64078 9.90949 5.36322 11.9584 4.55215 14.2046C3.74109 16.4507 3.4149 18.8432 3.59508 21.2245C3.77527 23.6059 4.4577 25.922 5.5975 28.0205C6.7373 30.1191 8.30862 31.9525 10.208 33.4C11.4268 34.3474 12.7735 35.1175 14.208 35.6875C16.2193 36.5117 18.3719 36.9362 20.5455 36.9375C25.0323 36.9276 29.332 35.1391 32.5024 31.9641C35.6726 28.7891 37.4548 24.4867 37.458 20C37.4613 17.6856 36.9846 15.3957 36.058 13.275ZM20.533 6.48747C22.485 6.48727 24.4134 6.9139 26.183 7.73747C25.7515 7.92394 25.2978 8.05417 24.833 8.12499C23.3038 8.34635 21.8871 9.05632 20.7945 10.1489C19.7019 11.2416 18.9919 12.6582 18.7705 14.1875C18.6734 15.0451 18.2833 15.843 17.6661 16.4465C17.049 17.05 16.2426 17.422 15.383 17.5C13.8538 17.7214 12.4371 18.4314 11.3445 19.524C10.2519 20.6166 9.54188 22.0332 9.32052 23.5625C9.24557 24.378 8.89763 25.1444 8.33302 25.7375C7.35883 23.6791 6.9212 21.4076 7.06085 19.1346C7.2005 16.8616 7.91289 14.6609 9.13173 12.7371C10.3506 10.8135 12.0362 9.22937 14.0319 8.13229C16.0275 7.0352 18.2683 6.46079 20.5455 6.46247L20.533 6.48747ZM10.1955 28.75C10.3455 28.6125 10.4955 28.4875 10.6455 28.3375C11.7576 27.2594 12.4714 25.8361 12.6705 24.3C12.7512 23.4365 13.1368 22.63 13.758 22.025C14.3559 21.4027 15.1605 21.0204 16.0205 20.95C17.5498 20.7286 18.9664 20.0186 20.059 18.926C21.1516 17.8334 21.8616 16.4167 22.083 14.8875C22.1371 13.9844 22.5246 13.1335 23.1705 12.5C23.7831 11.8898 24.5954 11.5214 25.458 11.4625C26.8629 11.2692 28.1731 10.6446 29.208 9.67499C30.3864 10.6526 31.3846 11.8286 32.158 13.15C32.1105 13.2141 32.056 13.2729 31.9955 13.325C31.3989 13.9527 30.5953 14.3435 29.733 14.425C28.2021 14.6425 26.7834 15.3512 25.69 16.4445C24.5968 17.5379 23.888 18.9566 23.6705 20.4875C23.5824 21.348 23.1995 22.1516 22.5868 22.7621C21.9739 23.3727 21.1689 23.7526 20.308 23.8375C18.7743 24.0571 17.3524 24.7657 16.2534 25.8579C15.1545 26.9501 14.4371 28.3676 14.208 29.9C14.1408 30.5109 13.9309 31.0975 13.5955 31.6125C12.313 30.851 11.1644 29.884 10.1955 28.75ZM20.533 33.575C19.2646 33.5764 18.0023 33.3996 16.783 33.05C17.2001 32.2725 17.4713 31.4251 17.583 30.55C17.6706 29.6914 18.0518 28.8892 18.662 28.279C19.2723 27.6687 20.0744 27.2876 20.933 27.2C22.4645 26.9811 23.884 26.2722 24.9791 25.1794C26.0741 24.0866 26.786 22.6685 27.008 21.1375C27.0956 20.2789 27.4768 19.4767 28.087 18.8665C28.6973 18.2562 29.4994 17.8751 30.358 17.7875C31.5105 17.6376 32.609 17.2085 33.558 16.5375C34.085 18.5349 34.1474 20.6264 33.7405 22.6516C33.3336 24.6769 32.4681 26.5821 31.2106 28.221C29.9531 29.8597 28.337 31.1889 26.486 32.1061C24.6351 33.0234 22.5988 33.5045 20.533 33.5125V33.575Z" fill="#666666"/>
</svg>
