<svg width="188" height="40" viewBox="0 0 188 40" fill="none" xmlns="http://www.w3.org/2000/svg">
<path d="M30.7853 17.828C30.28 18.3364 29.893 18.95 29.652 19.6249C29.4109 20.3 29.3217 21.0199 29.3906 21.7333L29.3666 21.7093C29.4376 22.5492 29.3242 23.3943 29.0348 24.1859C28.7453 24.9773 28.2866 25.6961 27.6908 26.2921C27.0948 26.888 26.376 27.3468 25.5844 27.6361C24.7929 27.9256 23.9477 28.0389 23.108 27.968L23.132 27.992C22.1274 27.8985 21.1185 28.1171 20.2426 28.618C19.3669 29.1189 18.6669 29.8777 18.2382 30.7911C17.8096 31.7044 17.6729 32.7276 17.847 33.7215C18.0213 34.7152 18.4977 35.6311 19.2114 36.3441C19.9252 37.0572 20.8414 37.5328 21.8353 37.706C22.8293 37.8793 23.8524 37.7417 24.7653 37.3123C25.6782 36.8827 26.4364 36.1821 26.9365 35.3059C27.4366 34.4296 27.6544 33.4205 27.56 32.416L27.5853 32.44C27.5144 31.6003 27.6276 30.7551 27.917 29.9635C28.2065 29.172 28.6653 28.4532 29.2612 27.8572C29.8572 27.2613 30.576 26.8025 31.3674 26.5132C32.159 26.2237 33.0041 26.1104 33.844 26.1813L33.8186 26.1573C34.6392 26.2311 35.4652 26.0965 36.22 25.7661C36.9746 25.4357 37.6338 24.9201 38.1362 24.2672C38.6386 23.6143 38.9682 22.8449 39.0941 22.0308C39.2201 21.2165 39.1385 20.3837 38.8569 19.6093C38.5753 18.8351 38.1028 18.1444 37.4832 17.6013C36.8636 17.0583 36.1169 16.6804 35.3124 16.5028C34.5078 16.3252 33.6714 16.3535 32.8808 16.5851C32.0901 16.8168 31.3708 17.2443 30.7893 17.828H30.7853Z" fill="#666666"/>
<path d="M20.9494 24.848L20.9241 24.824C21.6378 24.8958 22.3586 24.8082 23.0345 24.5674C23.7102 24.3266 24.3241 23.9388 24.8316 23.4317C25.3389 22.9246 25.7274 22.311 25.9686 21.6354C26.21 20.9598 26.2981 20.2392 26.2268 19.5253L26.2521 19.5493C26.1812 18.7094 26.2945 17.8644 26.5838 17.0728C26.8733 16.2813 27.3321 15.5625 27.928 14.9665C28.524 14.3706 29.2428 13.9118 30.0342 13.6225C30.8258 13.333 31.6709 13.2197 32.5108 13.2906L32.4854 13.2666C33.4901 13.361 34.4993 13.1431 35.3756 12.6428C36.252 12.1424 36.9525 11.3839 37.3818 10.4708C37.8112 9.55761 37.9484 8.53423 37.7748 7.54022C37.6012 6.54621 37.1252 5.62997 36.4116 4.91645C35.6981 4.20294 34.7818 3.72689 33.7878 3.55326C32.7938 3.37962 31.7705 3.51683 30.8573 3.94619C29.9441 4.37554 29.1857 5.07614 28.6853 5.95242C28.1849 6.82869 27.967 7.83798 28.0614 8.84262L28.0374 8.81729C28.1085 9.65714 27.9954 10.5024 27.7061 11.294C27.4168 12.0856 26.958 12.8046 26.3621 13.4006C25.7661 13.9965 25.0472 14.4553 24.2556 14.7446C23.4638 15.034 22.6186 15.147 21.7788 15.076L21.8028 15.1013C21.089 15.0294 20.3681 15.117 19.6924 15.3578C19.0166 15.5985 18.4028 15.9865 17.8953 16.4936C17.3878 17.0006 16.9994 17.6142 16.7581 18.2898C16.5169 18.9654 16.4288 19.6861 16.5001 20.4L16.4761 20.376C16.5468 21.2157 16.4333 22.0608 16.1438 22.8522C15.8542 23.6436 15.3956 24.3624 14.7997 24.9582C14.2038 25.5541 13.4851 26.0128 12.6936 26.3024C11.9022 26.5918 11.0572 26.7053 10.2174 26.6346L10.2414 26.6586C9.2368 26.5642 8.2275 26.7821 7.35122 27.2825C6.47495 27.7829 5.77436 28.5413 5.34501 29.4545C4.91565 30.3677 4.77842 31.391 4.95206 32.385C5.1257 33.379 5.60176 34.2953 6.31526 35.0088C7.02878 35.7224 7.94502 36.1984 8.93904 36.372C9.93305 36.5456 10.9564 36.4084 11.8696 35.979C12.7827 35.5497 13.5412 34.8492 14.0416 33.9729C14.542 33.0965 14.7598 32.0873 14.6654 31.0826L14.6908 31.1066C14.6198 30.2668 14.7332 29.4217 15.0226 28.6301C15.312 27.8386 15.7708 27.1198 16.3666 26.5238C16.9626 25.928 17.6814 25.4692 18.4729 25.1798C19.2645 24.8904 20.1096 24.777 20.9494 24.848Z" fill="#666666"/>
<path d="M12.0161 22.172C12.5215 21.6637 12.9084 21.0501 13.1492 20.375C13.3901 19.7 13.4789 18.98 13.4094 18.2666L13.4348 18.2906C13.3638 17.4506 13.4771 16.6052 13.7667 15.8134C14.0563 15.0217 14.5153 14.3028 15.1116 13.7068C15.7078 13.1108 16.4269 12.6521 17.2188 12.3629C18.0106 12.0736 18.8561 11.9607 19.6961 12.032L19.6708 12.008C20.675 12.1021 21.684 11.8841 22.5598 11.3837C23.4357 10.8834 24.1358 10.1251 24.565 9.21227C24.9941 8.29939 25.1312 7.27639 24.9576 6.28275C24.784 5.28911 24.308 4.37321 23.5948 3.65996C22.8816 2.94671 21.9656 2.47081 20.972 2.29719C19.9784 2.12355 18.9553 2.26064 18.0425 2.68973C17.1296 3.11883 16.3713 3.81905 15.871 4.69492C15.3706 5.57079 15.1526 6.57967 15.2468 7.58396L15.2228 7.55996C15.2937 8.39976 15.1804 9.24492 14.8909 10.0364C14.6014 10.828 14.1428 11.5468 13.5469 12.1427C12.9509 12.7387 12.2321 13.1974 11.4406 13.4868C10.6491 13.7762 9.80392 13.8896 8.96412 13.8186L8.98811 13.8426C8.16754 13.769 7.34166 13.9038 6.58702 14.2344C5.83238 14.5649 5.17338 15.0806 4.6711 15.7337C4.16882 16.3866 3.83952 17.156 3.71368 17.9701C3.58785 18.7844 3.66957 19.6172 3.95126 20.3913C4.23296 21.1656 4.70553 21.8561 5.32517 22.399C5.94481 22.9421 6.69148 23.3198 7.49598 23.4974C8.30048 23.6749 9.13678 23.6465 9.92741 23.4149C10.718 23.1832 11.4374 22.7557 12.0188 22.172H12.0161Z" fill="#666666"/>
<path d="M53.3164 8.87329H57.2764V28.144H53.3164V8.87329Z" fill="#666666"/>
<path d="M59.5197 21.5453C59.5143 20.1605 59.9199 18.8051 60.6852 17.6509C61.4505 16.4968 62.5412 15.5957 63.8191 15.062C65.0969 14.5281 66.5044 14.3856 67.8633 14.6524C69.2222 14.9192 70.4715 15.5832 71.4527 16.5605C72.4339 17.5377 73.1029 18.7843 73.3752 20.1421C73.6474 21.5 73.5105 22.9081 72.9819 24.1881C72.4532 25.468 71.5565 26.5624 70.4055 27.3323C69.2543 28.1023 67.9007 28.5133 66.5157 28.5133C65.5965 28.5239 64.6844 28.3509 63.8327 28.0048C62.9809 27.6587 62.2068 27.1463 61.5555 26.4976C60.904 25.8488 60.3885 25.0767 60.0391 24.2264C59.6895 23.3761 59.5129 22.4647 59.5197 21.5453ZM69.5517 21.5453C69.5352 20.9484 69.3431 20.3696 68.9995 19.8812C68.6557 19.3929 68.1757 19.0167 67.6195 18.7997C67.0631 18.5827 66.4552 18.5344 65.8716 18.6611C65.288 18.7877 64.7547 19.0835 64.3383 19.5116C63.922 19.9396 63.6409 20.4809 63.5307 21.0679C63.4203 21.6547 63.4852 22.2611 63.7176 22.8112C63.95 23.3613 64.3393 23.8307 64.8369 24.1607C65.3347 24.4907 65.9187 24.6667 66.5157 24.6667C66.9247 24.6776 67.3314 24.6036 67.7105 24.4495C68.0894 24.2953 68.4324 24.0644 68.7176 23.7712C69.0028 23.4779 69.2242 23.1287 69.3677 22.7456C69.5113 22.3625 69.574 21.9539 69.5517 21.5453Z" fill="#666666"/>
<path d="M89.2957 14.9454V27.4787C89.2957 31.9134 85.837 33.788 82.3264 33.788C81.0904 33.8806 79.8526 33.6308 78.749 33.0664C77.6456 32.5019 76.7188 31.6444 76.0704 30.588L79.449 28.6347C79.7216 29.1854 80.1558 29.6396 80.6936 29.9368C81.2314 30.2339 81.8472 30.3598 82.4584 30.2974C82.849 30.3515 83.2469 30.3171 83.6225 30.1967C83.998 30.0763 84.3417 29.873 84.6281 29.6019C84.9145 29.3307 85.1362 28.9987 85.277 28.6302C85.4177 28.2618 85.4737 27.8664 85.441 27.4734V26.2667C84.9773 26.834 84.3872 27.2848 83.7177 27.5828C83.0482 27.8808 82.3184 28.0178 81.5864 27.9827C79.8448 27.9278 78.1929 27.1974 76.9804 25.9459C75.7678 24.6946 75.0898 23.0204 75.0898 21.278C75.0898 19.5356 75.7678 17.8615 76.9804 16.6102C78.1929 15.3587 79.8448 14.6283 81.5864 14.5734C82.3184 14.5383 83.0482 14.6752 83.7177 14.9732C84.3872 15.2712 84.9773 15.722 85.441 16.2894V14.9427L89.2957 14.9454ZM85.4424 21.28C85.469 20.6419 85.304 20.0103 84.9686 19.4667C84.6333 18.923 84.1429 18.4922 83.5606 18.2296C82.9784 17.967 82.3309 17.8847 81.7014 17.9932C81.072 18.1018 80.4894 18.3962 80.0286 18.8387C79.568 19.2811 79.2502 19.8512 79.1162 20.4758C78.9824 21.1003 79.0384 21.7507 79.2773 22.3431C79.5161 22.9355 79.9268 23.443 80.4564 23.8C80.986 24.1571 81.6104 24.3475 82.249 24.3467C82.6652 24.3758 83.0826 24.3174 83.4748 24.1752C83.8669 24.0331 84.2249 23.8103 84.5257 23.5215C84.8265 23.2326 85.0636 22.8839 85.2214 22.4978C85.3793 22.1118 85.4546 21.697 85.4424 21.28Z" fill="#666666"/>
<path d="M91.5353 21.5453C91.5299 20.1605 91.9353 18.8051 92.7008 17.6509C93.4661 16.4968 94.5568 15.5957 95.8347 15.062C97.1125 14.5281 98.52 14.3856 99.8789 14.6524C101.238 14.9192 102.487 15.5832 103.468 16.5605C104.449 17.5377 105.119 18.7843 105.391 20.1421C105.663 21.5 105.526 22.9081 104.997 24.1881C104.469 25.468 103.572 26.5624 102.421 27.3323C101.27 28.1023 99.9163 28.5133 98.5313 28.5133C97.6121 28.5239 96.6999 28.3509 95.8483 28.0048C94.9965 27.6587 94.2224 27.1463 93.5711 26.4976C92.9196 25.8488 92.4041 25.0767 92.0547 24.2264C91.7051 23.3761 91.5285 22.4647 91.5353 21.5453ZM101.567 21.5453C101.551 20.9484 101.359 20.3696 101.015 19.8812C100.671 19.3929 100.191 19.0167 99.6351 18.7997C99.0787 18.5827 98.4707 18.5344 97.8872 18.6611C97.3036 18.7877 96.7703 19.0835 96.3539 19.5116C95.9376 19.9396 95.6565 20.4809 95.5461 21.0679C95.4357 21.6547 95.5008 22.2611 95.7332 22.8112C95.9656 23.3613 96.3549 23.8307 96.8525 24.1607C97.3503 24.4907 97.9341 24.6667 98.5313 24.6667C98.9403 24.6776 99.3471 24.6036 99.726 24.4495C100.105 24.2953 100.448 24.0644 100.733 23.7712C101.018 23.4779 101.24 23.1287 101.383 22.7456C101.527 22.3625 101.59 21.9539 101.567 21.5453Z" fill="#666666"/>
<path d="M107.375 11.408C107.375 10.9381 107.514 10.4787 107.775 10.088C108.036 9.69723 108.408 9.39268 108.842 9.21285C109.276 9.03301 109.754 8.98596 110.215 9.07764C110.675 9.16932 111.099 9.39561 111.431 9.72791C111.763 10.0602 111.99 10.4835 112.081 10.9445C112.173 11.4053 112.126 11.8831 111.946 12.3172C111.766 12.7514 111.462 13.1225 111.071 13.3836C110.68 13.6447 110.221 13.784 109.751 13.784C109.123 13.7777 108.522 13.5255 108.078 13.0812C107.634 12.6369 107.381 12.0362 107.375 11.408ZM107.775 14.9453H111.736V28.1453H107.77L107.775 14.9453Z" fill="#666666"/>
<path d="M128.834 21.5453C128.88 22.4177 128.753 23.2905 128.46 24.1136C128.167 24.9366 127.715 25.6937 127.128 26.3413C126.542 26.9888 125.833 27.5141 125.043 27.8869C124.253 28.2596 123.397 28.4725 122.525 28.5133C121.791 28.5533 121.057 28.4296 120.377 28.151C119.697 27.8724 119.088 27.446 118.593 26.9026V33.424H114.633V14.9453H118.593V16.1853C119.088 15.6424 119.698 15.2162 120.378 14.938C121.058 14.6596 121.791 14.536 122.525 14.576C123.398 14.6166 124.254 14.8294 125.044 15.2022C125.834 15.575 126.543 16.1004 127.129 16.7481C127.716 17.3958 128.168 18.1532 128.461 18.9765C128.753 19.7997 128.88 20.6728 128.834 21.5453ZM124.874 21.5453C124.859 20.9276 124.661 20.3281 124.307 19.8218C123.952 19.3157 123.456 18.9253 122.881 18.6997C122.306 18.474 121.677 18.4229 121.073 18.553C120.469 18.683 119.916 18.9884 119.485 19.4308C119.053 19.8733 118.762 20.433 118.647 21.0404C118.532 21.6476 118.599 22.275 118.839 22.8445C119.079 23.414 119.482 23.8998 119.997 24.2416C120.512 24.5832 121.116 24.7654 121.734 24.7653C122.158 24.7842 122.582 24.7132 122.977 24.5569C123.372 24.4008 123.729 24.1628 124.025 23.8588C124.322 23.5546 124.551 23.1914 124.697 22.7928C124.843 22.3941 124.904 21.9689 124.874 21.5453Z" fill="#666666"/>
<path d="M141.056 24.184C141.056 27.22 138.417 28.5133 135.567 28.5133C134.415 28.6176 133.258 28.3741 132.246 27.814C131.234 27.254 130.414 26.4033 129.891 25.372L133.321 23.4187C133.46 23.8953 133.758 24.3101 134.166 24.5935C134.573 24.8769 135.067 25.012 135.561 24.976C136.511 24.976 136.987 24.6853 136.987 24.1587C136.987 22.7053 130.492 23.472 130.492 18.9053C130.492 16.0267 132.921 14.576 135.667 14.576C136.699 14.5433 137.72 14.7881 138.625 15.2848C139.531 15.7816 140.287 16.512 140.813 17.4L137.435 19.2213C137.287 18.8756 137.04 18.5811 136.725 18.3745C136.411 18.168 136.043 18.0587 135.667 18.06C134.98 18.06 134.557 18.3267 134.557 18.7987C134.563 20.304 141.056 19.3 141.056 24.184Z" fill="#666666"/>
<path d="M155.522 14.9453V28.1453H151.562V26.904C151.105 27.4517 150.525 27.8833 149.869 28.1633C149.213 28.4433 148.501 28.5637 147.789 28.5146C145.122 28.5146 142.855 26.6146 142.855 23.048V14.9453H146.815V22.468C146.782 22.7824 146.818 23.1002 146.921 23.3993C147.022 23.6985 147.189 23.9718 147.407 24.2002C147.626 24.4286 147.891 24.6066 148.186 24.722C148.479 24.8373 148.795 24.8872 149.111 24.868C150.563 24.868 151.566 24.024 151.566 22.1493V14.9493L155.522 14.9453Z" fill="#666666"/>
<path d="M178.228 20.04V28.144H174.268V20.3826C174.268 19.0626 173.635 18.2186 172.368 18.2186C171.048 18.2186 170.308 19.1426 170.308 20.7V28.144H166.35V20.3826C166.35 19.0626 165.716 18.2186 164.448 18.2186C163.128 18.2186 162.39 19.1426 162.39 20.7V28.144H158.43V14.944H162.39V16.1573C162.8 15.619 163.339 15.1921 163.956 14.9157C164.575 14.6392 165.252 14.522 165.927 14.5746C166.604 14.5414 167.279 14.6845 167.886 14.9897C168.491 15.2948 169.007 15.7518 169.384 16.316C169.823 15.7257 170.404 15.2564 171.074 14.9518C171.743 14.6473 172.479 14.5176 173.212 14.5746C176.243 14.576 178.228 16.74 178.228 20.04Z" fill="#666666"/>
<path d="M181.575 14.864C183.198 14.864 184.514 13.5483 184.514 11.9254C184.514 10.3024 183.198 8.98669 181.575 8.98669C179.953 8.98669 178.637 10.3024 178.637 11.9254C178.637 13.5483 179.953 14.864 181.575 14.864Z" fill="#666666"/>
</svg>
