<svg width="158" height="40" viewBox="0 0 158 40" fill="none" xmlns="http://www.w3.org/2000/svg">
<path d="M18.5264 7.82349V2.82349H2.76172V37.1764H18.5264V32.1764C15.297 32.1764 12.1998 30.8935 9.91635 28.61C7.63282 26.3264 6.34995 23.2294 6.34995 20C6.34995 16.7706 7.63282 13.6734 9.91635 11.3899C12.1998 9.10637 15.297 7.82349 18.5264 7.82349Z" fill="#666666"/>
<path d="M18.5273 7.82349V32.1764C21.7568 32.1764 24.8539 30.8935 27.1375 28.61C29.421 26.3264 30.7038 23.2294 30.7038 20C30.7038 16.7706 29.421 13.6734 27.1375 11.3899C24.8539 9.10637 21.7568 7.82349 18.5273 7.82349Z" fill="#666666"/>
<path d="M39.5508 10.8823H43.0802V27.8823H39.5508V10.8823Z" fill="#666666"/>
<path d="M45.0591 22.0588C45.0591 20.8357 45.4223 19.6402 46.1026 18.6237C46.7828 17.6073 47.7495 16.8156 48.8802 16.3491C50.0109 15.8828 51.2546 15.7626 52.4536 16.0037C53.6527 16.2449 54.7531 16.8367 55.6155 17.704C56.4779 18.5714 57.0634 19.6751 57.2977 20.8756C57.532 22.0761 57.4047 23.319 56.9317 24.447C56.4588 25.5749 55.6617 26.5371 54.6414 27.2115C53.621 27.886 52.4234 28.2422 51.2003 28.2353C50.3892 28.2416 49.5848 28.086 48.8346 27.7773C48.0843 27.4687 47.4031 27.0134 46.8311 26.4382C46.2591 25.8629 45.8079 25.1791 45.5035 24.4271C45.1993 23.6751 45.0482 22.87 45.0591 22.0588ZM53.9062 22.0588C53.8923 21.5315 53.7233 21.02 53.4202 20.5883C53.1171 20.1565 52.6936 19.8237 52.2023 19.6315C51.7112 19.4393 51.1742 19.3961 50.6587 19.5075C50.143 19.6188 49.6717 19.8796 49.3036 20.2575C48.9355 20.6353 48.6869 21.1131 48.589 21.6315C48.4911 22.1498 48.5482 22.6855 48.7531 23.1715C48.9581 23.6575 49.3017 24.0724 49.7413 24.3641C50.1807 24.6558 50.6963 24.8115 51.2239 24.8117C51.583 24.8188 51.9397 24.7516 52.2717 24.6144C52.6037 24.4774 52.9039 24.2733 53.1534 24.0149C53.4029 23.7566 53.5964 23.4494 53.722 23.1129C53.8475 22.7763 53.9022 22.4175 53.8827 22.0588H53.9062Z" fill="#666666"/>
<path d="M71.3035 16.2353V27.3058C71.3035 31.2117 68.2446 32.8706 65.1505 32.8706C64.0591 32.9601 62.9644 32.7433 61.9897 32.2444C61.0149 31.7456 60.1986 30.9846 59.6329 30.047L62.6093 28.3294C62.8505 28.8157 63.2342 29.2169 63.7092 29.4796C64.1843 29.7423 64.728 29.8541 65.2682 29.8C65.6123 29.8423 65.9614 29.8082 66.2907 29.7C66.6202 29.5916 66.9214 29.412 67.1732 29.1736C67.4251 28.9353 67.6211 28.6443 67.7473 28.3214C67.8736 27.9986 67.9269 27.6517 67.9034 27.3058V26.2353C67.4927 26.7333 66.9716 27.1286 66.3814 27.39C65.7912 27.6514 65.1483 27.7716 64.5034 27.7411C62.9433 27.7411 61.4472 27.1214 60.344 26.0182C59.2409 24.9151 58.6211 23.4189 58.6211 21.8588C58.6211 20.2987 59.2409 18.8026 60.344 17.6994C61.4472 16.5962 62.9433 15.9764 64.5034 15.9764C65.1483 15.946 65.7912 16.0662 66.3814 16.3276C66.9716 16.589 67.4927 16.9843 67.9034 17.4823V16.3058L71.3035 16.2353ZM67.9034 21.8235C67.9269 21.2607 67.7814 20.7036 67.4858 20.2241C67.1902 19.7446 66.7579 19.3644 66.2444 19.1325C65.731 18.9007 65.16 18.8277 64.6047 18.923C64.0496 19.0183 63.5354 19.2775 63.1287 19.6673C62.722 20.057 62.4412 20.5596 62.3224 21.1103C62.2036 21.661 62.2522 22.2345 62.4619 22.7574C62.6718 23.2802 63.0332 23.7283 63.4997 24.0441C63.9663 24.3598 64.5166 24.5289 65.0799 24.5294C65.4476 24.5558 65.8166 24.5049 66.1632 24.38C66.5099 24.2549 66.8266 24.0585 67.0926 23.8035C67.3587 23.5486 67.5684 23.2405 67.708 22.8995C67.8477 22.5584 67.9143 22.1918 67.9034 21.8235Z" fill="#666666"/>
<path d="M73.2934 22.0588C73.2934 20.8367 73.656 19.6421 74.3351 18.6261C75.0143 17.6101 75.9796 16.8185 77.1089 16.3514C78.2382 15.8842 79.4807 15.7626 80.6791 16.0019C81.8776 16.2412 82.9781 16.8306 83.8415 17.6955C84.7048 18.5606 85.2921 19.6622 85.529 20.8611C85.7661 22.06 85.6421 23.3022 85.1728 24.4306C84.7035 25.5591 83.91 26.5228 82.8928 27.2001C81.8755 27.8774 80.6802 28.2376 79.4581 28.2353C78.6454 28.2432 77.8391 28.0887 77.0869 27.7809C76.3347 27.4732 75.6514 27.0183 75.0773 26.4431C74.503 25.8678 74.0495 25.1836 73.7431 24.4308C73.4369 23.678 73.284 22.8715 73.2934 22.0588ZM82.1404 22.0588C82.1266 21.5311 81.9571 21.0191 81.6536 20.5871C81.3501 20.1552 80.9257 19.8223 80.4338 19.6305C79.942 19.4386 79.4044 19.3961 78.8886 19.5085C78.3727 19.6207 77.9014 19.8828 77.5337 20.2618C77.1661 20.6407 76.9184 21.1198 76.822 21.6388C76.7254 22.1579 76.7841 22.6939 76.9908 23.1796C77.1975 23.6655 77.543 24.0795 77.9841 24.3699C78.425 24.6601 78.9418 24.8139 79.4698 24.8118C79.829 24.8188 80.1857 24.7516 80.5177 24.6145C80.8497 24.4774 81.1498 24.2733 81.3994 24.0149C81.6489 23.7566 81.8424 23.4494 81.968 23.1129C82.0935 22.7763 82.1482 22.4175 82.1287 22.0588H82.1404Z" fill="#666666"/>
<path d="M87.2578 13.1177C87.2578 12.7036 87.3806 12.2986 87.6107 11.9543C87.8409 11.6099 88.1679 11.3415 88.5505 11.183C88.9332 11.0245 89.3543 10.983 89.7605 11.0638C90.1666 11.1446 90.5398 11.344 90.8327 11.6369C91.1256 11.9298 91.325 12.303 91.4058 12.7091C91.4866 13.1153 91.4451 13.5364 91.2866 13.9191C91.1282 14.3017 90.8597 14.6287 90.5153 14.8589C90.171 15.089 89.7662 15.2118 89.3519 15.2118C88.7984 15.2057 88.2693 14.9831 87.8779 14.5917C87.4865 14.2003 87.2639 13.6712 87.2578 13.1177ZM87.599 16.2353H91.1284V27.8824H87.599V16.2353Z" fill="#666666"/>
<path d="M106.233 22.0589C106.273 22.8335 106.159 23.6083 105.898 24.3386C105.637 25.069 105.234 25.7405 104.712 26.3145C104.19 26.8886 103.561 27.3538 102.858 27.6835C102.156 28.0131 101.396 28.2006 100.621 28.2354C99.9638 28.2791 99.3048 28.1738 98.6938 27.9274C98.0826 27.6808 97.5351 27.2995 97.0919 26.8118V32.5648H93.5625V16.2354H97.0919V17.3295C97.5357 16.8432 98.0837 16.4637 98.6948 16.2192C99.306 15.9746 99.9646 15.8716 100.621 15.9177C101.393 15.9524 102.15 16.1389 102.85 16.4663C103.55 16.7937 104.178 17.2558 104.699 17.8261C105.22 18.3963 105.624 19.0636 105.887 19.7899C106.15 20.5162 106.268 21.2871 106.233 22.0589ZM102.704 22.0589C102.69 21.5124 102.515 20.9823 102.201 20.5349C101.887 20.0875 101.448 19.7425 100.939 19.5436C100.43 19.3445 99.8734 19.3003 99.3392 19.4162C98.8051 19.5321 98.3171 19.8031 97.9363 20.1952C97.5554 20.5874 97.2989 21.0831 97.1987 21.6205C97.0985 22.1578 97.1591 22.7128 97.373 23.2158C97.5869 23.7188 97.9444 24.1475 98.4008 24.4482C98.8573 24.7489 99.3924 24.9081 99.939 24.9059C100.313 24.9218 100.687 24.8584 101.035 24.7198C101.383 24.5812 101.698 24.3706 101.959 24.1018C102.22 23.833 102.421 23.5119 102.55 23.1599C102.678 22.8078 102.73 22.4326 102.704 22.0589Z" fill="#666666"/>
<path d="M116.976 24.3882C116.976 27.0705 114.623 28.2117 112.129 28.2117C111.112 28.3032 110.09 28.0876 109.197 27.5927C108.304 27.0977 107.579 26.3462 107.117 25.4352L110.152 23.7176C110.273 24.1374 110.533 24.5031 110.891 24.7537C111.249 25.0043 111.682 25.1244 112.117 25.0941C112.952 25.0941 113.376 24.8352 113.376 24.3647C113.376 23.0823 107.647 23.7647 107.647 19.7294C107.647 17.1882 109.788 15.9176 112.211 15.9176C113.132 15.8763 114.048 16.0854 114.86 16.5224C115.672 16.9595 116.35 17.6083 116.823 18.4L113.788 19.9999C113.654 19.6964 113.435 19.4383 113.157 19.2567C112.879 19.075 112.555 18.9777 112.223 18.9764C111.611 18.9764 111.247 19.2117 111.247 19.6235C111.247 20.9647 116.976 20.0823 116.976 24.3882Z" fill="#666666"/>
<path d="M129.763 16.2354V27.8824H126.233V26.7883C125.832 27.2726 125.323 27.6558 124.747 27.9072C124.171 28.1586 123.544 28.271 122.915 28.2354C120.563 28.2354 118.551 26.553 118.551 23.4118V16.2354H122.08V22.8824C122.052 23.1603 122.085 23.4409 122.177 23.7049C122.268 23.9688 122.415 24.2097 122.608 24.4111C122.803 24.6124 123.038 24.7694 123.298 24.8711C123.558 24.9728 123.837 25.0168 124.115 25.0001C125.386 25.0001 126.28 24.2471 126.28 22.6471V16.2354H129.763Z" fill="#666666"/>
<path d="M149.764 20.7294V27.8823H146.235V21.0353C146.235 19.8588 145.682 19.1294 144.564 19.1294C143.446 19.1294 142.74 19.9411 142.74 21.3176V27.8823H139.211V21.0353C139.211 19.8588 138.658 19.1294 137.54 19.1294C136.423 19.1294 135.717 19.9411 135.717 21.3176V27.8823H132.188V16.2353H135.717V17.3058C136.083 16.8329 136.559 16.4583 137.106 16.216C137.652 15.9736 138.251 15.871 138.846 15.9176C139.443 15.8864 140.038 16.0111 140.572 16.2793C141.106 16.5474 141.562 16.9498 141.893 17.447C142.282 16.9275 142.795 16.5148 143.385 16.2474C143.975 15.9798 144.624 15.8664 145.27 15.9176C148.023 15.9176 149.764 17.8235 149.764 20.7294Z" fill="#666666"/>
<path d="M152.729 16.1648C154.158 16.1648 155.317 15.0059 155.317 13.5765C155.317 12.1471 154.158 10.9883 152.729 10.9883C151.299 10.9883 150.141 12.1471 150.141 13.5765C150.141 15.0059 151.299 16.1648 152.729 16.1648Z" fill="#666666"/>
</svg>
