<svg width="252" height="24" viewBox="0 0 252 24" fill="none" xmlns="http://www.w3.org/2000/svg">
<path d="M125.484 23.5773H116.861V0.523829H125.484V23.5773ZM117.703 22.7352H124.642V1.36593H117.703V22.7352ZM137.482 23.5773H129.033V0.523829H146.686C149.216 0.319029 151.734 1.02904 153.784 2.52467C154.666 3.33193 155.35 4.33215 155.782 5.44727C156.214 6.5624 156.383 7.76228 156.275 8.9533C156.401 11.0114 155.746 13.0412 154.441 14.6375C152.896 16.4093 150.326 17.3221 146.803 17.3541C145.915 17.3777 139.264 17.3541 137.487 17.3541L137.482 23.5773ZM129.87 22.7352H136.64V16.5036H137.063C137.149 16.5036 145.784 16.5306 146.783 16.5036C150.065 16.475 152.425 15.6615 153.804 14.0733C154.966 12.629 155.543 10.8011 155.421 8.95162C155.524 7.88445 155.381 6.80777 155.001 5.80508C154.621 4.80238 154.016 3.90062 153.231 3.16972C151.331 1.80568 149.006 1.1654 146.675 1.36425H129.875L129.87 22.7352ZM144.898 12.1752H136.583V5.89983H144.953C145.547 5.81784 146.151 5.8871 146.711 6.10114C147.27 6.31521 147.766 6.66712 148.153 7.12425C148.505 7.70857 148.67 8.38569 148.628 9.06614C148.66 9.69789 148.523 10.3267 148.233 10.8885C147.833 11.3699 147.317 11.7406 146.733 11.9648C146.149 12.1889 145.517 12.2591 144.898 12.1685V12.1752ZM137.425 11.3331H144.898C146.279 11.3331 147.135 11.0451 147.513 10.4523C147.722 10.0213 147.817 9.54406 147.788 9.06614C147.825 8.56435 147.716 8.06259 147.475 7.62109L147.465 7.60593C147.064 7.01646 146.267 6.74193 144.953 6.74193H137.425V11.3331ZM171.643 23.9175C164.081 23.9175 159.567 22.0396 157.848 18.1777C157.566 17.4318 157.375 16.6549 157.279 15.8636L157.204 15.3786H166.201L166.26 15.7323C166.33 16.0913 166.483 16.4293 166.705 16.7192C167.06 17.1487 168.246 17.8695 172.18 17.8695C176.91 17.8695 176.91 17.0392 176.91 16.5929C176.91 15.84 176.362 15.5824 172.505 15.1714L171.773 15.1024C170.321 14.9659 168.485 14.7925 167.646 14.72C160.573 14.08 157.415 11.8821 157.415 7.59583C157.415 3.09394 162.789 0.185303 171.108 0.185303C177.893 0.185303 182.265 1.97393 184.1 5.50572C184.534 6.32725 184.827 7.21686 184.964 8.13646L185.023 8.60972H176.015L175.978 8.22909C175.943 7.93163 175.817 7.65257 175.615 7.43078C175.278 6.97941 174.213 6.2333 170.909 6.2333C166.852 6.2333 166.292 6.75204 166.292 7.3112C166.292 8.0573 167.574 8.32172 171.682 8.7613C173.395 8.90109 176.148 9.18404 177.092 9.29857C183.022 9.94193 185.668 12.0859 185.668 16.2527C185.669 19.7474 183.236 23.9175 171.643 23.9175ZM158.188 16.2207C158.272 16.7761 158.418 17.3205 158.621 17.8443C160.187 21.3626 164.448 23.0754 171.643 23.0754C177.659 23.0754 184.832 21.8965 184.832 16.2527C184.832 12.5592 182.491 10.7301 177.002 10.1356C176.059 10.0211 173.322 9.73983 171.613 9.59836C167.234 9.12341 165.454 8.87078 165.454 7.3112C165.454 5.69772 167.372 5.3912 170.912 5.3912C173.71 5.3912 175.517 5.89646 176.283 6.91541C176.492 7.16644 176.65 7.45596 176.748 7.76762H184.047C183.901 7.11625 183.668 6.4871 183.357 5.89646C181.673 2.66446 177.558 1.02741 171.111 1.02741C163.305 1.02741 158.26 3.60594 158.26 7.59583C158.26 11.4021 161.092 13.2817 167.724 13.8813C168.566 13.9537 170.4 14.1272 171.855 14.2653L172.593 14.3344C176.175 14.7116 177.755 14.9474 177.755 16.5929C177.755 18.3647 175.712 18.7116 172.184 18.7116C168.92 18.7116 166.858 18.2215 166.062 17.2565C165.816 16.9488 165.631 16.5973 165.516 16.2207H158.188ZM201.668 23.8889C192.876 23.8889 188.025 20.3335 188.025 13.8763V0.523829H196.534V13.8763C196.534 16.091 198.516 17.3609 201.971 17.3609C205.272 17.3609 207.321 16.0354 207.321 13.9049V0.523829H215.742V14.5836C215.751 20.4969 210.616 23.8889 201.663 23.8889H201.668ZM188.868 1.36593V13.8763C188.868 21.856 196.881 23.0468 201.668 23.0468C206.616 23.0468 214.914 21.947 214.914 14.5836V1.36593H208.177V13.9049C208.177 16.5154 205.745 18.203 201.984 18.203C198.053 18.203 195.705 16.5861 195.705 13.8763V1.36593H188.868ZM251.428 23.5773H243.397V13.1689L238.843 23.5773H231.839L227.332 13.1891V23.5773H219.273V0.523829H229.873L235.38 13.2346L241.154 0.523829H251.438L251.428 23.5773ZM244.239 22.7352H250.585V1.36593H241.689L235.353 15.3095L229.314 1.36593H220.108V22.7352H226.483V9.13688L232.377 22.7403H238.272L244.229 9.15709L244.239 22.7352ZM8.19724 0.944882H0.527344V23.1563H21.7214V17.243H8.19724V0.944882ZM37.2027 0.439619C27.4124 0.439619 22.2638 5.07962 22.2638 11.8923C22.2638 19.5891 27.6684 23.4931 37.2027 23.4931C47.6987 23.4931 52.113 18.9659 52.113 11.8923C52.113 4.70909 47.1328 0.43625 37.2027 0.43625V0.439619ZM37.1741 6.21141C37.8405 6.20828 38.5066 6.24708 39.1682 6.32762L30.5939 14.9019C30.1881 13.9842 29.9902 12.988 30.0145 11.9849C30.0145 8.50025 31.7695 6.20804 37.1741 6.20804V6.21141ZM37.2027 17.8123C36.5605 17.8151 35.9188 17.7791 35.281 17.7045L43.8705 9.11499C44.2611 10.0176 44.448 10.9951 44.4179 11.9781C44.4179 15.3685 42.801 17.8089 37.2027 17.8089V17.8123ZM67.3097 14.7807H75.2036C75.0873 15.3285 74.8452 15.8417 74.4962 16.2796C72.8596 17.6128 70.771 18.2616 68.6671 18.0901C67.6081 18.2035 66.5373 18.0878 65.5269 17.7509C64.5166 17.4143 63.5902 16.8642 62.8111 16.1381C62.013 14.9675 61.6339 13.5615 61.7349 12.1483C61.6057 10.6674 62.018 9.18997 62.8953 7.98993C63.9985 6.74362 65.8663 6.20636 68.6116 6.20636C70.3582 6.06173 72.1028 6.51032 73.5631 7.47962C74.0234 7.84523 74.3675 8.33673 74.5535 8.89436H81.8747C81.8215 7.97557 81.6005 7.07428 81.2229 6.23499C79.4697 2.66951 75.3939 0.547408 68.4633 0.547408C62.4356 0.547408 58.3901 2.38657 56.1551 5.16046C54.6791 7.16359 53.9214 9.60583 54.0044 12.0927C53.9089 14.6358 54.6471 17.1404 56.1063 19.2253C58.3143 22.0885 62.2469 23.4965 66.9728 23.4965C70.1147 23.7156 73.2352 22.8356 75.7998 21.0072L75.9985 23.1563H82.0802V9.9992H67.3097V14.7807ZM99.3417 0.434566C89.553 0.434566 84.4027 5.07457 84.4027 11.8872C84.4027 19.584 89.8057 23.488 99.3417 23.488C109.839 23.488 114.254 18.9609 114.254 11.8872C114.254 4.70909 109.273 0.43625 99.3417 0.43625V0.434566ZM99.3147 6.20636C99.9636 6.20444 100.612 6.24156 101.257 6.31751L92.716 14.8632C92.3229 13.9556 92.1316 12.9737 92.1551 11.9849C92.1484 8.50025 93.9101 6.20804 99.3147 6.20804V6.20636ZM99.3417 17.8072C98.6825 17.8101 98.0238 17.7717 97.3695 17.6927L105.988 9.07288C106.393 9.98746 106.587 10.9816 106.555 11.9815C106.559 15.3685 104.948 17.8089 99.3417 17.8089V17.8072Z" fill="#666666"/>
</svg>
