<svg width="113" height="40" viewBox="0 0 113 40" fill="none" xmlns="http://www.w3.org/2000/svg">
<path d="M8 40L0 32H8V40Z" fill="#073762"/>
<path d="M0 8C0 3.58172 3.58172 0 8 0H105C109.418 0 113 3.58172 113 8V24C113 28.4183 109.418 32 105 32H0V8Z" fill="#073762"/>
<path fill-rule="evenodd" clip-rule="evenodd" d="M19.9996 9.6001C20.2118 9.6001 20.4153 9.68438 20.5653 9.83441C20.7153 9.98444 20.7996 10.1879 20.7996 10.4001V11.2001H21.5996C21.8118 11.2001 22.0153 11.2844 22.1653 11.4344C22.3153 11.5844 22.3996 11.7879 22.3996 12.0001C22.3996 12.2123 22.3153 12.4158 22.1653 12.5658C22.0153 12.7158 21.8118 12.8001 21.5996 12.8001H20.7996V13.6001C20.7996 13.8123 20.7153 14.0158 20.5653 14.1658C20.4153 14.3158 20.2118 14.4001 19.9996 14.4001C19.7874 14.4001 19.584 14.3158 19.4339 14.1658C19.2839 14.0158 19.1996 13.8123 19.1996 13.6001V12.8001H18.3996C18.1874 12.8001 17.984 12.7158 17.8339 12.5658C17.6839 12.4158 17.5996 12.2123 17.5996 12.0001C17.5996 11.7879 17.6839 11.5844 17.8339 11.4344C17.984 11.2844 18.1874 11.2001 18.3996 11.2001H19.1996V10.4001C19.1996 10.1879 19.2839 9.98444 19.4339 9.83441C19.584 9.68438 19.7874 9.6001 19.9996 9.6001ZM19.9996 17.6001C20.2118 17.6001 20.4153 17.6844 20.5653 17.8344C20.7153 17.9844 20.7996 18.1879 20.7996 18.4001V19.2001H21.5996C21.8118 19.2001 22.0153 19.2844 22.1653 19.4344C22.3153 19.5844 22.3996 19.7879 22.3996 20.0001C22.3996 20.2123 22.3153 20.4158 22.1653 20.5658C22.0153 20.7158 21.8118 20.8001 21.5996 20.8001H20.7996V21.6001C20.7996 21.8123 20.7153 22.0158 20.5653 22.1658C20.4153 22.3158 20.2118 22.4001 19.9996 22.4001C19.7874 22.4001 19.584 22.3158 19.4339 22.1658C19.2839 22.0158 19.1996 21.8123 19.1996 21.6001V20.8001H18.3996C18.1874 20.8001 17.984 20.7158 17.8339 20.5658C17.6839 20.4158 17.5996 20.2123 17.5996 20.0001C17.5996 19.7879 17.6839 19.5844 17.8339 19.4344C17.984 19.2844 18.1874 19.2001 18.3996 19.2001H19.1996V18.4001C19.1996 18.1879 19.2839 17.9844 19.4339 17.8344C19.584 17.6844 19.7874 17.6001 19.9996 17.6001ZM25.5996 9.6001C25.7762 9.60004 25.9478 9.65839 26.0877 9.76605C26.2276 9.87371 26.328 10.0246 26.3732 10.1953L27.3164 13.7601L29.9996 15.3073C30.1212 15.3775 30.2222 15.4785 30.2924 15.6001C30.3626 15.7217 30.3996 15.8597 30.3996 16.0001C30.3996 16.1405 30.3626 16.2785 30.2924 16.4001C30.2222 16.5217 30.1212 16.6227 29.9996 16.6929L27.3164 18.2409L26.3724 21.8049C26.3271 21.9754 26.2268 22.1262 26.0869 22.2337C25.9471 22.3413 25.7756 22.3996 25.5992 22.3996C25.4228 22.3996 25.2513 22.3413 25.1115 22.2337C24.9717 22.1262 24.8713 21.9754 24.826 21.8049L23.8828 18.2401L21.1996 16.6929C21.078 16.6227 20.977 16.5217 20.9068 16.4001C20.8366 16.2785 20.7996 16.1405 20.7996 16.0001C20.7996 15.8597 20.8366 15.7217 20.9068 15.6001C20.977 15.4785 21.078 15.3775 21.1996 15.3073L23.8828 13.7593L24.8268 10.1953C24.872 10.0248 24.9722 9.87394 25.112 9.76629C25.2518 9.65865 25.4232 9.60022 25.5996 9.6001Z" fill="white"/>
<path d="M36.864 21H38.496V17.7H40.2C40.808 17.7 41.344 17.592 41.808 17.376C42.272 17.152 42.636 16.828 42.9 16.404C43.172 15.98 43.308 15.472 43.308 14.88C43.308 14.272 43.176 13.76 42.912 13.344C42.648 12.928 42.28 12.612 41.808 12.396C41.344 12.172 40.808 12.06 40.2 12.06H36.864V21ZM38.496 16.26V13.5H40.224C40.664 13.5 41.016 13.624 41.28 13.872C41.544 14.12 41.676 14.456 41.676 14.88C41.676 15.296 41.544 15.632 41.28 15.888C41.016 16.136 40.664 16.26 40.224 16.26H38.496ZM49.5493 21.144C50.2133 21.144 50.8293 21.028 51.3973 20.796C51.9653 20.564 52.4613 20.24 52.8853 19.824C53.3093 19.408 53.6373 18.92 53.8693 18.36C54.1093 17.792 54.2293 17.18 54.2293 16.524C54.2293 15.86 54.1093 15.248 53.8693 14.688C53.6373 14.128 53.3093 13.644 52.8853 13.236C52.4613 12.82 51.9653 12.496 51.3973 12.264C50.8293 12.032 50.2133 11.916 49.5493 11.916C48.8853 11.916 48.2693 12.032 47.7013 12.264C47.1333 12.496 46.6373 12.82 46.2133 13.236C45.7973 13.644 45.4693 14.128 45.2293 14.688C44.9973 15.248 44.8813 15.86 44.8813 16.524C44.8813 17.18 44.9973 17.792 45.2293 18.36C45.4693 18.92 45.8013 19.408 46.2253 19.824C46.6493 20.24 47.1453 20.564 47.7133 20.796C48.2813 21.028 48.8933 21.144 49.5493 21.144ZM49.5493 19.656C48.9733 19.656 48.4533 19.52 47.9893 19.248C47.5333 18.976 47.1733 18.604 46.9093 18.132C46.6453 17.66 46.5133 17.124 46.5133 16.524C46.5133 15.924 46.6453 15.392 46.9093 14.928C47.1733 14.456 47.5333 14.084 47.9893 13.812C48.4533 13.54 48.9733 13.404 49.5493 13.404C50.1333 13.404 50.6533 13.54 51.1093 13.812C51.5653 14.084 51.9253 14.456 52.1893 14.928C52.4533 15.392 52.5853 15.924 52.5853 16.524C52.5853 17.124 52.4533 17.66 52.1893 18.132C51.9253 18.604 51.5653 18.976 51.1093 19.248C50.6533 19.52 50.1333 19.656 49.5493 19.656ZM56.1804 21H57.8124V17.7H59.5164C60.1244 17.7 60.6604 17.592 61.1244 17.376C61.5884 17.152 61.9524 16.828 62.2164 16.404C62.4884 15.98 62.6244 15.472 62.6244 14.88C62.6244 14.272 62.4924 13.76 62.2284 13.344C61.9644 12.928 61.5964 12.612 61.1244 12.396C60.6604 12.172 60.1244 12.06 59.5164 12.06H56.1804V21ZM57.8124 16.26V13.5H59.5404C59.9804 13.5 60.3324 13.624 60.5964 13.872C60.8604 14.12 60.9924 14.456 60.9924 14.88C60.9924 15.296 60.8604 15.632 60.5964 15.888C60.3324 16.136 59.9804 16.26 59.5404 16.26H57.8124ZM67.9057 21.144C68.5937 21.144 69.2017 21 69.7297 20.712C70.2657 20.424 70.6857 20.028 70.9897 19.524C71.2937 19.02 71.4457 18.448 71.4457 17.808V12.06H69.8137V17.724C69.8137 18.1 69.7297 18.436 69.5617 18.732C69.4017 19.02 69.1777 19.248 68.8897 19.416C68.6097 19.576 68.2817 19.656 67.9057 19.656C67.5377 19.656 67.2097 19.576 66.9217 19.416C66.6337 19.248 66.4057 19.02 66.2377 18.732C66.0777 18.436 65.9977 18.1 65.9977 17.724V12.06H64.3657V17.808C64.3657 18.448 64.5177 19.02 64.8217 19.524C65.1257 20.028 65.5417 20.424 66.0697 20.712C66.6057 21 67.2177 21.144 67.9057 21.144ZM73.5749 21H79.0349V19.56H75.2069V12.06H73.5749V21ZM79.8586 21H81.6226L82.2706 19.08H85.7266L86.3626 21H88.1386L85.0546 12.06H82.9426L79.8586 21ZM82.7386 17.64L83.9986 13.872L85.2586 17.64H82.7386ZM89.6335 21H91.2655V17.7H92.8015L94.6495 21H96.4975L94.4455 17.412C94.9415 17.204 95.3335 16.884 95.6215 16.452C95.9175 16.02 96.0655 15.496 96.0655 14.88C96.0655 14.272 95.9335 13.76 95.6695 13.344C95.4055 12.928 95.0375 12.612 94.5655 12.396C94.1015 12.172 93.5655 12.06 92.9575 12.06H89.6335V21ZM91.2655 16.26V13.5H92.9815C93.4215 13.5 93.7735 13.624 94.0375 13.872C94.3015 14.12 94.4335 14.456 94.4335 14.88C94.4335 15.296 94.3015 15.632 94.0375 15.888C93.7735 16.136 93.4215 16.26 92.9815 16.26H91.2655Z" fill="white"/>
</svg>
