<svg width="588" height="654" viewBox="0 0 588 654" fill="none" xmlns="http://www.w3.org/2000/svg">
<g filter="url(#filter0_d_94_123)">
<rect x="70" y="30" width="448" height="514" rx="8" fill="#EBF6FF"/>
</g>
<path d="M284.869 113.249L338.838 147.036C338.838 147.036 350.568 154.544 353.391 139.767C356.208 124.985 346.585 109.963 337.671 105.506C337.671 105.506 337.666 79.4618 318.422 67.7256C299.183 55.9947 295.194 75.9367 295.194 75.9367C295.194 75.9367 276.658 68.8971 275.955 88.6101C275.3 106.901 284.869 113.249 284.869 113.249Z" fill="white"/>
<path d="M282.681 75.7931C288.235 73.3063 295.194 75.9368 295.194 75.9368C295.194 75.9368 295.887 72.5076 298.059 69.3286C295.178 69.2487 291.872 69.8291 289.353 72.1827L282.681 75.7931Z" fill="#E7E1FF"/>
<path d="M347.139 100.155L337.89 105.629C345.84 109.756 354.232 122.174 353.843 135.284L363.311 129.676C363.407 116.407 355.174 104.228 347.139 100.155Z" fill="#CFC9E2"/>
<path d="M353.849 135.289C353.801 136.774 353.673 138.271 353.391 139.767C352.422 144.874 350.382 147.318 348.13 148.33L348.226 148.447L359.616 141.727C359.616 141.727 362.326 138.697 363.029 133.92C363.237 132.493 363.311 131.082 363.317 129.676L353.849 135.283V135.289Z" fill="#AFA7D1"/>
<path d="M347.054 100.107C347.054 100.107 347.054 74.0622 327.815 62.326C318.176 56.4472 312.367 58.5187 308.964 62.0491L302.702 64.9086V65.1269C306.222 63.3804 311.265 63.3591 318.421 67.7202C337.666 79.4511 337.671 105.501 337.671 105.501C337.74 105.538 337.815 105.591 337.89 105.629L347.139 100.155C347.107 100.139 347.08 100.123 347.048 100.107H347.054Z" fill="#E7E1FF"/>
<g style="mix-blend-mode:multiply">
<path d="M119.694 378.422L187.167 344.869L192.273 347.057L199.568 339.768L217.157 345.279V348.442L199.931 354.72L203.216 357.271L143.768 388.635L119.694 378.422Z" fill="#CFC8E8"/>
</g>
<path d="M451.802 364.199C454.358 362.905 454.368 360.775 451.823 359.459L269.709 265.612C267.169 264.297 262.989 264.281 260.438 265.57L166.607 319.288C164.051 320.576 164.061 322.685 166.623 323.963L217.157 348.442C219.723 349.72 219.729 351.823 217.173 353.112L199.148 362.234C196.592 363.528 196.597 365.631 199.164 366.904L265.742 400.046C268.308 401.33 272.499 401.314 275.055 400.02L293.08 390.893C295.636 389.604 299.827 389.583 302.394 390.861L350.931 415.372C353.497 416.65 357.683 416.634 360.244 415.34L451.812 364.188L451.802 364.199Z" fill="#A79BBA"/>
<path d="M451.802 361.041C454.358 359.747 454.368 357.612 451.823 356.296L269.709 262.449C267.169 261.134 262.989 261.118 260.438 262.412L166.607 316.13C164.051 317.419 164.061 319.527 166.623 320.805L217.157 345.284C219.723 346.562 219.729 348.666 217.173 349.96L199.148 359.087C196.592 360.381 196.597 362.484 199.164 363.762L265.742 396.905C268.308 398.183 272.499 398.167 275.055 396.878L293.08 387.751C295.636 386.457 299.827 386.441 302.394 387.719L350.931 412.23C353.497 413.508 357.683 413.492 360.244 412.198L451.812 361.046L451.802 361.041Z" fill="white"/>
<g style="mix-blend-mode:multiply">
<path d="M468 339.31L406.092 303.212L398.578 307.674L402.465 371.861L468 339.31Z" fill="#CFC8E8"/>
</g>
<path d="M429.202 272.188L393.413 220.009L357.14 303.43V394.727L368.162 389.141V352.548L417.163 326.823L424.101 332.542V334.379L418.797 337.446V363.517L429.202 358.251V272.188Z" fill="#A79BBA"/>
<path d="M368.162 352.547L376.533 358.575L424.101 332.542L417.162 326.823L368.162 352.547Z" fill="#E45239"/>
<path d="M368.162 352.547V356.227L376.229 360.258V358.352L368.162 352.547Z" fill="#ED7262"/>
<path d="M376.533 358.575L376.229 358.352V360.258L376.741 360.514L418.797 337.446L424.101 334.379V332.542L376.533 358.575Z" fill="#B13627"/>
<path d="M376.741 360.514L373.269 358.778V386.558L391.23 377.468V352.563L376.741 360.514Z" fill="#7AAFE0"/>
<path d="M372.044 358.166V387.181L373.269 386.558V358.778L372.044 358.166Z" fill="white"/>
<path d="M391.23 352.563V377.468L392.455 376.845V351.887L391.23 352.563Z" fill="white"/>
<path d="M368.162 356.227V389.141L372.044 387.181V358.165L368.162 356.227Z" fill="#36A5CC"/>
<path d="M418.797 337.446L417.062 338.394V364.395L418.797 363.517V337.446Z" fill="#36A5CC"/>
<path d="M410.938 341.754V367.495L415.836 365.013V339.07L410.938 341.754Z" fill="#7AAFE0"/>
<path d="M415.836 339.07V365.013L417.061 364.396V338.394L415.836 339.07Z" fill="white"/>
<path d="M392.455 351.887V376.845L409.713 368.112V342.425L392.455 351.887Z" fill="#5A4E72"/>
<path d="M409.713 342.425V368.113L410.938 367.495V341.754L409.713 342.425Z" fill="white"/>
<path d="M353.146 312.616H348.667L310.642 293.382L289.177 303.877C290.945 307.216 292.489 311.726 292.212 317.131V362.585L356.724 394.934L357.139 394.727V303.435L353.146 312.621V312.616Z" fill="#EEE9FF"/>
<path d="M292.218 356.733V317.126C292.494 311.726 290.95 307.211 289.182 303.872L269.491 313.505H265.912L265.476 312.461V343.356L292.223 356.727L292.218 356.733Z" fill="#A86C4A"/>
<path d="M265.47 343.362V342.611L260.06 345.992V346.461L292.218 362.58V356.733L265.47 343.362Z" fill="#8B7EA5"/>
<path d="M265.47 312.466L260.06 299.516V345.992L265.47 342.611V312.466Z" fill="#A79BBA"/>
<path d="M404.149 258.77L402.466 259.595V284.058L381.331 294.814V296.896L404.149 285.277V258.77Z" fill="white"/>
<path d="M381.331 269.968V294.814L392.05 289.356V264.707L381.331 269.968Z" fill="#7AAFE0"/>
<path d="M402.466 259.595L393.738 263.876V288.499L402.466 284.058V259.595Z" fill="#7AAFE0"/>
<path d="M392.05 264.707V289.356L393.738 288.499V263.876L392.05 264.707Z" fill="white"/>
<path d="M406.598 257.566L404.149 258.769V285.277L406.598 286.204V257.566Z" fill="#D7CFE5"/>
<path d="M404.149 285.277L381.331 296.896V299.676L406.598 286.811V286.204L404.149 285.277Z" fill="#8B7EA5"/>
<path d="M218.488 275.037L205.064 280.405L202.827 279.063L219.83 246.852L200.591 237.757V316.641L260.06 346.461V299.516L258.574 295.959L218.488 275.037Z" fill="#EEE9FF"/>
<g style="mix-blend-mode:multiply" opacity="0.51">
<path d="M200.591 245.942L216.427 253.279L219.825 246.847L200.591 237.752V245.936V245.942ZM353.146 312.615H348.668L348.034 312.296L324.817 300.549L310.642 293.382L273.719 311.439L324.982 333.969V308.244L357.14 324.756V303.43L353.146 312.615Z" fill="#9A79A5"/>
</g>
<path d="M319.673 327.366L321.361 328.191V352.654L342.491 363.416V365.492L319.673 353.879V327.366Z" fill="white"/>
<path d="M342.491 338.564V363.416L331.771 357.952V333.303L342.491 338.564Z" fill="#7AAFE0"/>
<path d="M321.361 328.191L330.089 332.478V357.095L321.361 352.654V328.191Z" fill="#7AAFE0"/>
<path d="M331.772 333.303V357.952L330.089 357.095V332.478L331.772 333.303Z" fill="white"/>
<path d="M317.224 326.162L319.673 327.366V353.879L317.224 354.805V326.162Z" fill="#D7CFE5"/>
<path d="M319.673 353.879L342.491 365.492V368.267L317.224 355.407V354.805L319.673 353.879Z" fill="#8B7EA5"/>
<path d="M217.599 280.202L219.276 281.033V305.491L240.411 316.252V318.334L217.599 306.715V280.202Z" fill="white"/>
<path d="M240.411 291.406V316.253L229.692 310.795V286.145L240.411 291.406Z" fill="#7AAFE0"/>
<path d="M219.276 281.033L228.009 285.314V309.932L219.276 305.491V281.033Z" fill="#7AAFE0"/>
<path d="M229.691 286.145V310.794L228.009 309.932V285.314L229.691 286.145Z" fill="white"/>
<path d="M215.144 279.004L217.599 280.203V306.716L215.144 307.642V279.004Z" fill="#D7CFE5"/>
<path d="M217.599 306.716L240.411 318.335V321.109L215.144 308.249V307.642L217.599 306.716Z" fill="#8B7EA5"/>
<path d="M289.31 314.064C289.054 314.064 288.847 314.271 288.847 314.522V347.595C288.847 347.851 289.054 348.053 289.31 348.053C289.566 348.053 289.773 347.851 289.773 347.595V314.522C289.773 314.266 289.566 314.064 289.31 314.064ZM285.023 311.614C284.768 311.614 284.565 311.822 284.565 312.072V345.151C284.565 345.401 284.773 345.609 285.023 345.609C285.274 345.609 285.481 345.401 285.481 345.151V312.072C285.481 311.822 285.274 311.614 285.023 311.614ZM280.737 309.165C280.486 309.165 280.279 309.373 280.279 309.628V342.701C280.279 342.957 280.481 343.159 280.737 343.159C280.992 343.159 281.2 342.952 281.2 342.701V309.628C281.2 309.373 280.998 309.165 280.737 309.165ZM276.45 306.715C276.195 306.715 275.987 306.923 275.987 307.179V340.252C275.987 340.508 276.195 340.715 276.45 340.715C276.706 340.715 276.908 340.508 276.908 340.252V307.179C276.908 306.923 276.7 306.715 276.45 306.715ZM272.164 304.266C271.908 304.266 271.706 304.474 271.706 304.729V337.803C271.706 338.058 271.913 338.266 272.164 338.266C272.414 338.266 272.622 338.058 272.622 337.803V304.729C272.622 304.474 272.414 304.266 272.164 304.266Z" fill="#C6896B"/>
<path d="M304.055 294.026V375.434L307.319 377.069L307.729 376.861V285.565L304.055 294.026Z" fill="#D7CFE5"/>
<path d="M307.729 376.861L312.629 374.38V274.297L307.729 285.57V376.861Z" fill="#A79BBA"/>
<path d="M267.611 309.942V391.356L270.881 392.99L271.291 392.783V301.491L267.611 309.942Z" fill="#D7CFE5"/>
<path d="M271.291 392.783L276.189 390.301V290.224L271.291 301.491V392.783Z" fill="#A79BBA"/>
<path d="M204.835 280.852V362.26L208.099 363.9L208.509 363.692V272.396L204.835 280.852Z" fill="#D7CFE5"/>
<path d="M208.509 363.692L213.408 361.216V261.128L208.509 272.401V363.692Z" fill="#A79BBA"/>
<path d="M237.909 260.031V341.44L241.173 343.074L241.588 342.867V251.57L237.909 260.031Z" fill="#D7CFE5"/>
<path d="M241.588 342.867L246.487 340.39V240.308L241.588 251.575V342.867Z" fill="#A79BBA"/>
<path d="M397.439 210.616L242.2 132.77L236.38 135.007L391.235 212.703L397.508 210.722L397.439 210.616Z" fill="#FF6161"/>
<path d="M205.08 280.399L218.488 275.037L236.38 242.826L231.582 230.616L205.08 280.399Z" fill="#B21F1F"/>
<path d="M235.714 227.704L231.273 226.175L219.83 246.852L202.827 279.063L205.064 280.405L205.08 280.399L231.582 230.616L236.38 242.826L265.907 313.51H269.49L270.71 312.914L235.714 227.704Z" fill="#FF7171"/>
<path d="M236.38 135.006L195.223 235.222L219.83 246.852L231.273 226.175L312.585 173.24L236.38 135.006Z" fill="#F24E4E"/>
<path d="M312.586 173.24L231.273 226.175L235.714 227.704L316.441 175.173L312.586 173.24Z" fill="#FF6161"/>
<path d="M316.441 175.173L315.722 175.641L310.647 293.382L324.822 300.549L348.039 312.291L391.235 212.703L316.441 175.173Z" fill="#F24E4E"/>
<path d="M235.715 227.703L270.711 312.913L310.648 293.382L315.723 175.641L235.715 227.703Z" fill="#D83A2A"/>
<g style="mix-blend-mode:multiply" opacity="0.51">
<path d="M324.822 300.549L324.881 300.581L365.409 207.799L315.45 181.776L310.647 293.382L324.822 300.549Z" fill="#9A79A5"/>
</g>
<path d="M393.413 220.009L430.544 274.143L433.973 272.769L396.949 218.215L393.413 220.009Z" fill="#AA1B13"/>
<path d="M397.508 210.722L391.235 212.703L348.039 312.291L348.673 312.615H353.146L393.413 220.009L396.949 218.214L433.973 272.769L437.254 271.459L397.508 210.722Z" fill="#D83A2A"/>
<path d="M236.38 242.826L218.488 275.037L258.574 295.959L236.38 242.826Z" fill="#DED3F4"/>
<g style="mix-blend-mode:multiply" opacity="0.51">
<path d="M236.38 242.826L218.488 275.037L222.844 277.311L239.047 249.206L236.38 242.826Z" fill="#9A79A5"/>
</g>
<path d="M209.383 373.446L200.256 460.658L201.577 462.564L201.785 462.367L211.497 372.263L209.383 373.446Z" fill="#D7CFE5"/>
<path d="M201.785 462.367L204.314 459.944L213.319 372.993L211.375 371.779L201.785 462.367Z" fill="#A79BBA"/>
<path d="M248.751 372.13L248.405 459.816L249.901 461.584L250.093 461.361L250.737 370.74L248.751 372.13Z" fill="#D7CFE5"/>
<path d="M250.093 461.361L252.367 458.698L252.627 371.278L250.572 370.261L250.098 461.355L250.093 461.361Z" fill="#A79BBA"/>
<path d="M228.692 366.294L228.346 453.98L229.847 455.748L230.034 455.524L230.678 364.904L228.692 366.294Z" fill="#968CAF"/>
<path d="M230.034 455.524L232.307 452.862L232.568 365.447L230.513 364.43L230.039 455.524H230.034Z" fill="#867B9B"/>
<path d="M223.111 370.761L216.785 370.985L209.389 371.432V373.717L231.919 385.027L238.846 380.65V378.706L223.111 370.761Z" fill="#D7CFE5"/>
<path d="M209.389 371.433L231.876 382.711L238.538 378.547L216.119 367.226L209.389 371.433Z" fill="white"/>
<path d="M219.767 387.173L213.441 387.397L206.045 387.844V390.134L228.575 401.439L235.503 397.062V395.118L219.767 387.173Z" fill="#D7CFE5"/>
<path d="M206.045 387.844L228.532 399.122L235.188 394.958L212.77 383.637L206.045 387.844Z" fill="white"/>
<path d="M218.308 403.398L211.982 403.627L204.585 404.074V406.359L227.115 417.664L234.043 413.292V411.348L218.308 403.398Z" fill="#D7CFE5"/>
<path d="M204.585 404.075L227.073 415.353L233.729 411.189L211.311 399.868L204.585 404.075Z" fill="white"/>
<path d="M216.849 419.629L210.523 419.852L203.126 420.305V422.589L225.656 433.894L232.584 429.517V427.574L216.849 419.629Z" fill="#D7CFE5"/>
<path d="M203.126 420.305L225.614 431.583L232.27 427.414L209.852 416.098L203.126 420.305Z" fill="white"/>
<path d="M215.39 435.859L209.064 436.083L201.667 436.536V438.82L224.197 450.125L231.125 445.748V443.804L215.39 435.859Z" fill="#D7CFE5"/>
<path d="M201.667 436.536L224.155 447.809L230.816 443.644L208.398 432.323L201.667 436.536Z" fill="white"/>
<path d="M213.931 452.09L207.605 452.313L200.208 452.761V455.051L222.738 466.355L229.666 461.978V460.035L213.931 452.09Z" fill="#D7CFE5"/>
<path d="M200.208 452.761L222.696 464.039L229.357 459.875L206.939 448.554L200.208 452.761Z" fill="white"/>
<path d="M231.445 381.773L222.323 468.986L223.638 470.892L223.852 470.69L233.559 380.591L231.445 381.773Z" fill="#D7CFE5"/>
<path d="M223.852 470.69L226.381 468.267L235.385 381.316L233.442 380.096L223.852 470.685V470.69Z" fill="#A79BBA"/>
<path d="M216.785 370.985L209.389 371.433V373.717L231.919 385.027L252.707 371.896V369.702L216.785 370.985Z" fill="#D7CFE5"/>
<path d="M252.681 369.702L230.188 358.424L209.389 371.432L231.876 382.711L252.681 369.702Z" fill="white"/>
<g style="mix-blend-mode:multiply">
<path d="M294.012 454.366V454.324L248.111 427.086L202.204 455.096V455.122L247.493 481.14L294.012 454.366Z" fill="#CFC8E8"/>
</g>
<path d="M256.141 421.9V421.873L249.89 418.247L243.452 421.937V421.942L249.767 425.627L256.141 421.9Z" fill="#A4EEFF"/>
<path d="M249.767 425.627L243.452 421.942V462.386L249.89 466.262V425.558L249.767 425.627Z" fill="#D29F74"/>
<path d="M249.889 425.558V466.262L256.141 462.742V421.9L249.889 425.558Z" fill="#91633F"/>
<path d="M287.878 427.347L249.298 356.227L248.963 356.866V448.77L249.639 449.142L287.878 427.347Z" fill="#23C449"/>
<path d="M211.73 428.013L248.963 448.77V356.866L211.73 428.013Z" fill="#3AD666"/>
<path d="M283.847 392.533L249.351 328.937L249.053 329.506V411.697L249.655 412.033L283.847 392.533Z" fill="#3AD666"/>
<path d="M215.751 393.129L249.053 411.697V329.506L215.751 393.129Z" fill="#56DB75"/>
<g style="mix-blend-mode:multiply">
<path d="M227.876 488.888V488.851L181.974 461.614L136.073 489.623V489.65L181.357 515.667L227.876 488.888Z" fill="#CFC8E8"/>
</g>
<path d="M190.004 456.427V456.4L183.753 452.769L177.32 456.464V456.469L183.636 460.16L190.004 456.427Z" fill="#A4EEFF"/>
<path d="M183.636 460.159L177.32 456.469V496.907L183.753 500.784V460.085L183.636 460.159Z" fill="#D29F74"/>
<path d="M183.753 460.085V500.784L190.004 497.269V456.427L183.753 460.085Z" fill="#91633F"/>
<path d="M221.742 461.869L183.168 390.754L182.832 391.393V483.297L183.503 483.67L221.742 461.869Z" fill="#23C449"/>
<path d="M145.594 462.535L182.832 483.297V391.393L145.594 462.535Z" fill="#3AD666"/>
<path d="M217.716 427.06L183.215 363.464L182.922 364.033V446.224L183.524 446.56L217.716 427.06Z" fill="#3AD666"/>
<path d="M149.62 427.662L182.922 446.224V364.033L149.62 427.662Z" fill="#56DB75"/>
<defs>
<filter id="filter0_d_94_123" x="0" y="0" width="588" height="654" filterUnits="userSpaceOnUse" color-interpolation-filters="sRGB">
<feFlood flood-opacity="0" result="BackgroundImageFix"/>
<feColorMatrix in="SourceAlpha" type="matrix" values="0 0 0 0 0 0 0 0 0 0 0 0 0 0 0 0 0 0 127 0" result="hardAlpha"/>
<feOffset dy="40"/>
<feGaussianBlur stdDeviation="35"/>
<feComposite in2="hardAlpha" operator="out"/>
<feColorMatrix type="matrix" values="0 0 0 0 0.054902 0 0 0 0 0.0313726 0 0 0 0 0.329412 0 0 0 0.08 0"/>
<feBlend mode="normal" in2="BackgroundImageFix" result="effect1_dropShadow_94_123"/>
<feBlend mode="normal" in="SourceGraphic" in2="effect1_dropShadow_94_123" result="shape"/>
</filter>
</defs>
</svg>
