<svg width="20" height="22" viewBox="0 0 20 22" fill="none" xmlns="http://www.w3.org/2000/svg">
<path d="M2 0C0.897 0 0 0.897 0 2V18C0 19.103 0.897 20 2 20H9.0918C9.2398 19.286 9.57361 18.599 10.0996 18H2V2H9V7H14V10.2754C14.471 10.1084 14.971 10 15.5 10C15.671 10 15.834 10.0328 16 10.0508V6L10 0H2ZM15.5 12C14.837 12 14.2011 12.2634 13.7322 12.7322C13.2634 13.2011 13 13.837 13 14.5C13 15.163 13.2634 15.7989 13.7322 16.2678C14.2011 16.7366 14.837 17 15.5 17C16.163 17 16.7989 16.7366 17.2678 16.2678C17.7366 15.7989 18 15.163 18 14.5C18 13.837 17.7366 13.2011 17.2678 12.7322C16.7989 12.2634 16.163 12 15.5 12ZM15.5 18C12.892 18 11 19.0188 11 20.8828V22H20V20.8828C20 19.0188 18.108 18 15.5 18Z" fill="white"/>
</svg>
