<svg width="45" height="45" viewBox="0 0 45 45" fill="none" xmlns="http://www.w3.org/2000/svg">
<g filter="url(#filter0_i_2149_8132)">
<circle cx="22.5097" cy="22.8222" r="21.8671" fill="#F4FAFF"/>
</g>
<g clip-path="url(#clip0_2149_8132)">
<path fill-rule="evenodd" clip-rule="evenodd" d="M28.1776 26.2231C28.1505 29.7192 25.0681 28.7193 22.3011 28.4674C21.5175 28.3964 20.84 28.4606 20.9009 27.6079C20.9556 26.8488 21.6119 26.9194 22.3219 27.0098C23.523 27.163 25.5515 27.5583 26.5702 27.2538C27.0776 26.0667 26.1789 25.786 25.1552 25.4039C24.2565 25.0686 23.3605 24.7086 22.4487 24.3402C19.4638 23.1335 18.9402 24.5742 16.6914 25.2521L16.7054 32.3864C18.8856 32.4552 23.3402 33.5808 25.1434 33.1708C26.679 32.8217 27.1629 32.1052 28.0463 31.3255C29.7024 29.8641 31.3133 28.3477 32.9238 26.8267C33.4389 26.3405 35.2317 25.2182 34.4332 24.0283C33.6406 22.8477 32.1642 24.1384 31.2704 24.565C30.3618 24.9984 29.0433 25.7085 28.1776 26.2222V26.2231Z" fill="#073762"/>
<path fill-rule="evenodd" clip-rule="evenodd" d="M11.973 24.1906C11.3289 24.3457 11.1777 24.3805 11.0824 25.0777L11.0517 30.2801C11.0499 31.219 10.7926 32.8482 11.4426 33.2752C11.8759 33.5601 13.9148 33.5628 14.5318 33.3963C15.5538 33.1202 15.3317 32.0363 15.3254 30.8447C15.3195 29.6691 15.3213 28.493 15.3159 27.3174C15.3114 26.3446 15.5213 24.9529 14.8749 24.4236C14.3702 24.0104 12.6252 24.0337 11.973 24.1911V24.1906Z" fill="#073762"/>
<path fill-rule="evenodd" clip-rule="evenodd" d="M16.237 21.0681C17.3736 22.1589 18.1134 21.291 18.8342 20.7443C20.428 22.5359 19.7555 21.464 21.2884 20.9663C22.2196 21.9681 21.3836 21.8557 23.2577 22.0002C24.1718 23.3964 25.1305 24.0225 27.2705 23.6207C26.6819 22.9074 26.4205 23.0281 25.8261 22.0552C25.246 21.1053 25.4099 20.4851 26.1926 19.9687C28.017 19.8324 27.252 21.3103 28.3831 21.5149C28.4472 19.7173 28.5727 18.6275 26.8286 18.3266C26.0969 18.2005 25.3494 18.1656 24.7157 18.472C22.8695 19.3637 25.1513 19.9045 19.0685 19.1857C18.1215 19.0738 17.6968 18.9472 17.0427 19.4306C16.5141 19.8214 16.0407 20.154 16.2366 21.0681H16.237Z" fill="#1EA1D6"/>
<path fill-rule="evenodd" clip-rule="evenodd" d="M19.6708 15.6005C19.8337 16.0899 20.049 16.533 20.2336 16.8729L21.6121 16.4904C22.453 17.4242 21.1233 17.0899 23.5553 18.4347C24.7239 17.61 25.8596 17.2632 27.5374 17.7802C28.0434 17.9361 27.9883 17.9792 28.3368 18.2306L28.7606 18.504C28.8662 17.5857 29.1388 16.8023 28.4695 16.2615C26.2338 14.4552 24.7582 15.9037 24.148 15.8124L20.1059 14.0162C19.0695 13.5236 19.1061 13.3016 17.998 13.7603C17.1634 14.1057 16.5675 14.6084 17.3751 15.3969C18.271 16.272 18.638 15.5707 19.6717 15.601L19.6708 15.6005Z" fill="#1EA1D6"/>
<path fill-rule="evenodd" clip-rule="evenodd" d="M29.525 17.7151C30.4205 18.3206 30.9058 18.2642 31.2565 19.3513C32.1119 22.0015 28.6566 23.6629 27.195 21.502C26.8244 20.9539 26.9328 20.5778 26.262 20.753C25.8169 22.3432 29.1576 24.3834 31.2696 22.3189C31.9178 21.6855 32.324 20.3218 31.9232 19.0985C31.5034 17.8179 30.8701 17.6129 29.7123 17.0918L29.5246 17.7151H29.525Z" fill="#1EA1D6"/>
</g>
<defs>
<filter id="filter0_i_2149_8132" x="0.642578" y="0.955078" width="47.0985" height="50.4627" filterUnits="userSpaceOnUse" color-interpolation-filters="sRGB">
<feFlood flood-opacity="0" result="BackgroundImageFix"/>
<feBlend mode="normal" in="SourceGraphic" in2="BackgroundImageFix" result="shape"/>
<feColorMatrix in="SourceAlpha" type="matrix" values="0 0 0 0 0 0 0 0 0 0 0 0 0 0 0 0 0 0 127 0" result="hardAlpha"/>
<feOffset dx="3.36417" dy="6.72834"/>
<feGaussianBlur stdDeviation="3.36417"/>
<feComposite in2="hardAlpha" operator="arithmetic" k2="-1" k3="1"/>
<feColorMatrix type="matrix" values="0 0 0 0 0 0 0 0 0 0 0 0 0 0 0 0 0 0 0.05 0"/>
<feBlend mode="normal" in2="shape" result="effect1_innerShadow_2149_8132"/>
</filter>
<clipPath id="clip0_2149_8132">
<rect width="23.6364" height="20" fill="white" transform="translate(11 13.5098)"/>
</clipPath>
</defs>
</svg>
