<svg width="45" height="45" viewBox="0 0 45 45" fill="none" xmlns="http://www.w3.org/2000/svg">
<g filter="url(#filter0_i_2149_8114)">
<circle cx="22.5107" cy="22.5956" r="21.8671" fill="#F4FAFF"/>
</g>
<g clip-path="url(#clip0_2149_8114)">
<path fill-rule="evenodd" clip-rule="evenodd" d="M14.012 15.2898C13.9551 14.6153 14.0842 14.285 13.7335 13.7123C13.1491 13.5185 12.5122 13.4988 11.9424 13.7264C11.5956 14.5852 11.7787 15.8509 11.7805 16.8368C11.7027 17.2896 9.86992 18.5454 9.4456 18.866C8.44284 19.6237 7.58984 20.0258 8.21072 21.6581L10.5321 21.7641C10.4484 23.6948 10.3346 29.0467 10.6268 30.1743C14.7787 30.4512 18.9788 30.2193 23.1485 30.3332C23.2497 27.8579 24.1944 26.875 25.6417 25.9113C25.23 24.3057 24.4373 22.4972 26.5452 20.3865C26.9243 20.0068 27.455 19.6468 28.0849 19.3721C27.7972 19.0379 26.8199 18.3258 26.4186 18.0287C24.5846 16.6722 23.2747 15.3935 21.2572 14.0304C18.8753 12.4212 18.8593 11.5991 17.5203 12.666C16.4253 13.5384 15.1191 14.5494 14.012 15.2898ZM22.8096 16.8674L21.9988 18.5726H20.1506C20.2419 18.6752 20.3304 18.8067 20.4189 18.9672C20.5047 19.1305 20.56 19.2935 20.5877 19.4568H22.8093L21.9985 21.1618H20.5877C20.524 21.5302 20.3884 21.8644 20.1866 22.1644C19.9847 22.4644 19.7329 22.7248 19.4285 22.946C19.1269 23.167 18.7838 23.3461 18.3994 23.4802C18.0175 23.6169 17.6109 23.7012 17.1847 23.7381L21.6001 28.172H18.7283L14.6615 23.8617V22.1567H15.8622C16.0118 22.1567 16.2053 22.1461 16.4377 22.125C16.67 22.1064 16.8996 22.0618 17.1292 21.9907C17.3588 21.9223 17.5691 21.8223 17.7574 21.6934C17.9482 21.5646 18.0783 21.3855 18.1476 21.162H14.2631L15.0739 19.457H18.1393C18.0755 19.2516 17.9567 19.0911 17.7822 18.9729C17.6106 18.8545 17.4033 18.7675 17.1652 18.7071C16.9246 18.6491 16.6563 18.6122 16.3602 18.5966C16.0613 18.5807 15.7542 18.573 15.4361 18.573H14.2629L15.0737 16.8678H22.8093L22.8096 16.8674Z" fill="#073762"/>
<path fill-rule="evenodd" clip-rule="evenodd" d="M27.2005 27.0015C25.1961 27.8229 24.4046 30.2998 25.0869 33.0661C26.1241 33.086 34.3297 33.3885 34.7316 32.9418C35.0541 32.5833 34.7866 29.415 35.1339 28.4103C35.4768 27.4185 36.1185 26.953 36.6135 24.95C36.8892 23.8344 37.1773 21.5113 36.864 20.4163C36.4426 18.9434 34.407 19.1562 34.4045 21.1515C34.4024 22.768 34.4011 24.227 33.7497 25.5641C32.5288 28.07 29.7593 28.7067 27.2007 27.0012L27.2005 27.0015Z" fill="#1EA1D6"/>
<path fill-rule="evenodd" clip-rule="evenodd" d="M29.3082 20.8046C25.1196 21.9121 26.8719 27.484 30.6006 26.6374C34.6479 25.7185 32.8951 19.8561 29.3082 20.8046Z" fill="#1EA1D6"/>
<path d="M22.6467 16.8086L21.8511 18.5443H20.0292C20.1193 18.6491 20.2069 18.7852 20.2917 18.9528C20.3766 19.1151 20.4323 19.28 20.4588 19.4476H22.6467L21.8511 21.1833H20.4588C20.3951 21.5603 20.2625 21.9033 20.061 22.2122C19.8648 22.5159 19.6181 22.7803 19.3211 23.0055C19.0241 23.2306 18.6873 23.4139 18.3107 23.5553C17.9341 23.6914 17.5363 23.7778 17.1173 23.8145L21.4453 28.3227H18.6289L14.6351 23.9401V22.2044H15.8126C15.9611 22.2044 16.1494 22.1939 16.3774 22.1729C16.6055 22.152 16.8309 22.1075 17.0537 22.0394C17.2817 21.9661 17.4886 21.864 17.6742 21.7331C17.8599 21.597 17.9872 21.4137 18.0561 21.1833H14.2373L15.0329 19.4476H18.0482C17.9845 19.2381 17.8678 19.0732 17.6981 18.9528C17.5284 18.8323 17.3242 18.7433 17.0855 18.6857C16.8521 18.6229 16.5896 18.5836 16.2979 18.5679C16.0062 18.5522 15.7038 18.5443 15.3909 18.5443H14.2373L15.0329 16.8086H22.6467Z" fill="white"/>
</g>
<defs>
<filter id="filter0_i_2149_8114" x="0.643555" y="0.728516" width="47.0985" height="50.4627" filterUnits="userSpaceOnUse" color-interpolation-filters="sRGB">
<feFlood flood-opacity="0" result="BackgroundImageFix"/>
<feBlend mode="normal" in="SourceGraphic" in2="BackgroundImageFix" result="shape"/>
<feColorMatrix in="SourceAlpha" type="matrix" values="0 0 0 0 0 0 0 0 0 0 0 0 0 0 0 0 0 0 127 0" result="hardAlpha"/>
<feOffset dx="3.36417" dy="6.72834"/>
<feGaussianBlur stdDeviation="3.36417"/>
<feComposite in2="hardAlpha" operator="arithmetic" k2="-1" k3="1"/>
<feColorMatrix type="matrix" values="0 0 0 0 0 0 0 0 0 0 0 0 0 0 0 0 0 0 0.05 0"/>
<feBlend mode="normal" in2="shape" result="effect1_innerShadow_2149_8114"/>
</filter>
<clipPath id="clip0_2149_8114">
<rect width="29" height="21" fill="white" transform="translate(8 12.1855)"/>
</clipPath>
</defs>
</svg>
