<svg width="45" height="45" viewBox="0 0 45 45" fill="none" xmlns="http://www.w3.org/2000/svg">
<g filter="url(#filter0_i_261_2860)">
<circle cx="22.5092" cy="22.6298" r="21.8671" fill="#F4FAFF"/>
</g>
<g clip-path="url(#clip0_261_2860)">
<path fill-rule="evenodd" clip-rule="evenodd" d="M14.0124 15.1033C13.9556 14.4288 14.0847 14.0984 13.734 13.5258C13.1496 13.332 12.5126 13.3123 11.9429 13.5398C11.5961 14.3987 11.7792 15.6644 11.781 16.6503C11.7032 17.1031 9.87041 18.3589 9.44609 18.6795C8.44332 19.4371 7.59033 19.8393 8.21121 21.4716L10.5326 21.5775C10.4489 23.5083 10.3351 28.8601 10.6273 29.9877C14.7792 30.2647 18.9793 30.0328 23.149 30.1467C23.2502 27.6714 24.1949 26.6885 25.6422 25.7248C25.2305 24.1192 24.4378 22.3107 26.5456 20.2C26.9248 19.8202 27.4555 19.4602 28.0853 19.1856C27.7977 18.8514 26.8204 18.1393 26.419 17.8422C24.5851 16.4857 23.2752 15.207 21.2577 13.8439C18.8758 12.2347 18.8598 11.4125 17.5207 12.4795C16.4258 13.3519 15.1196 14.3629 14.0124 15.1033ZM22.81 16.6808L21.9993 18.3861H20.1511C20.2423 18.4886 20.3309 18.6202 20.4194 18.7807C20.5052 18.944 20.5605 19.107 20.5882 19.2703H22.8098L21.999 20.9753H20.5882C20.5245 21.3436 20.3889 21.6779 20.1871 21.9779C19.9852 22.2779 19.7334 22.5383 19.429 22.7595C19.1274 22.9805 18.7843 23.1596 18.3999 23.2936C18.018 23.4304 17.6113 23.5146 17.1852 23.5515L21.6006 27.9854H18.7288L14.662 23.6752V21.9702H15.8627C16.0122 21.9702 16.2058 21.9595 16.4382 21.9385C16.6705 21.9199 16.9001 21.8753 17.1297 21.8042C17.3593 21.7358 17.5696 21.6357 17.7579 21.5069C17.9487 21.3781 18.0788 21.199 18.148 20.9755H14.2636L15.0744 19.2705H18.1398C18.076 19.0651 17.9572 18.9046 17.7827 18.7864C17.6111 18.668 17.4038 18.581 17.1657 18.5206C16.9251 18.4626 16.6567 18.4257 16.3606 18.4101C16.0618 18.3942 15.7547 18.3865 15.4365 18.3865H14.2634L15.0742 16.6813H22.8098L22.81 16.6808Z" fill="#073762"/>
<path fill-rule="evenodd" clip-rule="evenodd" d="M27.2005 26.8159C25.1961 27.6374 24.4046 30.1143 25.0869 32.8805C26.1241 32.9005 34.3297 33.203 34.7316 32.7562C35.0541 32.3978 34.7866 29.2294 35.1339 28.2247C35.4768 27.233 36.1185 26.7675 36.6135 24.7645C36.8892 23.6489 37.1773 21.3257 36.864 20.2307C36.4426 18.7578 34.407 18.9707 34.4045 20.9659C34.4024 22.5824 34.4011 24.0415 33.7497 25.3786C32.5288 27.8844 29.7593 28.5211 27.2007 26.8157L27.2005 26.8159Z" fill="#1EA1D6"/>
<path fill-rule="evenodd" clip-rule="evenodd" d="M29.3086 20.6171C25.1201 21.7246 26.8724 27.2965 30.6011 26.4499C34.6484 25.531 32.8956 19.6686 29.3086 20.6171Z" fill="#1EA1D6"/>
<path d="M22.6467 16.6211L21.8511 18.3568H20.0292C20.1193 18.4616 20.2069 18.5977 20.2917 18.7653C20.3766 18.9276 20.4323 19.0925 20.4588 19.2601H22.6467L21.8511 20.9958H20.4588C20.3951 21.3728 20.2625 21.7158 20.061 22.0247C19.8648 22.3284 19.6181 22.5928 19.3211 22.818C19.0241 23.0431 18.6873 23.2264 18.3107 23.3678C17.9341 23.5039 17.5363 23.5903 17.1173 23.627L21.4453 28.1352H18.6289L14.6351 23.7526V22.0169H15.8126C15.9611 22.0169 16.1494 22.0064 16.3774 21.9854C16.6055 21.9645 16.8309 21.92 17.0537 21.8519C17.2817 21.7786 17.4886 21.6765 17.6742 21.5456C17.8599 21.4095 17.9872 21.2262 18.0561 20.9958H14.2373L15.0329 19.2601H18.0482C17.9845 19.0506 17.8678 18.8857 17.6981 18.7653C17.5284 18.6448 17.3242 18.5558 17.0855 18.4982C16.8521 18.4354 16.5896 18.3961 16.2979 18.3804C16.0062 18.3647 15.7038 18.3568 15.3909 18.3568H14.2373L15.0329 16.6211H22.6467Z" fill="white"/>
</g>
<defs>
<filter id="filter0_i_261_2860" x="0.64209" y="0.762695" width="47.0985" height="50.4627" filterUnits="userSpaceOnUse" color-interpolation-filters="sRGB">
<feFlood flood-opacity="0" result="BackgroundImageFix"/>
<feBlend mode="normal" in="SourceGraphic" in2="BackgroundImageFix" result="shape"/>
<feColorMatrix in="SourceAlpha" type="matrix" values="0 0 0 0 0 0 0 0 0 0 0 0 0 0 0 0 0 0 127 0" result="hardAlpha"/>
<feOffset dx="3.36417" dy="6.72834"/>
<feGaussianBlur stdDeviation="3.36417"/>
<feComposite in2="hardAlpha" operator="arithmetic" k2="-1" k3="1"/>
<feColorMatrix type="matrix" values="0 0 0 0 0 0 0 0 0 0 0 0 0 0 0 0 0 0 0.05 0"/>
<feBlend mode="normal" in2="shape" result="effect1_innerShadow_261_2860"/>
</filter>
<clipPath id="clip0_261_2860">
<rect width="29" height="21" fill="white" transform="translate(8 11.999)"/>
</clipPath>
</defs>
</svg>
