<svg width="21" height="21" viewBox="0 0 21 21" fill="none" xmlns="http://www.w3.org/2000/svg">
<path d="M17.7562 7.1087L12.1816 2.83289C11.6924 2.45758 11.092 2.25592 10.4752 2.25981C9.85837 2.2637 9.26047 2.47291 8.77603 2.85435L3.25478 7.20009C2.92297 7.46126 2.65528 7.79473 2.47217 8.17503C2.28905 8.55534 2.19534 8.97242 2.1982 9.39444L2.24536 16.877C2.24883 17.4282 2.47135 17.9555 2.86396 18.3428C3.25656 18.7302 3.7871 18.9458 4.33886 18.9423L16.8212 18.8637C17.373 18.8602 17.9008 18.6379 18.2885 18.2456C18.6762 17.8534 18.892 17.3233 18.8885 16.7721L18.8414 9.28954C18.836 8.43425 18.4356 7.62925 17.7562 7.1087Z" stroke="#100A55" stroke-width="1.99722" stroke-linecap="round" stroke-linejoin="round"/>
</svg>
