<svg width="18" height="19" viewBox="0 0 18 19" fill="none" xmlns="http://www.w3.org/2000/svg">
<path d="M7.46458 2.45725C7.85508 0.847583 10.1449 0.847583 10.5354 2.45725C10.594 2.69907 10.7089 2.92363 10.8707 3.11267C11.0324 3.3017 11.2366 3.44987 11.4664 3.5451C11.6963 3.64033 11.9454 3.67995 12.1935 3.66071C12.4415 3.64148 12.6816 3.56394 12.894 3.43442C14.3084 2.57275 15.9282 4.19158 15.0665 5.60692C14.9372 5.81927 14.8597 6.05914 14.8406 6.30704C14.8214 6.55494 14.8609 6.80387 14.9561 7.0336C15.0512 7.26332 15.1992 7.46736 15.388 7.62913C15.5768 7.7909 15.8012 7.90583 16.0428 7.96458C17.6524 8.35508 17.6524 10.6449 16.0428 11.0354C15.8009 11.094 15.5764 11.2089 15.3873 11.3707C15.1983 11.5324 15.0501 11.7366 14.9549 11.9664C14.8597 12.1963 14.8201 12.4454 14.8393 12.6935C14.8585 12.9415 14.9361 13.1816 15.0656 13.394C15.9273 14.8084 14.3084 16.4282 12.8931 15.5665C12.6807 15.4372 12.4409 15.3597 12.193 15.3406C11.9451 15.3214 11.6961 15.3609 11.4664 15.4561C11.2367 15.5512 11.0326 15.6992 10.8709 15.888C10.7091 16.0768 10.5942 16.3012 10.5354 16.5428C10.1449 18.1524 7.85508 18.1524 7.46458 16.5428C7.40599 16.3009 7.29113 16.0764 7.12935 15.8873C6.96757 15.6983 6.76344 15.5501 6.53357 15.4549C6.3037 15.3597 6.0546 15.3201 5.80653 15.3393C5.55846 15.3585 5.31844 15.4361 5.106 15.5656C3.69158 16.4273 2.07183 14.8084 2.9335 13.3931C3.06284 13.1807 3.14025 12.9409 3.15944 12.693C3.17863 12.4451 3.13906 12.1961 3.04393 11.9664C2.94881 11.7367 2.80082 11.5326 2.612 11.3709C2.42318 11.2091 2.19885 11.0942 1.95725 11.0354C0.347583 10.6449 0.347583 8.35508 1.95725 7.96458C2.19907 7.90599 2.42363 7.79113 2.61267 7.62935C2.8017 7.46757 2.94987 7.26344 3.0451 7.03357C3.14033 6.8037 3.17995 6.5546 3.16071 6.30653C3.14148 6.05846 3.06394 5.81844 2.93442 5.606C2.07275 4.19158 3.69158 2.57183 5.10692 3.4335C6.02358 3.99083 7.21158 3.49767 7.46458 2.45725Z" stroke="#737787" stroke-width="1.5" stroke-linecap="round" stroke-linejoin="round"/>
<path d="M9 12.25C10.5188 12.25 11.75 11.0188 11.75 9.5C11.75 7.98122 10.5188 6.75 9 6.75C7.48122 6.75 6.25 7.98122 6.25 9.5C6.25 11.0188 7.48122 12.25 9 12.25Z" stroke="#737787" stroke-width="1.5" stroke-linecap="round" stroke-linejoin="round"/>
</svg>
