<svg width="256" height="32" viewBox="0 0 256 32" fill="none" xmlns="http://www.w3.org/2000/svg">
<path d="M127.484 27.5773H118.861V4.52383H127.484V27.5773ZM119.703 26.7352H126.642V5.36593H119.703V26.7352ZM139.482 27.5773H131.033V4.52383H148.686C151.216 4.31903 153.734 5.02904 155.784 6.52467C156.666 7.33193 157.35 8.33215 157.782 9.44727C158.214 10.5624 158.383 11.7623 158.275 12.9533C158.401 15.0114 157.746 17.0412 156.441 18.6375C154.896 20.4093 152.326 21.3221 148.803 21.3541C147.915 21.3777 141.264 21.3541 139.487 21.3541L139.482 27.5773ZM131.87 26.7352H138.64V20.5036H139.063C139.149 20.5036 147.784 20.5306 148.783 20.5036C152.065 20.475 154.425 19.6615 155.804 18.0733C156.966 16.629 157.543 14.8011 157.421 12.9516C157.524 11.8845 157.381 10.8078 157.001 9.80508C156.621 8.80238 156.016 7.90062 155.231 7.16972C153.331 5.80568 151.006 5.1654 148.675 5.36425H131.875L131.87 26.7352ZM146.898 16.1752H138.583V9.89983H146.953C147.547 9.81784 148.151 9.8871 148.711 10.1011C149.27 10.3152 149.766 10.6671 150.153 11.1242C150.505 11.7086 150.67 12.3857 150.628 13.0661C150.66 13.6979 150.523 14.3267 150.233 14.8885C149.833 15.3699 149.317 15.7406 148.733 15.9648C148.149 16.1889 147.517 16.2591 146.898 16.1685V16.1752ZM139.425 15.3331H146.898C148.279 15.3331 149.135 15.0451 149.513 14.4523C149.722 14.0213 149.817 13.5441 149.788 13.0661C149.825 12.5644 149.716 12.0626 149.475 11.6211L149.465 11.6059C149.064 11.0165 148.267 10.7419 146.953 10.7419H139.425V15.3331ZM173.643 27.9175C166.081 27.9175 161.567 26.0396 159.848 22.1777C159.566 21.4318 159.375 20.6549 159.279 19.8636L159.204 19.3786H168.201L168.26 19.7323C168.33 20.0913 168.483 20.4293 168.705 20.7192C169.06 21.1487 170.246 21.8695 174.18 21.8695C178.91 21.8695 178.91 21.0392 178.91 20.5929C178.91 19.84 178.362 19.5824 174.505 19.1714L173.773 19.1024C172.321 18.9659 170.485 18.7925 169.646 18.72C162.573 18.08 159.415 15.8821 159.415 11.5958C159.415 7.09394 164.789 4.1853 173.108 4.1853C179.893 4.1853 184.265 5.97393 186.1 9.50572C186.534 10.3272 186.827 11.2169 186.964 12.1365L187.023 12.6097H178.015L177.978 12.2291C177.943 11.9316 177.817 11.6526 177.615 11.4308C177.278 10.9794 176.213 10.2333 172.909 10.2333C168.852 10.2333 168.292 10.752 168.292 11.3112C168.292 12.0573 169.574 12.3217 173.682 12.7613C175.395 12.9011 178.148 13.184 179.092 13.2986C185.022 13.9419 187.668 16.0859 187.668 20.2527C187.669 23.7474 185.236 27.9175 173.643 27.9175ZM160.188 20.2207C160.272 20.7761 160.418 21.3205 160.621 21.8443C162.187 25.3626 166.448 27.0754 173.643 27.0754C179.659 27.0754 186.832 25.8965 186.832 20.2527C186.832 16.5592 184.491 14.7301 179.002 14.1356C178.059 14.0211 175.322 13.7398 173.613 13.5984C169.234 13.1234 167.454 12.8708 167.454 11.3112C167.454 9.69772 169.372 9.3912 172.912 9.3912C175.71 9.3912 177.517 9.89646 178.283 10.9154C178.492 11.1664 178.65 11.456 178.748 11.7676H186.047C185.901 11.1163 185.668 10.4871 185.357 9.89646C183.673 6.66446 179.558 5.02741 173.111 5.02741C165.305 5.02741 160.26 7.60594 160.26 11.5958C160.26 15.4021 163.092 17.2817 169.724 17.8813C170.566 17.9537 172.4 18.1272 173.855 18.2653L174.593 18.3344C178.175 18.7116 179.755 18.9474 179.755 20.5929C179.755 22.3647 177.712 22.7116 174.184 22.7116C170.92 22.7116 168.858 22.2215 168.062 21.2565C167.816 20.9488 167.631 20.5973 167.516 20.2207H160.188ZM203.668 27.8889C194.876 27.8889 190.025 24.3335 190.025 17.8763V4.52383H198.534V17.8763C198.534 20.091 200.516 21.3609 203.971 21.3609C207.272 21.3609 209.321 20.0354 209.321 17.9049V4.52383H217.742V18.5836C217.751 24.4969 212.616 27.8889 203.663 27.8889H203.668ZM190.868 5.36593V17.8763C190.868 25.856 198.881 27.0468 203.668 27.0468C208.616 27.0468 216.914 25.947 216.914 18.5836V5.36593H210.177V17.9049C210.177 20.5154 207.745 22.203 203.984 22.203C200.053 22.203 197.705 20.5861 197.705 17.8763V5.36593H190.868ZM253.428 27.5773H245.397V17.1689L240.843 27.5773H233.839L229.332 17.1891V27.5773H221.273V4.52383H231.873L237.38 17.2346L243.154 4.52383H253.438L253.428 27.5773ZM246.239 26.7352H252.585V5.36593H243.689L237.353 19.3095L231.314 5.36593H222.108V26.7352H228.483V13.1369L234.377 26.7403H240.272L246.229 13.1571L246.239 26.7352ZM10.1972 4.94488H2.52734V27.1563H23.7214V21.243H10.1972V4.94488ZM39.2027 4.43962C29.4124 4.43962 24.2638 9.07962 24.2638 15.8923C24.2638 23.5891 29.6684 27.4931 39.2027 27.4931C49.6987 27.4931 54.113 22.9659 54.113 15.8923C54.113 8.70909 49.1328 4.43625 39.2027 4.43625V4.43962ZM39.1741 10.2114C39.8405 10.2083 40.5066 10.2471 41.1682 10.3276L32.5939 18.9019C32.1881 17.9842 31.9902 16.988 32.0145 15.9849C32.0145 12.5003 33.7695 10.208 39.1741 10.208V10.2114ZM39.2027 21.8123C38.5605 21.8151 37.9188 21.7791 37.281 21.7045L45.8705 13.115C46.2611 14.0176 46.448 14.9951 46.4179 15.9781C46.4179 19.3685 44.801 21.8089 39.2027 21.8089V21.8123ZM69.3097 18.7807H77.2036C77.0873 19.3285 76.8452 19.8417 76.4962 20.2796C74.8596 21.6128 72.771 22.2616 70.6671 22.0901C69.6081 22.2035 68.5373 22.0878 67.5269 21.7509C66.5166 21.4143 65.5902 20.8642 64.8111 20.1381C64.013 18.9675 63.6339 17.5615 63.7349 16.1483C63.6057 14.6674 64.018 13.19 64.8953 11.9899C65.9985 10.7436 67.8663 10.2064 70.6116 10.2064C72.3582 10.0617 74.1028 10.5103 75.5631 11.4796C76.0234 11.8452 76.3675 12.3367 76.5535 12.8944H83.8747C83.8215 11.9756 83.6005 11.0743 83.2229 10.235C81.4697 6.66951 77.3939 4.54741 70.4633 4.54741C64.4356 4.54741 60.3901 6.38657 58.1551 9.16046C56.6791 11.1636 55.9214 13.6058 56.0044 16.0927C55.9089 18.6358 56.6471 21.1404 58.1063 23.2253C60.3143 26.0885 64.2469 27.4965 68.9728 27.4965C72.1147 27.7156 75.2352 26.8356 77.7998 25.0072L77.9985 27.1563H84.0802V13.9992H69.3097V18.7807ZM101.342 4.43457C91.553 4.43457 86.4027 9.07457 86.4027 15.8872C86.4027 23.584 91.8057 27.488 101.342 27.488C111.839 27.488 116.254 22.9609 116.254 15.8872C116.254 8.70909 111.273 4.43625 101.342 4.43625V4.43457ZM101.315 10.2064C101.964 10.2044 102.612 10.2416 103.257 10.3175L94.716 18.8632C94.3229 17.9556 94.1316 16.9737 94.1551 15.9849C94.1484 12.5003 95.9101 10.208 101.315 10.208V10.2064ZM101.342 21.8072C100.682 21.8101 100.024 21.7717 99.3695 21.6927L107.988 13.0729C108.393 13.9875 108.587 14.9816 108.555 15.9815C108.559 19.3685 106.948 21.8089 101.342 21.8089V21.8072Z" fill="#666666"/>
</svg>
