<svg width="16" height="16" viewBox="0 0 16 16" fill="none" xmlns="http://www.w3.org/2000/svg">
<path d="M6.00065 14.6666H10.0007C13.334 14.6666 14.6673 13.3333 14.6673 9.99992V5.99992C14.6673 2.66659 13.334 1.33325 10.0007 1.33325H6.00065C2.66732 1.33325 1.33398 2.66659 1.33398 5.99992V9.99992C1.33398 13.3333 2.66732 14.6666 6.00065 14.6666Z" stroke="#073762" stroke-width="1.5" stroke-linecap="round" stroke-linejoin="round"/>
<path d="M5.99935 6.66667C6.73573 6.66667 7.33268 6.06971 7.33268 5.33333C7.33268 4.59695 6.73573 4 5.99935 4C5.26297 4 4.66602 4.59695 4.66602 5.33333C4.66602 6.06971 5.26297 6.66667 5.99935 6.66667Z" stroke="#073762" stroke-width="1.5" stroke-linecap="round" stroke-linejoin="round"/>
<path d="M1.7793 12.6333L5.06596 10.4266C5.59263 10.0733 6.35263 10.1133 6.82596 10.52L7.04596 10.7133C7.56596 11.16 8.40596 11.16 8.92596 10.7133L11.6993 8.33329C12.2193 7.88662 13.0593 7.88662 13.5793 8.33329L14.666 9.26662" stroke="#073762" stroke-width="1.5" stroke-linecap="round" stroke-linejoin="round"/>
</svg>
